<svg width="52" height="52" viewBox="0 0 52 52" fill="none" xmlns="http://www.w3.org/2000/svg">
<g id="image_16563211811780523714 1" clip-path="url(#clip0_115_143)">
<g id="Group 136">
<g id="Group 135">
<path id="Path 116" d="M48.144 17.4739C47.3483 17.4784 46.5775 17.7521 45.9569 18.2502C45.3363 18.7484 44.9026 19.442 44.7261 20.218H43.0411C43.0889 19.7937 43.1129 19.367 43.113 18.9399C43.113 8.50394 35.3851 -0.00195312 25.8791 -0.00195312C17.9521 -0.00195312 11.259 5.92382 9.27203 13.9658H6.94708C6.75572 13.1214 6.25984 12.3773 5.55432 11.8755C4.8488 11.3737 3.9831 11.1496 3.12268 11.2458C2.26226 11.3421 1.46754 11.7521 0.890381 12.3975C0.31322 13.0428 -0.00585938 13.8781 -0.00585938 14.7439C-0.00585938 15.6097 0.31322 16.4452 0.890381 17.0906C1.46754 17.7359 2.26226 18.1459 3.12268 18.2422C3.9831 18.3385 4.8488 18.1141 5.55432 17.6123C6.25984 17.1105 6.75572 16.3663 6.94708 15.522H8.94708C8.75525 16.6512 8.65821 17.7945 8.65704 18.9399C8.73754 21.2628 9.23303 23.5526 10.1201 25.7009H8.52008C8.32838 24.8565 7.83224 24.1123 7.12646 23.6106C6.42069 23.1089 5.55474 22.885 4.69421 22.9814C3.83368 23.0779 3.03892 23.488 2.46173 24.1335C1.88454 24.779 1.56543 25.6145 1.56543 26.4805C1.56543 27.3464 1.88454 28.1819 2.46173 28.8274C3.03892 29.4729 3.83368 29.883 4.69421 29.9795C5.55474 30.0759 6.42069 29.852 7.12646 29.3503C7.83224 28.8486 8.32838 28.1044 8.52008 27.26H10.761C11.402 28.769 12.12 30.2599 12.842 31.7439C13.794 33.6979 14.7481 35.6969 15.4901 37.6489H15.2711C15.0647 37.6489 14.8669 37.7308 14.7209 37.8767C14.575 38.0226 14.493 38.2207 14.493 38.427C14.493 38.6333 14.575 38.8311 14.7209 38.9771C14.8669 39.123 15.0647 39.2048 15.2711 39.2048H15.7001V42.0178H15.2711C15.062 42.0199 14.8621 42.1038 14.7141 42.2515C14.566 42.3991 14.4817 42.5988 14.4791 42.8079C14.4784 42.912 14.4984 43.0152 14.538 43.1116C14.5776 43.2079 14.6359 43.2955 14.7096 43.3691C14.7833 43.4427 14.8709 43.5008 14.9673 43.5403C15.0637 43.5797 15.1669 43.5997 15.2711 43.5989H15.7001V46.4119H15.2711C15.0647 46.4119 14.8669 46.494 14.7209 46.6399C14.575 46.7858 14.493 46.9836 14.493 47.1899C14.493 47.3963 14.575 47.5941 14.7209 47.74C14.8669 47.8859 15.0647 47.968 15.2711 47.968H17.735C17.9162 49.008 18.4581 49.9509 19.2656 50.6309C20.073 51.3109 21.0944 51.6845 22.1501 51.686H29.6011C30.6585 51.6864 31.6822 51.3136 32.4919 50.6335C33.3017 49.9535 33.8457 49.0096 34.0281 47.968H36.41C36.6164 47.968 36.8143 47.8859 36.9602 47.74C37.1061 47.5941 37.188 47.3963 37.188 47.1899C37.188 46.9836 37.1061 46.7858 36.9602 46.6399C36.8143 46.494 36.6164 46.4119 36.41 46.4119H36.0621V43.5989H36.41C36.5133 43.5985 36.6156 43.5779 36.7108 43.5378C36.806 43.4978 36.8924 43.4392 36.965 43.3657C37.0375 43.2922 37.0949 43.2051 37.1337 43.1094C37.1725 43.0136 37.192 42.9112 37.191 42.8079C37.1885 42.6007 37.1057 42.4027 36.96 42.2554C36.8144 42.108 36.6172 42.0227 36.41 42.0178H36.0621V39.2048H36.41C36.6164 39.2048 36.8143 39.123 36.9602 38.9771C37.1061 38.8311 37.188 38.6333 37.188 38.427C37.188 38.2207 37.1061 38.0226 36.9602 37.8767C36.8143 37.7308 36.6164 37.6489 36.41 37.6489H36.248C36.655 36.5319 37.1311 35.416 37.6431 34.302H40.8151C41.0067 35.1465 41.5027 35.8908 42.2085 36.3926C42.9142 36.8944 43.7802 37.1184 44.6407 37.022C45.5013 36.9256 46.2962 36.5154 46.8735 35.8699C47.4507 35.2244 47.7698 34.3889 47.7698 33.5229C47.7698 32.657 47.4507 31.8213 46.8735 31.1758C46.2962 30.5303 45.5013 30.1203 44.6407 30.0239C43.7802 29.9275 42.9142 30.1515 42.2085 30.6533C41.5027 31.1551 41.0067 31.8994 40.8151 32.7439H38.3851C38.5851 32.3269 38.792 31.908 38.9901 31.489C40.6616 28.4213 41.9461 25.158 42.8141 21.7739H44.73C44.8772 22.4204 45.204 23.0123 45.6729 23.4812C46.1417 23.9501 46.7334 24.2769 47.3799 24.4241C48.0264 24.5713 48.7014 24.5329 49.327 24.3132C49.9526 24.0936 50.5034 23.7017 50.916 23.1826C51.3286 22.6636 51.5862 22.0384 51.659 21.3794C51.7318 20.7204 51.617 20.0541 51.3277 19.4575C51.0384 18.8609 50.5865 18.3583 50.0239 18.0073C49.4614 17.6564 48.8111 17.4714 48.1481 17.4739H48.144ZM3.52008 16.6838C3.13397 16.684 2.75644 16.5698 2.4353 16.3555C2.11417 16.1411 1.86384 15.8364 1.71594 15.4797C1.56805 15.1231 1.52923 14.7305 1.60443 14.3518C1.67964 13.9731 1.86548 13.6251 2.13843 13.3521C2.41138 13.079 2.7592 12.893 3.13788 12.8176C3.51656 12.7422 3.90907 12.7808 4.26581 12.9285C4.62255 13.0762 4.9275 13.3264 5.14203 13.6475C5.35656 13.9685 5.47107 14.3458 5.47107 14.7319C5.47279 14.9888 5.42351 15.2433 5.32611 15.481C5.22871 15.7186 5.0851 15.9347 4.90363 16.1165C4.72215 16.2982 4.50642 16.442 4.26892 16.5398C4.03142 16.6376 3.77691 16.6874 3.52008 16.686V16.6838ZM5.08807 28.4448C4.69842 28.4474 4.31678 28.3342 3.9917 28.1194C3.66661 27.9046 3.41272 27.5977 3.26233 27.2383C3.11193 26.8788 3.07185 26.4829 3.14709 26.1006C3.22234 25.7183 3.40955 25.367 3.68494 25.0913C3.96033 24.8156 4.31142 24.6279 4.69366 24.5522C5.07591 24.4766 5.47205 24.5165 5.83167 24.6665C6.19128 24.8165 6.49815 25.0702 6.71332 25.395C6.92849 25.7199 7.04221 26.1013 7.04004 26.491C7.03716 27.0082 6.83073 27.5033 6.46539 27.8694C6.10006 28.2355 5.60525 28.4431 5.08807 28.447V28.4448ZM44.238 31.582C44.6239 31.584 45.0006 31.7002 45.3204 31.916C45.6403 32.1319 45.8891 32.4376 46.0353 32.7947C46.1816 33.1518 46.2188 33.5442 46.1422 33.9224C46.0656 34.3006 45.8788 34.6476 45.6052 34.9197C45.3315 35.1918 44.9834 35.3767 44.6048 35.4512C44.2262 35.5256 43.834 35.4862 43.4777 35.3379C43.1215 35.1896 42.8171 34.9392 42.603 34.6182C42.389 34.2971 42.2749 33.9198 42.2751 33.5339C42.2749 33.2767 42.3257 33.0219 42.4244 32.7844C42.5232 32.5469 42.668 32.3314 42.8505 32.1501C43.033 31.9689 43.2495 31.8255 43.4877 31.7283C43.7258 31.6311 43.9808 31.5821 44.238 31.584V31.582ZM10.2241 18.9399C10.2216 17.7933 10.3267 16.649 10.5381 15.522H25.0541V33.7219C25.0529 33.825 25.0721 33.9273 25.1107 34.0229C25.1492 34.1185 25.2062 34.2056 25.2786 34.2791C25.3509 34.3525 25.437 34.4107 25.532 34.4507C25.627 34.4907 25.729 34.5116 25.8321 34.512C26.0415 34.5117 26.2423 34.4284 26.3904 34.2803C26.5385 34.1322 26.6218 33.9314 26.6221 33.7219V14.7319C26.6217 14.6294 26.6009 14.5279 26.5607 14.4336C26.5206 14.3392 26.462 14.254 26.3884 14.1826C26.3148 14.1112 26.2276 14.0553 26.1321 14.0181C26.0365 13.9809 25.9346 13.963 25.8321 13.9658H10.8881C12.8161 6.80682 18.8131 1.57788 25.8791 1.57788C34.5231 1.57788 41.5441 9.36294 41.5441 18.9399C41.5438 19.3669 41.5201 19.7936 41.4731 20.218H29.8061C29.702 20.2169 29.5988 20.2366 29.5025 20.2759C29.4062 20.3152 29.3186 20.3734 29.2451 20.447C29.1715 20.5206 29.1134 20.608 29.074 20.7043C29.0347 20.8007 29.015 20.9038 29.0161 21.0078V37.6489H22.7071V26.491C22.706 26.2813 22.622 26.0804 22.4734 25.9324C22.3249 25.7844 22.1238 25.7012 21.9141 25.7009H11.8011C10.8601 23.5654 10.3253 21.2733 10.2241 18.9419V18.9399ZM12.4681 27.26H21.136V37.6489H17.152C16.3037 35.4066 15.3378 33.2104 14.2581 31.0698C13.6421 29.8178 13.0251 28.54 12.4681 27.262V27.26ZM29.597 50.1289H22.1481C21.5072 50.1222 20.8857 49.9081 20.3768 49.5186C19.8678 49.129 19.4988 48.5849 19.3251 47.968H32.4311C32.2569 48.5862 31.8869 49.1312 31.3766 49.5212C30.8663 49.9113 30.2433 50.1251 29.6011 50.1309L29.597 50.1289ZM34.4901 46.4119H17.2661V43.5989H34.4901V46.4119ZM34.4901 42.0178H17.2661V39.2048H34.4901V42.0178ZM37.5821 30.792L36.639 32.7439H33.712C33.5054 32.7439 33.3073 32.8261 33.1613 32.9722C33.0152 33.1183 32.933 33.3163 32.933 33.5229C32.933 33.7296 33.0152 33.9276 33.1613 34.0737C33.3073 34.2198 33.5054 34.302 33.712 34.302H35.9181C35.4181 35.416 34.966 36.5319 34.571 37.6489H30.5851V21.7739H41.2181C40.3582 24.9108 39.1381 27.9377 37.5821 30.7939V30.792ZM48.144 22.96C47.755 22.9602 47.3748 22.8449 47.0514 22.6287C46.728 22.4124 46.4762 22.1049 46.3278 21.7454C46.1793 21.3858 46.1409 20.9903 46.2176 20.6089C46.2942 20.2275 46.4824 19.8776 46.7582 19.6033C47.0341 19.329 47.3852 19.1429 47.767 19.0684C48.1488 18.9939 48.5441 19.0344 48.9028 19.1848C49.2615 19.3353 49.5675 19.5888 49.7819 19.9133C49.9963 20.2379 50.1094 20.6188 50.1071 21.0078C50.1044 21.5268 49.8964 22.0238 49.5286 22.3899C49.1608 22.756 48.663 22.9617 48.144 22.9619V22.96Z" fill="#6930C3"/>
</g>
</g>
</g>
<defs>
<clipPath id="clip0_115_143">
<rect width="51.676" height="51.688" fill="white"/>
</clipPath>
</defs>
</svg>
