<svg width="55" height="55" viewBox="0 0 55 55" fill="none" xmlns="http://www.w3.org/2000/svg">
<g id="image_165632121413275433 1" clip-path="url(#clip0_115_106)">
<g id="Group 142">
<g id="Group 141">
<g id="Group 138">
<path id="Path 117" d="M52.3379 44.3099L40.823 32.796C40.6693 32.6441 40.462 32.5589 40.2459 32.5589C40.0299 32.5589 39.8226 32.6441 39.6689 32.796L38.8059 33.6461L35.599 30.44C36.4321 29.2042 37.1178 27.8752 37.6419 26.48C38.9005 27.4883 40.4169 28.1227 42.0184 28.3113C43.6199 28.4999 45.2422 28.235 46.7005 27.5467C48.1588 26.8583 49.3945 25.7743 50.2668 24.418C51.1391 23.0617 51.6131 21.4878 51.6346 19.8753C51.6561 18.2628 51.2243 16.6767 50.3884 15.2977C49.5525 13.9186 48.3462 12.802 46.9067 12.075C45.4673 11.348 43.8525 11.04 42.2466 11.1859C40.6406 11.3317 39.1079 11.9256 37.823 12.9C36.4485 9.07257 33.9118 5.77071 30.5678 3.45636C27.2239 1.142 23.24 -0.0691168 19.1738 -0.00726509C15.1076 0.0545866 11.1625 1.38634 7.89047 3.80133C4.61848 6.21632 2.18341 9.59381 0.925994 13.4612C-0.331422 17.3287 -0.348228 21.4925 0.877899 25.3699C2.10402 29.2474 4.51164 32.6444 7.76401 35.0858C11.0164 37.5271 14.9507 38.8905 19.0163 38.9852C23.0819 39.0799 27.0754 37.9011 30.438 35.6138L33.6319 38.8199L32.7839 39.671C32.6287 39.825 32.541 40.0343 32.5399 40.253C32.5381 40.3616 32.5588 40.4695 32.6008 40.5696C32.6428 40.6698 32.7052 40.7602 32.7839 40.835L44.2959 52.3499C44.8224 52.8844 45.4495 53.3094 46.141 53.6004C46.8324 53.8914 47.5747 54.0426 48.3249 54.0455C49.0751 54.0483 49.8185 53.9027 50.5122 53.617C51.2059 53.3313 51.8361 52.9111 52.3667 52.3807C52.8972 51.8503 53.3176 51.22 53.6035 50.5264C53.8894 49.8328 54.0351 49.0896 54.0324 48.3394C54.0298 47.5892 53.8787 46.8469 53.5879 46.1553C53.297 45.4638 52.8722 44.8365 52.3379 44.3099ZM49.9199 19.751C49.9211 21.1264 49.5144 22.4711 48.7513 23.6153C47.9882 24.7595 46.9029 25.6518 45.6327 26.1793C44.3624 26.7067 42.9644 26.8456 41.6152 26.5784C40.266 26.3113 39.0263 25.6502 38.0529 24.6785C37.0796 23.7068 36.4162 22.4682 36.1467 21.1194C35.8772 19.7707 36.0137 18.3725 36.5389 17.1014C37.0641 15.8302 37.9546 14.7434 39.0975 13.9783C40.2404 13.2132 41.5846 12.8042 42.9599 12.803C44.804 12.8022 46.5729 13.5337 47.878 14.8365C49.1831 16.1393 49.9175 17.907 49.9199 19.751ZM6.86288 32.116C4.95103 30.2039 3.49868 27.8824 2.61545 25.3267C1.73221 22.7711 1.44126 20.0481 1.7645 17.3636C2.08773 14.679 3.01667 12.1031 4.48129 9.83014C5.94591 7.5572 7.90787 5.64662 10.219 4.24298C12.5301 2.83934 15.1299 1.97931 17.8221 1.7276C20.5143 1.47589 23.2285 1.83919 25.7597 2.7901C28.291 3.741 30.5731 5.25457 32.4337 7.21661C34.2943 9.17866 35.6847 11.5379 36.5 14.116C35.1547 15.6495 34.4008 17.6127 34.3739 19.6524C34.3469 21.6921 35.0486 23.6745 36.3529 25.243C35.3783 28.1127 33.6885 30.6867 31.4427 32.7217C29.197 34.7568 26.4695 36.1858 23.518 36.8738C20.5665 37.5619 17.4884 37.4863 14.5742 36.6541C11.66 35.822 9.00601 34.2609 6.86288 32.118V32.116ZM31.7629 34.616C32.2859 34.203 32.786 33.7431 33.271 33.2811C33.7456 32.7939 34.1954 32.2833 34.6189 31.751L37.656 34.813L36.2209 36.221L34.7879 37.6539L31.7629 34.616ZM35.3729 39.4019L37.3729 37.388L40.2539 34.5189L43.1069 37.388L37.3729 43.119L34.5199 40.253L35.3729 39.4019ZM51.1859 51.1859C50.424 51.9434 49.3933 52.3687 48.3189 52.3687C47.2445 52.3687 46.2137 51.9434 45.4519 51.1859L38.542 44.2859L44.276 38.553L51.1859 45.4529C51.9439 46.2145 52.3692 47.2454 52.3689 48.3199C52.3685 49.3944 51.9424 50.4248 51.1839 51.1859H51.1859Z" fill="#6930C3"/>
</g>
<g id="Group 139">
<path id="Path 118" d="M32.5769 19.482C32.5776 16.8923 31.81 14.3605 30.3713 12.2071C28.9326 10.0538 26.8875 8.37571 24.4948 7.38509C22.102 6.39447 19.4691 6.13593 16.9293 6.64217C14.3896 7.14841 12.057 8.39675 10.2269 10.2291C7.77637 12.6907 6.40063 16.0225 6.40063 19.4959C6.40063 22.9693 7.77637 26.3014 10.2269 28.763C10.5049 29.029 10.8109 29.32 11.1489 29.5889C13.4965 31.5207 16.4422 32.577 19.4824 32.577C22.5226 32.577 25.4684 31.5207 27.8159 29.5889C28.1539 29.32 28.4579 29.029 28.7389 28.763C29.9617 27.5476 30.9308 26.1012 31.5897 24.5079C32.2486 22.9146 32.5841 21.2062 32.5769 19.482ZM11.377 11.3929C13.4853 9.28621 16.3315 8.08399 19.3116 8.0411C22.2918 7.9982 25.1714 9.11803 27.3395 11.1632C29.5076 13.2083 30.7935 16.0179 30.9244 18.9954C31.0554 21.973 30.0211 24.8843 28.0409 27.1119C27.9922 26.7671 27.919 26.4263 27.8219 26.0919C27.8119 26.0419 27.8 25.97 27.787 25.92C27.702 25.629 27.5929 25.3129 27.4709 24.9969C27.4459 24.9249 27.409 24.8529 27.387 24.7779C27.2681 24.4865 27.1302 24.2033 26.974 23.93C26.939 23.8435 26.8937 23.7615 26.839 23.6859C26.6908 23.4081 26.5237 23.141 26.339 22.8861C26.2905 22.8099 26.2373 22.7368 26.1799 22.6671C26.0229 22.4481 25.8509 22.2291 25.6699 22.0111C25.5979 21.9381 25.5249 21.8409 25.4509 21.7669C25.2689 21.5729 25.0749 21.3789 24.8689 21.1849C24.7969 21.1129 24.722 21.0379 24.637 20.9659C24.4136 20.7748 24.1799 20.5963 23.9369 20.431C23.8535 20.3585 23.7638 20.2935 23.6689 20.2369C23.6614 20.2364 23.6541 20.2337 23.6479 20.2293C23.6418 20.2249 23.6369 20.219 23.6339 20.212C24.2823 19.2413 24.6285 18.1002 24.6289 16.9329C24.6101 15.581 24.0598 14.2908 23.097 13.3414C22.1343 12.392 20.8366 11.8597 19.4845 11.8597C18.1324 11.8597 16.8346 12.392 15.8718 13.3414C14.9091 14.2908 14.3588 15.581 14.34 16.9329C14.3358 18.1017 14.6843 19.2445 15.34 20.212C15.181 20.312 15.024 20.4309 14.877 20.5279C14.805 20.5779 14.745 20.6279 14.683 20.6749C14.442 20.8689 14.1979 21.0631 13.9669 21.2821C13.9199 21.3311 13.8819 21.3821 13.8319 21.4281C13.6256 21.627 13.4313 21.8379 13.25 22.0599C13.2076 22.0939 13.1708 22.1345 13.141 22.18C12.9377 22.4182 12.7505 22.6697 12.5809 22.9329C12.5339 23.0059 12.4809 23.0799 12.4369 23.1519C12.2679 23.4189 12.1089 23.687 11.9619 23.952C11.9389 24.002 11.9149 24.0739 11.8899 24.1239C11.7679 24.3649 11.6459 24.6341 11.5389 24.8751C11.5139 24.9501 11.489 24.9969 11.464 25.0689C11.355 25.3629 11.258 25.6539 11.173 25.9449C11.148 26.0169 11.1359 26.0919 11.1139 26.1639C11.0389 26.4799 10.9789 26.771 10.9299 27.087C10.9199 27.087 10.9199 27.1119 10.9199 27.1119C8.98393 24.9242 7.95404 22.0813 8.03967 19.1612C8.12531 16.2412 9.32011 13.4634 11.381 11.3929H11.377ZM26.486 28.544C24.7078 29.9339 22.556 30.7626 20.3049 30.9249V25.119C20.3049 24.9015 20.2186 24.6929 20.0648 24.5391C19.911 24.3854 19.7025 24.2989 19.485 24.2989C19.2675 24.2989 19.0589 24.3854 18.9052 24.5391C18.7514 24.6929 18.6649 24.9015 18.6649 25.119V30.9249C16.4104 30.7605 14.2551 29.9321 12.4709 28.544C12.4709 28.495 12.459 28.4219 12.459 28.3499C12.4635 28.015 12.4915 27.6809 12.543 27.3499C12.5411 27.3252 12.5455 27.3004 12.5559 27.2779C12.6039 26.9505 12.6728 26.6266 12.762 26.3079C12.775 26.2579 12.785 26.2329 12.797 26.1859C12.891 25.8729 13.0008 25.5649 13.126 25.263C13.1507 25.2246 13.1715 25.1836 13.188 25.141C13.3172 24.8473 13.4664 24.5629 13.6349 24.2899C13.6544 24.2363 13.6833 24.1866 13.72 24.1429C13.8836 23.8639 14.0664 23.5966 14.267 23.3429C14.305 23.2959 14.339 23.271 14.377 23.221C14.5693 22.9681 14.7849 22.7338 15.021 22.5211C15.058 22.4731 15.093 22.448 15.13 22.399C15.3704 22.1834 15.622 21.9809 15.8839 21.7921C15.9189 21.7671 15.9559 21.7441 15.9939 21.7201C16.1379 21.6201 16.3069 21.5201 16.4659 21.4281C17.3188 22.1179 18.3821 22.4946 19.479 22.4959C20.5762 22.4985 21.6405 22.1213 22.491 21.4281C22.516 21.4511 22.526 21.451 22.538 21.451C22.698 21.551 22.8379 21.6511 22.9889 21.7201C23.1479 21.8411 23.3049 21.9611 23.4509 22.0831C23.5969 22.2051 23.73 22.3019 23.851 22.4229C23.995 22.5699 24.1289 22.7149 24.2639 22.8609C24.3989 23.0069 24.5049 23.1029 24.6139 23.2489C24.7489 23.4189 24.8579 23.59 24.9679 23.734C25.0779 23.878 25.1739 24.028 25.2589 24.172C25.3679 24.344 25.465 24.538 25.559 24.732C25.631 24.876 25.7179 25.023 25.7909 25.17C25.8749 25.364 25.9469 25.5829 26.0089 25.7769C26.0689 25.9209 26.131 26.068 26.179 26.212C26.241 26.456 26.2879 26.7001 26.3379 26.9181C26.3599 27.0401 26.3979 27.1601 26.4099 27.2821C26.467 27.6355 26.4955 27.9929 26.495 28.3509C26.5005 28.4152 26.4988 28.4801 26.49 28.544H26.486ZM19.479 20.868C18.4948 20.8051 17.5751 20.3564 16.9198 19.6195C16.2645 18.8825 15.9264 17.9168 15.979 16.932C15.979 16.0026 16.3481 15.1113 17.0052 14.4542C17.6624 13.7971 18.5536 13.4281 19.4829 13.4281C20.4122 13.4281 21.3036 13.7971 21.9607 14.4542C22.6178 15.1113 22.9869 16.0026 22.9869 16.932C23.039 17.9173 22.7001 18.8832 22.0441 19.6202C21.388 20.3572 20.4676 20.8056 19.4829 20.868H19.479Z" fill="#6930C3"/>
</g>
<g id="Group 140">
<path id="Path 119" d="M39.269 20.5769H42.147V23.4419C42.147 23.6592 42.2333 23.8678 42.387 24.0215C42.5407 24.1752 42.7491 24.2615 42.9665 24.2615C43.1838 24.2615 43.3922 24.1752 43.5459 24.0215C43.6996 23.8678 43.7859 23.6592 43.7859 23.4419V20.5769H46.669C46.8876 20.5759 47.097 20.4884 47.2515 20.3337C47.406 20.179 47.4931 19.9696 47.4939 19.751C47.4896 19.5334 47.4013 19.3258 47.2476 19.1719C47.0938 19.0179 46.8865 18.9294 46.669 18.9248H43.788V16.0569C43.788 15.8395 43.7017 15.631 43.548 15.4773C43.3943 15.3236 43.1859 15.2373 42.9685 15.2373C42.7512 15.2373 42.5426 15.3236 42.3889 15.4773C42.2353 15.631 42.149 15.8395 42.149 16.0569V18.9248H39.269C39.0504 18.9266 38.8414 19.0144 38.6869 19.1689C38.5324 19.3235 38.4449 19.5325 38.443 19.751C38.4421 19.8597 38.4628 19.9675 38.5039 20.0681C38.5451 20.1688 38.6059 20.2603 38.6828 20.3372C38.7597 20.414 38.8512 20.4747 38.9518 20.5159C39.0524 20.557 39.1602 20.5778 39.269 20.5769Z" fill="#6930C3"/>
</g>
</g>
</g>
</g>
<defs>
<clipPath id="clip0_115_106">
<rect width="54.004" height="54.002" fill="white"/>
</clipPath>
</defs>
</svg>
