<svg width="52" height="52" viewBox="0 0 52 52" fill="none" xmlns="http://www.w3.org/2000/svg">
<g id="image_1656321098794214118 1" clip-path="url(#clip0_115_149)">
<g id="Mask Group 1">
<g id="Focus in Technology Icon">
<g id="Group 3">
<g id="Group 2">
<g id="Group 1">
<path id="Path 1" d="M51.161 25.211H50.355C50.159 19.014 47.6097 13.1245 43.2256 8.74039C38.8415 4.3563 32.952 1.80696 26.755 1.61096V0.805959C26.7604 0.701273 26.7443 0.596596 26.7079 0.498294C26.6716 0.399992 26.6156 0.310118 26.5433 0.234137C26.4711 0.158156 26.3842 0.0976551 26.2879 0.0563132C26.1916 0.0149714 26.0878 -0.00634766 25.983 -0.00634766C25.8782 -0.00634766 25.7745 0.0149714 25.6782 0.0563132C25.5818 0.0976551 25.4949 0.158156 25.4227 0.234137C25.3505 0.310118 25.2945 0.399992 25.2581 0.498294C25.2217 0.596596 25.2057 0.701273 25.211 0.805959V1.61196C19.0159 1.81362 13.1297 4.36478 8.74675 8.74768C4.36384 13.1306 1.81269 19.0169 1.61102 25.212H0.806023C0.70428 25.2103 0.603249 25.2292 0.508921 25.2673C0.414592 25.3055 0.328887 25.3622 0.256889 25.4341C0.184891 25.506 0.128065 25.5917 0.0897814 25.6859C0.0514982 25.7802 0.0325371 25.8812 0.0340227 25.983C0.0316336 26.0866 0.0497232 26.1897 0.087255 26.2864C0.124787 26.383 0.181023 26.4713 0.25274 26.5462C0.324457 26.6211 0.410245 26.681 0.505189 26.7227C0.600132 26.7644 0.702363 26.7869 0.806023 26.789H1.61202C1.82495 32.9803 4.37973 38.8602 8.76028 43.2407C13.1408 47.6213 19.0207 50.176 25.212 50.389V51.195C25.2098 51.2985 25.228 51.4015 25.2655 51.4981C25.3031 51.5946 25.3594 51.6828 25.4311 51.7575C25.5028 51.8323 25.5885 51.8922 25.6834 51.9338C25.7783 51.9754 25.8804 51.9979 25.984 52C26.0885 52.0006 26.192 51.98 26.2882 51.9393C26.3844 51.8986 26.4713 51.8387 26.5436 51.7632C26.6159 51.6878 26.672 51.5984 26.7085 51.5005C26.745 51.4026 26.7612 51.2983 26.756 51.194V50.388C32.9492 50.1807 38.8323 47.6277 43.214 43.246C47.5957 38.8642 50.1487 32.9812 50.356 26.788H51.162C51.3713 26.788 51.572 26.7048 51.7199 26.5569C51.8679 26.4089 51.951 26.2082 51.951 25.999C51.951 25.7897 51.8679 25.589 51.7199 25.4411C51.572 25.2931 51.3713 25.21 51.162 25.21L51.161 25.211ZM47.972 25.211H46.394C46.1969 25.2046 46.009 25.1257 45.8665 24.9893C45.724 24.8529 45.637 24.6686 45.622 24.472C45.2525 19.7962 43.2275 15.4056 39.9109 12.089C36.5944 8.77249 32.2038 6.74749 27.528 6.37796C27.3313 6.36302 27.1471 6.27595 27.0107 6.13346C26.8743 5.99097 26.7954 5.80311 26.789 5.60596V4.02796C26.7894 3.92091 26.8118 3.81509 26.855 3.71713C26.8982 3.61917 26.9611 3.53119 27.0399 3.4587C27.1187 3.38622 27.2116 3.33079 27.3128 3.2959C27.414 3.26102 27.5213 3.24742 27.628 3.25596C33.1065 3.65103 38.2594 6.00604 42.1434 9.88988C46.0274 13.7737 48.3827 18.9265 48.778 24.405C48.7752 24.6178 48.6893 24.8212 48.5388 24.9717C48.3883 25.1223 48.1849 25.2081 47.972 25.211ZM38.606 26.789H43.234C43.3411 26.7893 43.4469 26.8118 43.5449 26.8549C43.6428 26.8981 43.7308 26.9611 43.8033 27.0398C43.8758 27.1186 43.9312 27.2115 43.9661 27.3127C44.001 27.4139 44.0146 27.5212 44.006 27.628C43.6258 31.8496 41.774 35.8032 38.7741 38.7978C35.7742 41.7924 31.8173 43.6372 27.595 44.01C27.489 44.0152 27.3831 43.9993 27.2833 43.9632C27.1835 43.9271 27.092 43.8715 27.0139 43.7996C26.9358 43.7278 26.8728 43.6411 26.8285 43.5447C26.7843 43.4483 26.7596 43.344 26.756 43.238V32.328C26.7576 32.2261 26.7388 32.125 26.7006 32.0306C26.6623 31.9362 26.6055 31.8505 26.5335 31.7785C26.4615 31.7064 26.3758 31.6496 26.2814 31.6114C26.187 31.5732 26.0859 31.5543 25.984 31.556C25.8822 31.5543 25.7811 31.5732 25.6867 31.6114C25.5923 31.6496 25.5065 31.7064 25.4345 31.7785C25.3625 31.8505 25.3057 31.9362 25.2675 32.0306C25.2293 32.125 25.2104 32.2261 25.212 32.328V43.238C25.2117 43.345 25.1892 43.4508 25.146 43.5488C25.1029 43.6467 25.0399 43.7347 24.9611 43.8072C24.8824 43.8797 24.7895 43.9351 24.6883 43.97C24.5871 44.0049 24.4797 44.0185 24.373 44.01C20.154 43.6272 16.2021 41.7791 13.2035 38.7867C10.2048 35.7942 8.34857 31.8462 7.95702 27.628C7.95179 27.522 7.96769 27.416 8.0038 27.3163C8.03991 27.2165 8.0955 27.1249 8.16735 27.0468C8.23919 26.9687 8.32585 26.9057 8.42228 26.8615C8.51871 26.8172 8.62298 26.7925 8.72902 26.789H19.534C19.6359 26.7906 19.737 26.7717 19.8314 26.7335C19.9258 26.6953 20.0115 26.6385 20.0835 26.5665C20.1555 26.4944 20.2123 26.4087 20.2506 26.3143C20.2888 26.2199 20.3076 26.1188 20.306 26.017C20.3076 25.9151 20.2888 25.814 20.2506 25.7196C20.2123 25.6252 20.1555 25.5395 20.0835 25.4675C20.0115 25.3954 19.9258 25.3386 19.8314 25.3004C19.737 25.2622 19.6359 25.2433 19.534 25.245H8.72902C8.62197 25.2446 8.51615 25.2221 8.41819 25.179C8.32023 25.1358 8.23225 25.0729 8.15977 24.9941C8.08728 24.9153 8.03186 24.8224 7.99697 24.7212C7.96208 24.62 7.94848 24.5127 7.95702 24.406C8.34157 20.182 10.1945 16.2264 13.1936 13.2272C16.1926 10.2279 20.1481 8.37477 24.372 7.98996C24.478 7.98473 24.584 8.00063 24.6837 8.03673C24.7835 8.07284 24.8751 8.12844 24.9532 8.20028C25.0312 8.27213 25.0943 8.35879 25.1385 8.45522C25.1828 8.55164 25.2074 8.65592 25.211 8.76196V19.706C25.2094 19.8078 25.2283 19.9089 25.2665 20.0033C25.3047 20.0977 25.3615 20.1834 25.4335 20.2555C25.5055 20.3275 25.5913 20.3843 25.6857 20.4225C25.7801 20.4607 25.8812 20.4796 25.983 20.478C26.0849 20.4796 26.186 20.4607 26.2804 20.4225C26.3748 20.3843 26.4605 20.3275 26.5325 20.2555C26.6045 20.1834 26.6613 20.0977 26.6996 20.0033C26.7378 19.9089 26.7566 19.8078 26.755 19.706V8.72796C26.7554 8.62091 26.7778 8.51509 26.821 8.41713C26.8642 8.31917 26.9271 8.23119 27.0059 8.1587C27.0847 8.08622 27.1776 8.03079 27.2788 7.9959C27.38 7.96102 27.4873 7.94742 27.594 7.95596C31.8183 8.34032 35.7743 10.1933 38.7737 13.1926C41.7732 16.1919 43.6264 20.1477 44.011 24.372C44.0163 24.4779 44.0004 24.5839 43.9642 24.6837C43.9281 24.7834 43.8725 24.875 43.8007 24.9531C43.7289 25.0312 43.6422 25.0942 43.5458 25.1385C43.4493 25.1827 43.3451 25.2074 43.239 25.211H32.261C32.1592 25.2093 32.0581 25.2282 31.9637 25.2664C31.8693 25.3046 31.7835 25.3614 31.7115 25.4335C31.6395 25.5055 31.5827 25.5912 31.5445 25.6856C31.5063 25.78 31.4874 25.8811 31.489 25.983C31.4874 26.0848 31.5063 26.1859 31.5445 26.2803C31.5827 26.3747 31.6395 26.4604 31.7115 26.5325C31.7835 26.6045 31.8693 26.6613 31.9637 26.6995C32.0581 26.7377 32.1592 26.7566 32.261 26.755L38.606 26.789ZM25.178 3.99496V5.57296C25.1717 5.77011 25.0927 5.95797 24.9563 6.10046C24.8199 6.24295 24.6357 6.33002 24.439 6.34496C19.7633 6.71449 15.3726 8.73949 12.0561 12.056C8.73955 15.3726 6.71456 19.7632 6.34502 24.439C6.33008 24.6356 6.24301 24.8199 6.10052 24.9563C5.95803 25.0927 5.77017 25.1716 5.57302 25.178H3.99502C3.88797 25.1776 3.78215 25.1551 3.68419 25.112C3.58623 25.0688 3.49825 25.0059 3.42577 24.9271C3.35328 24.8483 3.29786 24.7554 3.26297 24.6542C3.22808 24.553 3.21448 24.4457 3.22302 24.339C3.61259 18.8585 5.96584 13.7025 9.85077 9.81739C13.7357 5.93228 18.8916 3.57879 24.372 3.18896C24.5849 3.19181 24.7883 3.27764 24.9388 3.42818C25.0893 3.57872 25.1752 3.78208 25.178 3.99496ZM3.99502 26.789H5.57302C5.77017 26.7953 5.95803 26.8742 6.10052 27.0106C6.24301 27.147 6.33008 27.3313 6.34502 27.528C6.71456 32.2037 8.73955 36.5943 12.0561 39.9109C15.3726 43.2274 19.7633 45.2524 24.439 45.622C24.6357 45.6369 24.8199 45.724 24.9563 45.8665C25.0927 46.009 25.1717 46.1968 25.178 46.394V47.972C25.1777 48.079 25.1552 48.1848 25.112 48.2828C25.0689 48.3807 25.0059 48.4687 24.9271 48.5412C24.8484 48.6137 24.7555 48.6691 24.6543 48.704C24.5531 48.7389 24.4457 48.7525 24.339 48.744C18.8588 48.3542 13.703 46.0008 9.81808 42.1159C5.93317 38.231 3.57982 33.0752 3.19002 27.595C3.19286 27.3822 3.27856 27.179 3.42889 27.0285C3.57921 26.878 3.78232 26.7921 3.99502 26.789ZM26.755 47.938V46.36C26.7614 46.1628 26.8403 45.975 26.9767 45.8325C27.1131 45.69 27.2973 45.6029 27.494 45.588C32.1699 45.2187 36.5608 43.1938 39.8776 39.8772C43.1943 36.5606 45.2195 32.1698 45.589 27.494C45.604 27.2973 45.691 27.113 45.8335 26.9766C45.976 26.8402 46.1639 26.7613 46.361 26.755H47.934C48.0411 26.7553 48.1469 26.7778 48.2449 26.8209C48.3428 26.8641 48.4308 26.9271 48.5033 27.0058C48.5758 27.0846 48.6312 27.1775 48.6661 27.2787C48.701 27.3799 48.7146 27.4872 48.706 27.594C48.3054 33.0698 45.9491 38.219 42.0672 42.1017C38.1854 45.9845 33.0367 48.342 27.561 48.744C27.4541 48.7482 27.3474 48.7302 27.2478 48.6912C27.1481 48.6522 27.0577 48.5929 26.982 48.5172C26.9064 48.4415 26.8473 48.351 26.8084 48.2513C26.7695 48.1516 26.7517 48.0449 26.756 47.938H26.755Z" fill="#6930C3"/>
</g>
</g>
<path id="Path 2" d="M25.816 29.609C25.0591 29.609 24.3192 29.3845 23.6898 28.964C23.0605 28.5435 22.57 27.9458 22.2803 27.2465C21.9907 26.5472 21.9149 25.7777 22.0625 25.0353C22.2102 24.293 22.5747 23.6111 23.1099 23.0759C23.6451 22.5406 24.327 22.1762 25.0694 22.0285C25.8118 21.8808 26.5813 21.9566 27.2805 22.2463C27.9798 22.5359 28.5775 23.0264 28.9981 23.6558C29.4186 24.2851 29.643 25.025 29.643 25.782C29.6433 26.2846 29.5445 26.7824 29.3522 27.2468C29.16 27.7112 28.8781 28.1332 28.5227 28.4886C28.1673 28.8441 27.7453 29.1259 27.2809 29.3182C26.8164 29.5104 26.3187 29.6092 25.816 29.609ZM25.816 23.264C25.3115 23.264 24.8183 23.4136 24.3988 23.6939C23.9792 23.9742 23.6523 24.3726 23.4592 24.8387C23.2661 25.3049 23.2156 25.8178 23.314 26.3126C23.4125 26.8075 23.6554 27.262 24.0122 27.6188C24.369 27.9756 24.8235 28.2185 25.3183 28.3169C25.8132 28.4154 26.3261 28.3649 26.7922 28.1718C27.2584 27.9787 27.6568 27.6517 27.9371 27.2322C28.2174 26.8127 28.367 26.3195 28.367 25.815C28.3671 25.4799 28.3013 25.1481 28.1731 24.8386C28.0449 24.529 27.857 24.2477 27.6201 24.0108C27.3832 23.7739 27.102 23.586 26.7924 23.4579C26.4828 23.3297 26.1511 23.2638 25.816 23.264Z" fill="#6930C3"/>
</g>
</g>
</g>
</g>
<defs>
<clipPath id="clip0_115_149">
<rect width="52" height="52" fill="white"/>
</clipPath>
</defs>
</svg>
