<svg width="54" height="51" viewBox="0 0 54 51" fill="none" xmlns="http://www.w3.org/2000/svg">
<g id="image_1656321008556860535 1" clip-path="url(#clip0_115_95)">
<g id="Group 114">
<g id="Group 113">
<g id="Group 110">
<path id="Path 100" d="M47.952 26.6841L49.152 25.4841C51.8925 22.739 53.4316 19.0186 53.4316 15.1396C53.4316 11.2607 51.8925 7.54034 49.152 4.79517C46.4571 2.10582 42.8491 0.528685 39.0449 0.376953C35.2407 0.225221 31.5186 1.50991 28.618 3.97607C28.5254 4.01949 28.4398 4.07639 28.364 4.14502L27.739 4.77002C27.739 4.77002 27.727 4.77017 27.727 4.79517L26.888 5.63403L25.697 4.43408C22.8575 1.59594 19.0072 0.00170898 14.9925 0.00170898C10.9778 0.00170898 7.12748 1.59594 4.28801 4.43408H4.27501C1.53451 7.1843 -0.00427246 10.9085 -0.00427246 14.791C-0.00427246 18.6735 1.53451 22.398 4.27501 25.1482L5.82501 26.686L5.39201 27.1191C4.93917 27.5738 4.59259 28.123 4.3772 28.7275C4.1618 29.332 4.08292 29.9769 4.14621 30.6155C4.2095 31.2541 4.41339 31.8707 4.74324 32.4211C5.07309 32.9716 5.52073 33.4421 6.05402 33.7991C6.63377 34.183 7.29681 34.423 7.98801 34.499C7.27966 35.2129 6.83641 36.1475 6.73166 37.1477C6.62691 38.1479 6.86695 39.1538 7.41202 39.999C7.76915 40.5315 8.23998 40.9783 8.79057 41.3069C9.34116 41.6354 9.95779 41.8377 10.596 41.8992C10.9726 41.9256 11.3509 41.9171 11.726 41.874C11.6018 42.5906 11.6634 43.3272 11.905 44.0132C12.1466 44.6991 12.5601 45.3117 13.106 45.7922C13.8478 46.4191 14.774 46.7863 15.7438 46.8381C16.7136 46.8899 17.6737 46.6233 18.478 46.0791C18.5187 47.04 18.888 47.9579 19.524 48.6792C19.9169 49.1168 20.396 49.4687 20.9311 49.7126C21.4662 49.9566 22.046 50.0875 22.634 50.0972H22.742C23.3097 50.1005 23.8724 49.9918 24.3981 49.7773C24.9237 49.5628 25.4018 49.2468 25.805 48.8472L26.935 47.717C27.7109 48.3116 28.6576 48.6404 29.635 48.655C30.4706 48.6546 31.2868 48.4035 31.978 47.9341C32.5058 47.5806 32.9495 47.1156 33.2778 46.5718C33.6061 46.028 33.811 45.4188 33.878 44.7871C34.455 45.3772 35.1888 45.79 35.9928 45.9766C36.7967 46.1632 37.6372 46.1159 38.4152 45.8403C39.1931 45.5648 39.876 45.0724 40.3833 44.4214C40.8906 43.7704 41.201 42.9877 41.278 42.166C41.3146 41.7994 41.3032 41.4298 41.244 41.0662C41.507 41.0912 41.77 41.113 42.061 41.113C42.6501 41.1044 43.2307 40.9716 43.7649 40.7231C44.2991 40.4747 44.7749 40.1161 45.161 39.6711C45.7977 38.9437 46.1759 38.0263 46.2369 37.0615C46.2978 36.0968 46.0381 35.1389 45.498 34.3372C46.608 34.2615 47.6436 33.7522 48.381 32.9192C49.1197 32.0609 49.5004 30.9518 49.4446 29.8208C49.3888 28.6898 48.9006 27.6234 48.081 26.842L47.952 26.6841ZM48.002 5.92114C50.4424 8.3674 51.8129 11.6818 51.8129 15.1372C51.8129 18.5926 50.4424 21.9068 48.002 24.353L46.811 25.5532L33.711 12.4331L34.637 11.4961C34.7138 11.4234 34.775 11.3359 34.8168 11.2388C34.8586 11.1416 34.8802 11.0369 34.8802 10.9312C34.8802 10.8254 34.8586 10.7207 34.8168 10.6235C34.775 10.5264 34.7138 10.4389 34.637 10.3662C34.4847 10.2163 34.2797 10.1323 34.066 10.1323C33.8524 10.1323 33.6473 10.2163 33.495 10.3662L26.314 17.5491C25.9784 17.8834 25.5727 18.1391 25.1263 18.2976C24.6799 18.4561 24.2039 18.5134 23.7326 18.4656C23.2613 18.4177 22.8066 18.2659 22.4011 18.021C21.9956 17.7761 21.6496 17.444 21.388 17.0491C20.9876 16.4051 20.8204 15.6433 20.9143 14.8909C21.0083 14.1384 21.3576 13.4408 21.904 12.915L28.897 5.92212C31.4338 3.39503 34.8686 1.97602 38.4493 1.97583C42.03 1.97564 45.4649 3.39432 48.002 5.92114ZM6.95901 32.4512C6.62408 32.229 6.34266 31.935 6.13507 31.5908C5.92749 31.2466 5.79892 30.8609 5.75864 30.4609C5.71836 30.061 5.76738 29.657 5.90216 29.2783C6.03694 28.8996 6.25411 28.5558 6.53801 28.2712L6.98302 27.8381L10.815 31.6812L10.443 32.0432C9.99327 32.4941 9.40427 32.7796 8.77174 32.8533C8.13922 32.927 7.50037 32.7846 6.95901 32.4492V32.4512ZM12.943 39.5161C12.6544 39.7927 12.3098 40.0042 11.9326 40.1365C11.5554 40.2688 11.1542 40.3189 10.756 40.2832C10.3558 40.2425 9.96945 40.1137 9.62474 39.9062C9.28003 39.6988 8.98542 39.4176 8.76201 39.083C8.42204 38.5363 8.28051 37.8893 8.36118 37.2505C8.44184 36.6117 8.73979 36.0203 9.20502 35.5752L11.572 33.1951C11.5869 33.1816 11.5994 33.1659 11.609 33.1482L11.956 32.811L15.79 36.6572L12.943 39.5161ZM19.791 42.6162L18.061 44.3462C17.5633 44.8633 16.8897 45.1747 16.1734 45.2188C15.4571 45.2628 14.7503 45.0364 14.193 44.5842C13.9158 44.3404 13.6926 44.0412 13.5376 43.7061C13.3826 43.371 13.2993 43.0073 13.293 42.6382C13.2828 42.2693 13.348 41.9023 13.4847 41.5596C13.6214 41.2169 13.8267 40.9055 14.088 40.645L16.935 37.7861L20.766 41.6292L19.831 42.5671C19.814 42.5911 19.803 42.5912 19.791 42.6162ZM22.675 48.4771C22.3074 48.468 21.9454 48.3848 21.6108 48.2322C21.2762 48.0796 20.9759 47.8608 20.728 47.5891C20.2779 47.0369 20.0505 46.3363 20.0907 45.625C20.1309 44.9137 20.4356 44.2432 20.945 43.7451L21.917 42.7832L25.75 46.6052L24.668 47.6851C24.4086 47.9476 24.0975 48.1537 23.7545 48.29C23.4115 48.4264 23.0439 48.4899 22.675 48.4771ZM47.185 31.8262C46.941 32.1045 46.6421 32.3292 46.307 32.4863C45.9719 32.6435 45.608 32.7294 45.238 32.739C44.8695 32.7462 44.5033 32.6799 44.1608 32.5439C43.8182 32.408 43.5062 32.205 43.243 31.947C43.243 31.922 43.23 31.9221 43.23 31.9221L32.682 21.374C32.5278 21.2285 32.3228 21.1492 32.1108 21.1528C31.8989 21.1565 31.6967 21.2429 31.5476 21.3936C31.3985 21.5442 31.3142 21.7472 31.3128 21.9592C31.3114 22.1712 31.3929 22.3754 31.54 22.5281L42.101 33.0762L43.723 34.7102C44.2437 35.2057 44.5578 35.8796 44.6025 36.5969C44.6472 37.3143 44.4191 38.0219 43.964 38.5781C43.7202 38.8548 43.4208 39.077 43.0853 39.23C42.7498 39.383 42.3858 39.4633 42.017 39.4661C41.6516 39.4802 41.2872 39.4195 40.9462 39.2876C40.6052 39.1557 40.2948 38.9555 40.034 38.6992V38.6741L27.697 26.3491C27.5447 26.1993 27.3397 26.1152 27.126 26.1152C26.9124 26.1152 26.7073 26.1993 26.555 26.3491C26.4049 26.5037 26.3209 26.7106 26.3209 26.926C26.3209 27.1415 26.4049 27.3486 26.555 27.5032L38.883 39.8311H38.895C39.1758 40.1164 39.3901 40.4602 39.5229 40.8379C39.6556 41.2156 39.7035 41.6178 39.663 42.0161C39.6287 42.4189 39.5028 42.8086 39.2948 43.1553C39.0868 43.5019 38.8023 43.7963 38.463 44.0161C37.9161 44.3486 37.2729 44.4868 36.6377 44.4082C36.0025 44.3296 35.4124 44.0388 34.963 43.583L32.717 41.3481C32.6987 41.311 32.6744 41.2771 32.645 41.248H32.633L22.719 31.3481C22.6468 31.2685 22.5588 31.2049 22.4605 31.1614C22.3623 31.1178 22.256 31.0952 22.1485 31.0952C22.041 31.0952 21.9348 31.1178 21.8365 31.1614C21.7382 31.2049 21.6502 31.2685 21.578 31.3481C21.5024 31.4215 21.4422 31.5094 21.4011 31.6064C21.36 31.7035 21.3389 31.8077 21.3389 31.9131C21.3389 32.0185 21.36 32.1229 21.4011 32.22C21.4422 32.317 21.5024 32.4047 21.578 32.478L31.491 42.4011H31.504C31.7841 42.6874 31.9989 43.031 32.1335 43.4082C32.2681 43.7854 32.3195 44.1873 32.284 44.5862C32.2422 44.9885 32.1118 45.3763 31.902 45.7222C31.6923 46.068 31.4085 46.3632 31.071 46.5862C30.5241 46.9187 29.8809 47.0569 29.2457 46.9783C28.6105 46.8997 28.0204 46.6088 27.571 46.1531L5.41602 23.998C2.98133 21.554 1.61432 18.2449 1.61432 14.7952C1.61432 11.3454 2.98133 8.03606 5.41602 5.59204H5.42801C6.68303 4.33477 8.17366 3.3373 9.81459 2.65674C11.4555 1.97618 13.2146 1.62598 14.991 1.62598C16.7675 1.62598 18.5265 1.97618 20.1674 2.65674C21.8084 3.3373 23.299 4.33477 24.554 5.59204L25.745 6.79224L20.745 11.7671C19.9261 12.5579 19.4075 13.6088 19.2778 14.7397C19.1481 15.8707 19.4154 17.0114 20.034 17.967C20.4332 18.5611 20.9596 19.0589 21.575 19.4243C22.1904 19.7898 22.8794 20.0138 23.592 20.0801C23.7427 20.1008 23.8949 20.1093 24.047 20.1052C24.6812 20.1052 25.3091 19.98 25.8947 19.7368C26.4804 19.4937 27.0123 19.1374 27.46 18.6882L32.553 13.5942L46.936 27.9641C47.4555 28.4586 47.7696 29.1307 47.8158 29.8464C47.8619 30.5622 47.6367 31.2691 47.185 31.8262Z" fill="#6930C3"/>
</g>
<g id="Group 111">
<path id="Path 101" d="M20.571 7.34108C20.7208 7.18964 20.8043 6.98503 20.8032 6.77198C20.8021 6.55894 20.7164 6.35494 20.565 6.20509C20.4135 6.05524 20.2088 5.97179 19.9957 5.97291C19.7827 5.97404 19.5788 6.05975 19.429 6.21119C19.2793 6.36117 19.1953 6.5643 19.1953 6.77613C19.1953 6.98797 19.2793 7.1911 19.429 7.34108C19.5812 7.49094 19.7863 7.57496 20 7.57496C20.2136 7.57496 20.4187 7.49094 20.571 7.34108Z" fill="#6930C3"/>
</g>
<g id="Group 112">
<path id="Path 102" d="M47.4011 20.3401C47.5152 20.226 47.5929 20.0807 47.6244 19.9224C47.6559 19.7641 47.6397 19.6 47.5779 19.4509C47.5162 19.3018 47.4116 19.1744 47.2774 19.0847C47.1432 18.9951 46.9854 18.947 46.824 18.947C46.6627 18.947 46.5049 18.9951 46.3707 19.0847C46.2365 19.1744 46.1319 19.3018 46.0702 19.4509C46.0084 19.6 45.9923 19.7641 46.0237 19.9224C46.0552 20.0807 46.1329 20.226 46.247 20.3401C46.4013 20.4907 46.6084 20.575 46.824 20.575C47.0397 20.575 47.2468 20.4907 47.4011 20.3401Z" fill="#6930C3"/>
</g>
</g>
</g>
</g>
<defs>
<clipPath id="clip0_115_95">
<rect width="53.436" height="50.089" fill="white"/>
</clipPath>
</defs>
</svg>
