<svg width="42" height="51" viewBox="0 0 42 51" fill="none" xmlns="http://www.w3.org/2000/svg">
<g id="image_165632113243247145 1" clip-path="url(#clip0_115_117)">
<g id="Group 132">
<g id="Group 121">
<path id="Path 105" d="M41.522 10.2029C41.5171 10.1325 41.5023 10.0631 41.478 9.99685C41.4752 9.97299 41.467 9.95019 41.454 9.92996C41.4215 9.85035 41.3705 9.77965 41.305 9.7239V9.70095L31.821 0.229028C31.7623 0.164453 31.6874 0.116615 31.604 0.090844C31.585 0.0750256 31.5608 0.0668812 31.536 0.0678947C31.4697 0.031838 31.3942 0.0162606 31.319 0.0229729C31.307 -2.71387e-05 31.295 2.36422e-05 31.272 2.36422e-05H0.771996C0.669868 -0.000775314 0.568593 0.018682 0.474084 0.0573967C0.379574 0.0961114 0.293738 0.153147 0.22152 0.225365C0.149302 0.297583 0.092144 0.383542 0.0534293 0.478051C0.0147146 0.57256 -0.0048037 0.673774 -0.00400475 0.775903V49.9929C-0.00466899 50.095 0.0149721 50.1963 0.0537345 50.2908C0.0924969 50.3852 0.149634 50.471 0.221825 50.5432C0.294016 50.6154 0.379818 50.6724 0.474267 50.7112C0.568715 50.75 0.669905 50.7697 0.771996 50.7691H40.754C40.9596 50.7685 41.1567 50.6865 41.3021 50.541C41.4476 50.3956 41.5295 50.1986 41.53 49.9929V10.249C41.5244 10.2344 41.5217 10.2186 41.522 10.2029ZM38.909 9.49685H32.044V2.62502L38.909 9.49685ZM39.993 49.2171H1.54403V1.54885H30.511V10.249C30.51 10.3502 30.5289 10.4506 30.5668 10.5445C30.6047 10.6383 30.6607 10.7236 30.7317 10.7957C30.8027 10.8678 30.8873 10.9253 30.9805 10.9646C31.0737 11.004 31.1738 11.0244 31.275 11.0249H39.996L39.993 49.2171Z" fill="#6930C3"/>
</g>
<g id="Group 122">
<path id="Path 106" d="M6.91693 11.0259H24.6079C24.7106 11.0296 24.8131 11.0126 24.9091 10.9758C25.0051 10.9391 25.0926 10.8834 25.1666 10.812C25.2406 10.7407 25.2995 10.6552 25.3397 10.5606C25.3799 10.466 25.4006 10.3643 25.4006 10.2615C25.4006 10.1587 25.3799 10.057 25.3397 9.96241C25.2995 9.86781 25.2406 9.78206 25.1666 9.71071C25.0926 9.63935 25.0051 9.58363 24.9091 9.54689C24.8131 9.51014 24.7106 9.49312 24.6079 9.49684H6.91693C6.81421 9.49312 6.71178 9.51014 6.61578 9.54689C6.51979 9.58363 6.4322 9.63935 6.35822 9.71071C6.28423 9.78206 6.22537 9.86781 6.18518 9.96241C6.14499 10.057 6.12427 10.1587 6.12427 10.2615C6.12427 10.3643 6.14499 10.466 6.18518 10.5606C6.22537 10.6552 6.28423 10.7407 6.35822 10.812C6.4322 10.8834 6.51979 10.9391 6.61578 10.9758C6.71178 11.0126 6.81421 11.0296 6.91693 11.0259Z" fill="#6930C3"/>
</g>
<g id="Group 123">
<path id="Path 107" d="M19.9959 16.4138C19.9985 16.6188 20.0811 16.8148 20.226 16.9597C20.371 17.1047 20.5669 17.1874 20.7719 17.19H34.6049C34.8101 17.1879 35.0062 17.1056 35.1513 16.9605C35.2964 16.8154 35.3788 16.619 35.3809 16.4138C35.382 16.3115 35.3626 16.2102 35.324 16.1155C35.2854 16.0208 35.2283 15.9345 35.1561 15.8621C35.0839 15.7897 34.9979 15.7325 34.9033 15.6936C34.8086 15.6548 34.7072 15.6352 34.6049 15.636H20.7719C20.6696 15.6353 20.5682 15.655 20.4737 15.6939C20.3791 15.7328 20.2932 15.7902 20.221 15.8626C20.1488 15.935 20.0917 16.0208 20.053 16.1155C20.0144 16.2102 19.995 16.3116 19.9959 16.4138Z" fill="#6930C3"/>
</g>
<g id="Group 124">
<path id="Path 108" d="M6.91697 17.1899H16.1499C16.3532 17.185 16.5466 17.1013 16.6893 16.9565C16.832 16.8118 16.9129 16.6171 16.915 16.4138C16.9161 16.3124 16.8973 16.212 16.8594 16.1179C16.8216 16.0238 16.7654 15.938 16.6943 15.8657C16.6232 15.7934 16.5385 15.736 16.4451 15.6965C16.3517 15.6571 16.2514 15.6365 16.1499 15.636H6.91697C6.81543 15.6364 6.71498 15.6567 6.62138 15.696C6.52778 15.7354 6.44285 15.7929 6.37156 15.8652C6.30027 15.9375 6.24401 16.0233 6.20597 16.1174C6.16794 16.2116 6.14889 16.3123 6.14994 16.4138C6.15222 16.6174 6.23353 16.8123 6.37663 16.957C6.51973 17.1018 6.71346 17.1853 6.91697 17.1899Z" fill="#6930C3"/>
</g>
<g id="Group 125">
<path id="Path 109" d="M34.6049 21.7998H26.924C26.8236 21.7998 26.7242 21.8198 26.6315 21.8582C26.5388 21.8965 26.4546 21.9527 26.3837 22.0237C26.3127 22.0946 26.2565 22.1788 26.2181 22.2715C26.1797 22.3642 26.1599 22.4636 26.1599 22.564C26.1599 22.6643 26.1797 22.7635 26.2181 22.8562C26.2565 22.9489 26.3127 23.0333 26.3837 23.1042C26.4546 23.1752 26.5388 23.2314 26.6315 23.2698C26.7242 23.3082 26.8236 23.3279 26.924 23.3279H34.6049C34.7052 23.3279 34.8046 23.3082 34.8973 23.2698C34.99 23.2314 35.0742 23.1752 35.1451 23.1042C35.2161 23.0333 35.2724 22.9489 35.3108 22.8562C35.3492 22.7635 35.3689 22.6643 35.3689 22.564C35.3689 22.4636 35.3492 22.3642 35.3108 22.2715C35.2724 22.1788 35.2161 22.0946 35.1451 22.0237C35.0742 21.9527 34.99 21.8965 34.8973 21.8582C34.8046 21.8198 34.7052 21.7998 34.6049 21.7998Z" fill="#6930C3"/>
</g>
<g id="Group 126">
<path id="Path 110" d="M6.91699 23.3279H22.303C22.5056 23.3279 22.6999 23.2475 22.8432 23.1042C22.9865 22.961 23.067 22.7666 23.067 22.564C23.067 22.3613 22.9865 22.167 22.8432 22.0237C22.6999 21.8804 22.5056 21.7998 22.303 21.7998H6.91699C6.71437 21.7998 6.52005 21.8804 6.37677 22.0237C6.23349 22.167 6.15295 22.3613 6.15295 22.564C6.15295 22.7666 6.23349 22.961 6.37677 23.1042C6.52005 23.2475 6.71437 23.3279 6.91699 23.3279Z" fill="#6930C3"/>
</g>
<g id="Group 127">
<path id="Path 111" d="M19.9959 28.7158C19.9949 28.818 20.0144 28.9196 20.0531 29.0142C20.0917 29.1088 20.1488 29.1948 20.221 29.2671C20.2933 29.3394 20.3792 29.3965 20.4737 29.4353C20.5683 29.4741 20.6697 29.4937 20.7719 29.4929H31.5359C31.737 29.4857 31.9275 29.4007 32.0672 29.2559C32.207 29.111 32.285 28.9176 32.285 28.7163C32.285 28.5151 32.207 28.3219 32.0672 28.177C31.9275 28.0322 31.737 27.9472 31.5359 27.94H20.7719C20.6698 27.9393 20.5686 27.9588 20.4742 27.9976C20.3797 28.0363 20.2939 28.0936 20.2217 28.1658C20.1495 28.238 20.0924 28.3238 20.0536 28.4182C20.0149 28.5127 19.9952 28.6137 19.9959 28.7158Z" fill="#6930C3"/>
</g>
<g id="Group 128">
<path id="Path 112" d="M6.91699 29.4929H16.15C16.3511 29.4857 16.5415 29.4007 16.6813 29.2559C16.821 29.111 16.8991 28.9176 16.8991 28.7163C16.8991 28.5151 16.821 28.3218 16.6813 28.177C16.5415 28.0322 16.3511 27.9472 16.15 27.9399H6.91699C6.71587 27.9472 6.52541 28.0322 6.38568 28.177C6.24595 28.3218 6.16785 28.5151 6.16785 28.7163C6.16785 28.9176 6.24595 29.111 6.38568 29.2559C6.52541 29.4007 6.71587 29.4857 6.91699 29.4929Z" fill="#6930C3"/>
</g>
<g id="Group 129">
<path id="Path 113" d="M6.91699 35.6328H12.303C12.5057 35.6328 12.7002 35.5523 12.8436 35.4089C12.9869 35.2656 13.0675 35.0712 13.0675 34.8684C13.0675 34.6657 12.9869 34.4713 12.8436 34.3279C12.7002 34.1845 12.5057 34.104 12.303 34.104H6.91699C6.71423 34.104 6.51978 34.1845 6.3764 34.3279C6.23303 34.4713 6.15247 34.6657 6.15247 34.8684C6.15247 35.0712 6.23303 35.2656 6.3764 35.4089C6.51978 35.5523 6.71423 35.6328 6.91699 35.6328Z" fill="#6930C3"/>
</g>
<g id="Group 130">
<path id="Path 114" d="M34.6049 34.104H16.9269C16.8242 34.1003 16.7218 34.1173 16.6258 34.1541C16.5298 34.1908 16.4422 34.2465 16.3682 34.3179C16.2942 34.3892 16.2354 34.4747 16.1952 34.5693C16.155 34.664 16.1343 34.7656 16.1343 34.8684C16.1343 34.9712 16.155 35.0729 16.1952 35.1675C16.2354 35.2621 16.2942 35.3476 16.3682 35.419C16.4422 35.4903 16.5298 35.546 16.6258 35.5828C16.7218 35.6195 16.8242 35.6365 16.9269 35.6328H34.6049C34.8077 35.6328 35.0021 35.5523 35.1455 35.4089C35.2889 35.2656 35.3694 35.0712 35.3694 34.8684C35.3694 34.6657 35.2889 34.4713 35.1455 34.3279C35.0021 34.1845 34.8077 34.104 34.6049 34.104Z" fill="#6930C3"/>
</g>
<g id="Group 131">
<path id="Path 115" d="M23.079 40.249H6.91696C6.71329 40.2532 6.51921 40.3366 6.37601 40.4814C6.2328 40.6263 6.15171 40.8212 6.14993 41.0249C6.14901 41.1263 6.16816 41.2268 6.20627 41.3208C6.24438 41.4148 6.30069 41.5004 6.37198 41.5725C6.44327 41.6446 6.52815 41.702 6.62167 41.7412C6.7152 41.7804 6.81555 41.8008 6.91696 41.801H23.079C23.1801 41.8005 23.2803 41.7798 23.3735 41.7405C23.4667 41.7011 23.5513 41.6439 23.6223 41.5718C23.6933 41.4997 23.7493 41.4142 23.7872 41.3203C23.8251 41.2265 23.844 41.1261 23.8429 41.0249C23.8414 40.8216 23.7608 40.627 23.6182 40.4822C23.4756 40.3373 23.2822 40.2537 23.079 40.249Z" fill="#6930C3"/>
</g>
</g>
</g>
<defs>
<clipPath id="clip0_115_117">
<rect width="41.534" height="50.769" fill="white"/>
</clipPath>
</defs>
</svg>
