<svg width="113" height="102" viewBox="0 0 113 102" fill="none" xmlns="http://www.w3.org/2000/svg">
<path id="Union" fill-rule="evenodd" clip-rule="evenodd" d="M112.29 85.34L112.283 85.3351L112.29 85.33V85.34ZM112.283 85.3351L88.77 101.91V93.1L48.73 92.31H1.73999C1.32999 92.31 0.98999 91.97 0.98999 91.56C0.98999 91.15 1.32999 90.81 1.73999 90.81H39.16C33.88 89.11 29.15 86.04 25.4 81.84H1.73999C1.32999 81.84 0.98999 81.5 0.98999 81.09C0.98999 80.68 1.32999 80.34 1.73999 80.34H24.14C19.81 74.84 17.43 68 17.43 61C17.43 50.02 23.28 39.75 32.71 34.11C32.4679 33.8195 32.2258 33.4914 31.9292 33.0895L31.9 33.05L31.82 32.95C31.79 32.9 31.76 32.86 31.73 32.82C31.49 32.48 31.24 32.1 30.94 31.6L30.87 31.48L30.87 31.4799C30.81 31.39 30.75 31.3 30.7 31.2C30.51 30.87 30.31 30.49 30.08 30.03L30.05 29.97C29.9981 29.8662 29.9504 29.7624 29.9014 29.6558L29.9014 29.6557C29.8749 29.5981 29.8481 29.5396 29.82 29.48C29.65 29.11 29.49 28.73 29.34 28.35C29.25 28.12 29.17 27.8901 29.09 27.6601L29.09 27.66L29.09 27.66C28.96 27.31 28.84 26.95 28.74 26.58C28.66 26.32 28.59 26.05 28.53 25.79L28.5 25.67C28.42 25.36 28.35 25.06 28.29 24.74C28.2375 24.485 28.2019 24.23 28.1662 23.975C28.1544 23.89 28.1425 23.805 28.13 23.72L28.08 23.35C28.05 23.17 28.03 23 28.01 22.82C27.94 22.11 27.91 21.46 27.91 20.84C27.91 9.35 37.26 0 48.75 0C60.24 0 69.59 9.35 69.57 20.85C69.57 21.48 69.54 22.13 69.47 22.83C69.45 23.01 69.43 23.19 69.4 23.37L69.36 23.63C69.31 24.03 69.26 24.38 69.19 24.74C69.13 25.05 69.06 25.36 68.98 25.67C68.9 26.01 68.83 26.29 68.75 26.58C68.65 26.94 68.53 27.3 68.41 27.65C68.33 27.88 68.24 28.12 68.15 28.35C68 28.73 67.85 29.1 67.68 29.47C67.6267 29.5966 67.5645 29.7233 67.5023 29.8499C67.4711 29.9133 67.44 29.9766 67.41 30.04C67.19 30.49 67 30.86 66.8 31.2C66.7638 31.2724 66.7224 31.3395 66.6795 31.409C66.6631 31.4355 66.6466 31.4624 66.63 31.49L66.55 31.62C66.25 32.11 66.01 32.49 65.77 32.83C65.73 32.87 65.66 32.97 65.66 32.97L65.59 33.06C65.29 33.46 65.03 33.8 64.78 34.11C74.21 39.74 80.06 50.02 80.06 61C80.06 67.99 77.69 74.83 73.38 80.33L88.77 80.31V69.51L112.283 85.3351ZM48.75 1.5C59.42 1.5 68.09 10.18 68.09 20.84C68.09 21.43 68.06 22.04 68 22.71C67.99 22.8 67.9775 22.89 67.965 22.98C67.9525 23.07 67.94 23.16 67.93 23.25L67.86 23.72C67.8461 23.8102 67.8335 23.9016 67.8207 23.9933L67.8207 23.9938L67.8206 23.994C67.7967 24.1666 67.7726 24.3404 67.74 24.51C67.68 24.83 67.6 25.14 67.52 25.45L67.45 25.72C67.41 25.9 67.36 26.08 67.31 26.26C67.2 26.6298 67.0701 26.9997 66.9401 27.3695L66.94 27.37L66.9 27.49C66.87 27.565 66.8425 27.6425 66.815 27.72C66.7875 27.7975 66.76 27.875 66.73 27.95C66.6002 28.2874 66.448 28.6174 66.2992 28.9399L66.2991 28.9399L66.23 29.09L66.18 29.19C66.15 29.255 66.12 29.3175 66.09 29.38L66.0894 29.3812C66.0596 29.4433 66.0298 29.5054 66 29.57C65.81 29.94 65.6 30.33 65.36 30.72L65.31 30.8C65.28 30.855 65.2475 30.9075 65.215 30.96C65.1825 31.0125 65.15 31.065 65.12 31.12C64.87 31.51 64.61 31.9 64.34 32.26C64.3 32.315 64.26 32.3674 64.22 32.4199L64.22 32.42L64.2197 32.4203C64.1798 32.4727 64.1399 32.5251 64.1 32.58C63.81 32.96 63.5 33.33 63.19 33.68C59.55 37.77 54.34 40.15 48.84 40.18H48.61C43.17 40.14 37.96 37.77 34.32 33.67C34 33.32 33.7 32.94 33.41 32.56C33.33 32.46 33.25 32.35 33.18 32.25C32.9 31.87 32.64 31.49 32.4 31.1C32.34 31 32.28 30.9 32.21 30.8L32.17 30.73C31.93 30.33 31.72 29.95 31.52 29.57L31.5199 29.5699C31.46 29.4499 31.4 29.33 31.35 29.21L31.3 29.11C31.12 28.73 30.95 28.34 30.79 27.95C30.73 27.81 30.68 27.66 30.63 27.51L30.58 27.38C30.44 27.01 30.31 26.64 30.2 26.26C30.1713 26.1623 30.1458 26.0646 30.1199 25.9651L30.1199 25.9649C30.1007 25.8913 30.0812 25.8165 30.06 25.74L29.98 25.44C29.9 25.13 29.82 24.82 29.76 24.51C29.71 24.25 29.67 23.99 29.64 23.72L29.57 23.27C29.54 23.08 29.51 22.89 29.49 22.7C29.43 22.03 29.4 21.42 29.4 20.83C29.41 10.18 38.08 1.5 48.75 1.5ZM29.41 61.01C29.41 50.43 38.02 41.75 48.66 41.68H48.9C59.49 41.76 68.1 50.43 68.1 61.01C68.1 71.59 59.54 80.19 49.03 80.34H48.71C38.07 80.32 29.42 71.65 29.42 61.01H29.41ZM56.53 80.34C64.4 77.18 69.6 69.58 69.6 61.01C69.6 51.68 63.22 43.39 54.28 40.93C57.88 39.94 61.14 38 63.77 35.27C72.91 40.61 78.58 50.46 78.58 61.02C78.58 68.1 76.05 74.96 71.45 80.35H56.54L56.53 80.34ZM33.75 35.26C36.37 37.99 39.63 39.93 43.24 40.92C34.3 43.38 27.92 51.67 27.92 61C27.92 72.49 37.27 81.84 48.76 81.84H48.92H49.03H70.09L90.28 81.82V72.34L109.66 85.38L90.28 99.04V91.65L48.76 90.84C32.32 90.84 18.94 77.46 18.94 61.02C18.94 50.46 24.61 40.61 33.75 35.27V35.26ZM51.11 71.3201V75.2101H46.39V71.4101C45.21 71.1601 44.05 70.7101 43.02 70.0801L40.38 72.7201L37.04 69.3801L39.63 66.7901C38.95 65.7501 38.46 64.5801 38.18 63.3701H34.55V58.6501H38.18C38.46 57.4401 38.96 56.2701 39.63 55.2301L37.04 52.6401L40.38 49.3001L43.02 51.9401C44.05 51.3101 45.21 50.8601 46.39 50.6101V46.8101H51.11V50.7001C52.24 50.9901 53.34 51.4701 54.32 52.1001L57.12 49.3001L60.46 52.6401L57.61 55.4901C58.21 56.4701 58.64 57.5301 58.89 58.6501H62.94V63.3701H58.89C58.64 64.4901 58.21 65.5501 57.61 66.5301L60.46 69.3801L57.12 72.7201L54.32 69.9201C53.34 70.5601 52.24 71.0401 51.11 71.3201ZM39.16 69.3801L40.37 70.5901L42.82 68.1401L43.34 68.5001C44.5 69.3001 45.85 69.8301 47.24 70.0301L47.88 70.1201V73.7001H49.6V70.0801L50.21 69.9701C51.56 69.7201 52.85 69.1501 53.95 68.3401L54.47 67.9601L57.11 70.6001L58.33 69.3801L55.67 66.7201L56.03 66.2101C56.81 65.0901 57.31 63.8401 57.53 62.5001L57.63 61.8701H61.44V60.1501H57.63L57.53 59.5201C57.31 58.1801 56.81 56.9301 56.03 55.8101L55.67 55.2901L58.33 52.6301L57.11 51.4101L54.47 54.0501L53.95 53.6701C52.85 52.8601 51.56 52.2901 50.21 52.0401L49.6 51.9301V48.3101H47.88V51.8901L47.24 51.9801C45.85 52.1801 44.5 52.7101 43.34 53.5101L42.83 53.8701L40.38 51.4201L39.16 52.6401L41.59 55.0701L41.21 55.5901C40.36 56.7401 39.78 58.1001 39.55 59.5201L39.45 60.1501H36.06V61.8701H39.45L39.55 62.5001C39.78 63.9101 40.35 65.2701 41.21 66.4301L41.59 66.9501L39.16 69.3801ZM48.54 52.9502C52.98 52.9502 56.6 56.5602 56.6 61.0102C56.6 65.4502 52.98 69.0702 48.54 69.0702C44.1 69.0702 40.48 65.4502 40.48 61.0102C40.48 56.5702 44.1 52.9502 48.54 52.9502ZM55.1 61.0102C55.1 57.3902 52.16 54.4502 48.54 54.4502C44.92 54.4502 41.98 57.3902 41.98 61.0102C41.98 64.6302 44.92 67.5702 48.54 67.5702C52.16 67.5702 55.1 64.6302 55.1 61.0102ZM58.82 9.50977L64.19 14.2198L47.45 33.6498L34.68 21.7198L39.89 16.5198L47.42 23.5098L58.82 9.50977ZM39.94 18.5998L36.86 21.6798L47.35 31.4898L62.09 14.3598L59.01 11.6598L47.58 25.6898L39.94 18.5998Z" fill="#6930C3"/>
</svg>
