<svg width="50" height="70" viewBox="0 0 50 70" fill="none" xmlns="http://www.w3.org/2000/svg">
<path id="Union" fill-rule="evenodd" clip-rule="evenodd" d="M44.0747 9.52134L44.07 9.53H44.08L44.0747 9.52134ZM49.23 0L44.0747 9.52134L41.64 5.55L27.9 13.98H17.14L7.1 18.26H0.75C0.34 18.26 0 17.92 0 17.51C0 17.1 0.34 16.76 0.75 16.76H6.78L16.97 12.48H27.46L40.84 4.27L38.4 0.29L49.23 0ZM45.5499 25.85H35.0099C32.8399 25.85 31.0699 27.62 31.0699 29.79V65.39C31.0699 67.56 32.8399 69.33 35.0099 69.33H45.5499C47.7199 69.33 49.4899 67.56 49.4899 65.39V29.79C49.4899 27.62 47.7199 25.85 45.5499 25.85ZM45.5499 67.83H39.4899L45.8699 61.45C46.0099 61.31 46.0899 61.12 46.0899 60.92C46.0899 60.72 46.0099 60.53 45.8699 60.39C45.5899 60.11 45.0899 60.11 44.8099 60.39L37.3699 67.83H35.0099C33.6699 67.83 32.5699 66.74 32.5699 65.39V38.2H43.7399L34.9399 47C34.6499 47.29 34.6499 47.77 34.9399 48.06C35.2299 48.35 35.7199 48.34 35.9999 48.06L45.8599 38.2H47.9899V65.39C47.9899 66.73 46.8999 67.83 45.5499 67.83ZM35.0099 27.35H45.5499C46.8899 27.35 47.9899 28.44 47.9899 29.79V36.71H32.5699V29.79C32.5699 28.45 33.6599 27.35 35.0099 27.35ZM19.04 53.14H17.52C16.88 53.14 16.35 52.62 16.34 51.98C17.41 51.58 19.67 50.52 20.93 48.35C21.81 46.94 22.28 45.33 22.28 43.68C22.28 41.06 21.12 38.59 19.1 36.91C17.08 35.24 14.41 34.56 11.79 35.05C8.42998 35.69 5.66998 38.36 4.92998 41.7C4.41998 44.01 4.82998 46.37 6.08998 48.38C7.86998 50.85 9.98998 51.73 10.99 52.03C10.95 52.65 10.44 53.14 9.80998 53.14H7.95998C4.84998 53.14 2.12998 55.18 1.33998 58.1C1.09998 58.99 0.97998 59.91 0.97998 60.84V68.69C0.97998 69.1 1.31998 69.44 1.72998 69.44C2.13998 69.44 2.47998 69.1 2.47998 68.69V60.84C2.47998 60.04 2.57998 59.25 2.78998 58.49C3.40998 56.22 5.52998 54.64 7.95998 54.64H9.80998C11.29 54.64 12.49 53.44 12.49 51.96V50.79L11.84 50.7C11.81 50.7 9.29998 50.29 7.32998 47.55C6.29998 45.91 5.96998 43.95 6.38998 42.04C6.43998 41.82 6.50998 41.59 6.59998 41.32H11.23C11.9 41.32 12.57 41.5 13.15 41.85C14.52 42.67 16.3 42.58 17.58 41.6C17.872 41.3767 18.1362 41.1755 18.3753 40.9934C18.9713 40.5394 19.4117 40.2041 19.74 39.94C20.42 41.08 20.78 42.36 20.78 43.68C20.78 45 20.39 46.39 19.65 47.57C18.3 49.89 15.42 50.71 15.39 50.71L14.84 50.86V51.95C14.84 53.43 16.04 54.63 17.52 54.63H19.04C21.47 54.63 23.6 56.21 24.21 58.48C24.42 59.24 24.52 60.03 24.52 60.83V68.68C24.52 69.09 24.86 69.43 25.27 69.43C25.68 69.43 26.02 69.09 26.02 68.68V60.83C26.02 59.9 25.9 58.97 25.66 58.09C24.87 55.17 22.15 53.13 19.04 53.13V53.14ZM18.15 38.07C18.38 38.26 18.6 38.48 18.84 38.74C18.39 39.1 17.66 39.66 16.67 40.41C15.87 41.02 14.79 41.08 13.93 40.56C13.12 40.07 12.19 39.82 11.24 39.82H7.32998C8.39998 38.12 10.14 36.9 12.08 36.54C14.26 36.13 16.47 36.69 18.15 38.08V38.07ZM19.88 59.86C19.47 59.86 19.13 60.2 19.13 60.61V68.69C19.13 69.1 19.47 69.44 19.88 69.44C20.29 69.44 20.63 69.1 20.63 68.69V60.61C20.63 60.2 20.29 59.86 19.88 59.86ZM5.67004 60.61C5.67004 60.2 6.01004 59.86 6.42004 59.86C6.83004 59.86 7.17004 60.2 7.17004 60.61V68.69C7.17004 69.1 6.83004 69.44 6.42004 69.44C6.01004 69.44 5.67004 69.1 5.67004 68.69V60.61ZM34.94 62.4699L44.81 52.5999C45.1 52.3099 45.58 52.3099 45.87 52.5999C46.16 52.8899 46.16 53.3699 45.87 53.6599L36 63.5299C35.86 63.6699 35.67 63.7499 35.47 63.7499C35.27 63.7499 35.08 63.6699 34.94 63.5299C34.65 63.2399 34.65 62.7599 34.94 62.4699ZM44.81 44.87L34.94 54.74C34.65 55.03 34.65 55.51 34.94 55.8C35.08 55.94 35.27 56.02 35.47 56.02C35.67 56.02 35.86 55.94 36 55.8L45.87 45.93C46.16 45.64 46.16 45.16 45.87 44.87C45.58 44.58 45.1 44.58 44.81 44.87Z" fill="white"/>
</svg>
