<svg width="118" height="92" viewBox="0 0 118 92" fill="none" xmlns="http://www.w3.org/2000/svg">
<path id="Union" fill-rule="evenodd" clip-rule="evenodd" d="M113.49 0H17.03C14.77 0 12.92 1.84 12.92 4.11V40.91C12.92 41.32 13.26 41.66 13.67 41.66C14.08 41.66 14.42 41.32 14.42 40.91V4.11C14.42 2.67 15.59 1.5 17.03 1.5H113.49C114.93 1.5 116.1 2.67 116.1 4.11V59.14C116.1 69.06 108.03 77.13 98.11 77.13H56.81V72.46L47.43 77.88L56.81 83.3V78.63H98.11C108.86 78.63 117.6 69.89 117.6 59.14V4.11C117.6 1.85 115.76 0 113.49 0ZM20.07 51.41C9 51.41 0 60.41 0 71.47C0 82.53 9 91.54 20.07 91.54C31.14 91.54 40.14 82.54 40.14 71.47C40.14 60.4 31.14 51.4 20.07 51.4V51.41ZM20.07 90.05C9.83 90.05 1.5 81.72 1.5 71.48C1.5 61.24 9.83 52.91 20.07 52.91C30.31 52.91 38.64 61.24 38.64 71.48C38.64 81.72 30.31 90.05 20.07 90.05ZM43.94 37.15H55.85V66.48H43.94V37.15ZM45.44 38.65V64.98H54.35V38.65H45.44ZM68.4 66.49H80.31V37.16H68.4V66.49ZM78.81 38.66V64.99H69.9V38.66H78.81ZM104.77 66.49H92.86V37.16H104.77V66.49ZM103.27 64.99V38.66H94.36V64.99H103.27ZM55.79 10.26C52.18 10.26 49.24 13.06 49.06 16.66L32.44 31.75C31.56 31.35 30.64 31.15 29.69 31.15C25.97 31.15 22.95 34.18 22.95 37.9C22.95 41.62 25.98 44.64 29.69 44.64C33.4 44.64 36.44 41.61 36.44 37.9C36.44 35.81 35.46 33.83 33.79 32.55L49.22 18.53C49.92 21.58 52.62 23.75 55.78 23.75C58.29 23.75 60.62 22.32 61.77 20.08L67.6 22.29C67.53 22.67 67.5 23.06 67.5 23.45C67.5 27.17 70.53 30.2 74.25 30.2C77.97 30.2 81 27.17 81 23.45C81 23.23 80.99 23 80.96 22.75C81.02 22.75 81.08 22.74 81.14 22.72L91.96 19.58C93 22.08 95.47 23.74 98.18 23.74C101.9 23.74 104.93 20.71 104.93 16.99C104.93 13.27 101.9 10.24 98.18 10.24C94.46 10.24 91.43 13.27 91.43 16.99C91.43 17.37 91.46 17.76 91.53 18.14L80.72 21.28C80.72 21.28 80.67 21.3 80.64 21.31C79.72 18.58 77.15 16.7 74.25 16.7C71.55 16.7 69.08 18.36 68.03 20.84L62.31 18.67C62.45 18.12 62.53 17.55 62.53 16.99C62.53 13.27 59.5 10.24 55.78 10.24L55.79 10.26ZM98.185 11.76C101.073 11.7627 103.43 14.1117 103.43 17.01C103.43 19.91 101.08 22.26 98.18 22.26C96.1 22.26 94.26 21.06 93.41 19.18L98.39 17.73C98.79 17.61 99.02 17.2 98.9 16.8C98.84 16.61 98.71 16.45 98.54 16.35C98.36 16.25 98.16 16.23 97.97 16.29L92.99 17.74C92.95 17.49 92.94 17.25 92.94 17.01C92.94 14.1216 95.2873 11.7627 98.185 11.76ZM55.79 22.25C52.9 22.25 50.54 19.9 50.54 17C50.54 14.1 52.89 11.75 55.79 11.75C58.69 11.75 61.04 14.1 61.04 17C61.04 19.9 58.69 22.25 55.79 22.25ZM29.69 43.14C26.8 43.14 24.45 40.79 24.45 37.9C24.45 35.01 26.8 32.65 29.69 32.65C32.58 32.65 34.94 35 34.94 37.9C34.94 40.8 32.59 43.14 29.69 43.14ZM74.25 18.21C77.14 18.21 79.5 20.56 79.5 23.45C79.5 26.34 77.15 28.7 74.25 28.7C71.35 28.7 69 26.35 69 23.45C69 20.55 71.35 18.21 74.25 18.21ZM26.56 58.63C26.75 58.57 26.96 58.59 27.13 58.68H27.15C27.33 58.77 27.46 58.93 27.52 59.12C27.58 59.31 27.56 59.51 27.47 59.69L22.15 69.96C22.53 70.37 22.75 70.91 22.75 71.47C22.75 72.7 21.73 73.7 20.52 73.7C19.31 73.7 18.33 72.74 18.29 71.54L10.68 69.09C10.49 69.03 10.33 68.9 10.24 68.72C10.15 68.54 10.13 68.34 10.19 68.15C10.25 67.96 10.38 67.8 10.56 67.71C10.74 67.62 10.94 67.61 11.13 67.67L18.74 70.12C19.22 69.49 19.97 69.15 20.8 69.27L26.12 59C26.21 58.82 26.37 58.69 26.56 58.63Z" fill="white"/>
</svg>
