<svg width="65" height="105" viewBox="0 0 65 105" fill="none" xmlns="http://www.w3.org/2000/svg">
<path id="Union" fill-rule="evenodd" clip-rule="evenodd" d="M56.35 55.73L46.87 53.03V47.64H43.67V41.98L44.08 41.59C45.36 40.34 46.48 38.89 47.44 37.31C47.74 37.4 48.05 37.46 48.37 37.46C48.8 37.46 49.22 37.38 49.62 37.22C50.47 36.89 51.13 36.24 51.5 35.41C51.86 34.58 51.88 33.65 51.55 32.8C51.27 32.09 50.77 31.52 50.13 31.14C50.89 28.51 51.29 25.69 51.29 22.77C51.29 22.75 51.29 22.74 51.28 22.72C51.28 22.683 51.2691 22.646 51.2593 22.6131L51.2593 22.6129L51.2558 22.6012C51.2537 22.5938 51.2517 22.5868 51.25 22.58C51.24 22.53 51.22 22.48 51.2 22.44C51.2 22.42 51.2 22.41 51.18 22.39L42.26 7.56L41.59 8.43C36.71 14.79 28.3 17.42 20.67 14.98C20 14.77 19.27 14.87 18.69 15.27C18.11 15.67 17.75 16.31 17.71 17.01L17.41 22.21C17.39 22.62 17.15 22.98 16.78 23.17C16.41 23.35 15.98 23.33 15.64 23.1C15.11 22.75 14.45 22.73 13.9 23.05C13.35 23.37 13.03 23.96 13.06 24.59C13.0841 25.0485 13.1341 25.5005 13.184 25.9512C13.1961 26.0609 13.2083 26.1704 13.22 26.28C11.56 25.87 10.32 24.37 10.32 22.58V8.29C10.32 7.82 10.54 7.39 10.93 7.12C11.31 6.85 11.79 6.78 12.23 6.94C13.54 7.4 14.97 6.9 15.72 5.74C17.42 3.09 20.32 1.5 23.47 1.5H40.39C46.88 1.5 52.16 6.78 52.16 13.27V20.65C52.16 21.06 52.5 21.4 52.91 21.4C53.32 21.4 53.66 21.06 53.66 20.65V13.27C53.66 5.95 47.71 0 40.39 0H23.46C19.8 0 16.43 1.84 14.45 4.92C14.08 5.5 13.36 5.75 12.72 5.52C11.81 5.2 10.84 5.34 10.05 5.9C9.26001 6.46 8.81001 7.33 8.81001 8.29V22.6C8.81001 25.29 10.82 27.49 13.42 27.85C13.59 28.93 13.82 29.99 14.11 31.01C13.34 31.38 12.75 32.01 12.43 32.81C12.1 33.66 12.11 34.58 12.48 35.42C12.84 36.25 13.51 36.9 14.36 37.23C14.76 37.39 15.18 37.47 15.61 37.47C16 37.47 16.38 37.39 16.74 37.26C17.73 38.93 18.89 40.45 20.24 41.74L20.67 42.15L20.53 47.69L16.6 47.65V53.39L8.35001 55.69C3.44001 57.06 0.0100098 61.57 0.0100098 66.67V104.09C0.0100098 104.5 0.35001 104.84 0.76001 104.84C1.17001 104.84 1.51001 104.5 1.51001 104.09V66.67C1.51001 62.25 4.49001 58.33 8.75001 57.14L17.14 54.8L31.4 60.74V104.8L38.23 104.85V70.12L32.9 65.74V60.72L46.2 54.41L55.96 57.19C60.26 58.36 63.27 62.28 63.27 66.74V104.06C63.27 104.47 63.61 104.81 64.02 104.81C64.43 104.81 64.77 104.47 64.77 104.06V66.74C64.77 61.61 61.31 57.08 56.36 55.74L56.35 55.73ZM15.98 35.92C15.62 36 15.24 35.97 14.89 35.83C14.42 35.64 14.04 35.28 13.84 34.82C13.47 33.96 13.78 32.98 14.53 32.47C14.94 33.68 15.42 34.83 15.98 35.92ZM21.11 49.14L31.39 53.02V59.1L18.09 53.56V49.14H21.11ZM14.76 26.79C14.66 26.04 14.59 25.29 14.54 24.51C14.54 24.41 14.6 24.37 14.63 24.35C14.68 24.32 14.74 24.32 14.79 24.35C15.59 24.88 16.58 24.94 17.43 24.51C18.28 24.08 18.83 23.26 18.89 22.3L19.19 17.1C19.2 16.86 19.33 16.64 19.52 16.51C19.72 16.37 19.97 16.34 20.2 16.41C28.02 18.91 36.76 16.41 42.08 10.19L49.77 22.97C49.72 29.98 47.28 36.37 43.04 40.51L42.16 41.33V47.92L32.13 51.69L22 47.87L22.16 41.51L21.26 40.64C17.87 37.39 15.65 32.72 14.84 27.31C14.8431 27.2947 14.8471 27.2793 14.8512 27.2637C14.8604 27.2284 14.87 27.1916 14.87 27.15C14.87 27.01 14.82 26.89 14.76 26.78V26.79ZM49.64 32.64C50.23 33.17 50.46 34.04 50.12 34.82C49.92 35.29 49.54 35.65 49.07 35.83C48.79 35.94 48.5 35.97 48.21 35.95C48.76 34.9 49.23 33.79 49.64 32.64ZM32.89 53.02L43.06 49.14H45.37V53.12L32.89 59.04V53.02ZM32.89 103.3V67.67L36.72 70.82V103.33L32.89 103.3ZM16.46 75.49C16.46 75.08 16.8 74.74 17.21 74.74C17.62 74.74 17.96 75.08 17.96 75.49V102.73C17.96 103.14 17.62 103.48 17.21 103.48C16.8 103.48 16.46 103.14 16.46 102.73V75.49ZM46.7 75.49C46.7 75.08 47.04 74.74 47.45 74.74C47.86 74.74 48.2 75.08 48.2 75.49V102.73C48.2 103.14 47.86 103.48 47.45 103.48C47.04 103.48 46.7 103.14 46.7 102.73V75.49ZM33.4 73.8299C33.4 73.0599 34.03 72.4299 34.8 72.4299C35.57 72.4299 36.2 73.0599 36.2 73.8299C36.2 74.5999 35.57 75.2299 34.8 75.2299C34.03 75.2299 33.4 74.5999 33.4 73.8299ZM34.8051 73.7102C34.7653 73.714 34.71 73.7627 34.71 73.8299C34.71 73.9399 34.9 73.9399 34.9 73.8299C34.9 73.7816 34.8534 73.7147 34.8051 73.7102ZM34.8 78.24C34.03 78.24 33.4 78.87 33.4 79.64C33.4 80.41 34.03 81.04 34.8 81.04C35.57 81.04 36.2 80.41 36.2 79.64C36.2 78.87 35.57 78.24 34.8 78.24ZM34.71 79.64C34.71 79.5728 34.7653 79.524 34.8051 79.5202C34.8534 79.5247 34.9 79.5917 34.9 79.64C34.9 79.75 34.71 79.75 34.71 79.64ZM33.4 85.4601C33.4 84.6901 34.03 84.0601 34.8 84.0601C35.57 84.0601 36.2 84.6901 36.2 85.4601C36.2 86.2301 35.57 86.8601 34.8 86.8601C34.03 86.8601 33.4 86.2301 33.4 85.4601ZM34.8051 85.3403C34.7653 85.3441 34.71 85.3929 34.71 85.4601C34.71 85.5701 34.9 85.5701 34.9 85.4601C34.9 85.4118 34.8534 85.3448 34.8051 85.3403ZM34.8 89.8701C34.03 89.8701 33.4 90.5001 33.4 91.2701C33.4 92.0401 34.03 92.6701 34.8 92.6701C35.57 92.6701 36.2 92.0401 36.2 91.2701C36.2 90.5001 35.57 89.8701 34.8 89.8701ZM34.71 91.2701C34.71 91.2029 34.7653 91.1542 34.8051 91.1504C34.8534 91.1549 34.9 91.2218 34.9 91.2701C34.9 91.3801 34.71 91.3801 34.71 91.2701ZM33.4 97.0899C33.4 96.3199 34.03 95.6899 34.8 95.6899C35.57 95.6899 36.2 96.3199 36.2 97.0899C36.2 97.8599 35.57 98.4899 34.8 98.4899C34.03 98.4899 33.4 97.8599 33.4 97.0899ZM34.8051 96.9702C34.7653 96.974 34.71 97.0227 34.71 97.0899C34.71 97.1999 34.9 97.1999 34.9 97.0899C34.9 97.0416 34.8534 96.9747 34.8051 96.9702Z" fill="white"/>
</svg>
