<svg width="94" height="105" viewBox="0 0 94 105" fill="none" xmlns="http://www.w3.org/2000/svg">
<path id="Union" fill-rule="evenodd" clip-rule="evenodd" d="M69.72 82.99C69.31 82.99 68.97 83.33 68.97 83.74V90.49H1.5V15.28H68.97V20.71C68.97 21.12 69.31 21.46 69.72 21.46C70.13 21.46 70.47 21.12 70.47 20.71V8.31C70.47 3.73 66.74 0 62.16 0H8.31C3.73 0 0 3.73 0 8.31V96.01C0 100.59 3.73 104.32 8.31 104.32H62.16C66.74 104.32 70.47 100.59 70.47 96.01V83.74C70.47 83.33 70.13 82.99 69.72 82.99ZM62.16 102.82H8.31C4.55 102.82 1.5 99.76 1.5 96.01V91.99H68.97V96.01C68.97 99.77 65.91 102.82 62.16 102.82ZM8.31 1.5H62.16C65.92 1.5 68.97 4.56 68.97 8.31V13.78H1.5V8.31C1.5 4.56 4.56 1.5 8.31 1.5ZM27.85 8.7998H42.62C43.03 8.7998 43.37 8.4598 43.37 8.0498C43.37 7.6398 43.03 7.2998 42.62 7.2998H27.85C27.44 7.2998 27.1 7.6398 27.1 8.0498C27.1 8.4598 27.44 8.7998 27.85 8.7998ZM32.39 96.5702C32.39 95.0002 33.67 93.7202 35.24 93.7202C36.81 93.7202 38.09 95.0002 38.09 96.5702C38.09 98.1402 36.81 99.4202 35.24 99.4202C33.67 99.4202 32.39 98.1402 32.39 96.5702ZM33.89 96.5802C33.89 97.3202 34.49 97.9302 35.24 97.9302C35.98 97.9302 36.59 97.3202 36.59 96.5802C36.59 95.8402 35.98 95.2302 35.24 95.2302C34.5 95.2302 33.89 95.8402 33.89 96.5802ZM93.81 51.4099L93.8 51.3999L93.81 51.3899V51.4099ZM93.8 51.3999L67.28 24.8799L59.22 32.9399L77.68 51.3999L59.22 69.8599L67.28 77.9199L93.8 51.3999ZM79.81 51.4099L61.35 32.9499L67.29 27.0099L91.69 51.4099L67.29 75.8099L61.35 69.8699L79.81 51.4099ZM37.09 24.8901L45.15 32.9501V32.9601L26.68 51.4201L45.15 69.8801L37.09 77.9401L10.56 51.4101L37.09 24.8901ZM12.68 51.4101L37.09 75.8201V75.8101L43.03 69.8701L24.56 51.4101L43.03 32.9501L37.09 27.0101L12.68 51.4101ZM49.16 52.1602C49.16 51.7502 48.82 51.4102 48.41 51.4102H40.38C39.97 51.4102 39.63 51.7502 39.63 52.1602C39.63 52.5702 39.97 52.9102 40.38 52.9102H48.41C48.82 52.9102 49.16 52.5702 49.16 52.1602ZM64.49 51.4102C64.9 51.4102 65.24 51.7502 65.24 52.1602C65.24 52.5702 64.9 52.9102 64.49 52.9102H56.46C56.05 52.9102 55.71 52.5702 55.71 52.1602C55.71 51.7502 56.05 51.4102 56.46 51.4102H64.49Z" fill="white"/>
</svg>
