<svg width="68" height="70" viewBox="0 0 68 70" fill="none" xmlns="http://www.w3.org/2000/svg">
<path id="Union" fill-rule="evenodd" clip-rule="evenodd" d="M67.34 19.04C67.34 20.57 66.1 21.81 64.57 21.81H61.01V32.41H64.57C66.1 32.41 67.34 33.65 67.34 35.18V43.8C67.34 45.33 66.1 46.57 64.57 46.57H61.01V55.65H64.57C66.1 55.65 67.34 56.89 67.34 58.42V67.04C67.34 68.57 66.1 69.81 64.57 69.81H55.95C54.42 69.81 53.18 68.57 53.18 67.04V58.42C53.18 56.89 54.42 55.65 55.95 55.65H59.51V46.57H55.95C54.42 46.57 53.18 45.33 53.18 43.8V35.18C53.18 33.65 54.42 32.41 55.95 32.41H59.51V21.81H35.06V55.66H38.62C40.15 55.66 41.39 56.9 41.39 58.43V67.05C41.39 68.58 40.15 69.82 38.62 69.82H30C28.47 69.82 27.23 68.58 27.23 67.05V58.43C27.23 56.9 28.47 55.66 30 55.66H33.56V21.81H7.84V32.41H11.4C12.93 32.41 14.17 33.65 14.17 35.18V43.8C14.17 45.33 12.93 46.57 11.4 46.57H7.84V55.65H11.4C12.93 55.65 14.17 56.89 14.17 58.42V67.04C14.17 68.57 12.93 69.81 11.4 69.81H2.77C1.24 69.81 0 68.57 0 67.04V58.42C0 56.89 1.24 55.65 2.77 55.65H6.33V46.57H2.77C1.24 46.57 0 45.33 0 43.8V35.18C0 33.65 1.24 32.41 2.77 32.41H6.33V21.81H2.77C1.24 21.81 0 20.57 0 19.04V2.77C0 1.24 1.24 0 2.77 0H64.57C66.1 0 67.34 1.24 67.34 2.77V19.04ZM1.5 19.04C1.5 19.74 2.07 20.31 2.77 20.31H64.56C65.26 20.31 65.83 19.74 65.83 19.04V2.77C65.83 2.07 65.26 1.5 64.56 1.5H2.77C2.07 1.5 1.5 2.07 1.5 2.77V19.04ZM12.66 35.18C12.66 34.48 12.09 33.91 11.39 33.91H2.77C2.07 33.91 1.5 34.48 1.5 35.18V43.8C1.5 44.5 2.07 45.07 2.77 45.07H11.39C12.09 45.07 12.66 44.5 12.66 43.8V35.18ZM12.66 58.43C12.66 57.73 12.09 57.16 11.39 57.16H2.77C2.07 57.16 1.5 57.73 1.5 58.43V67.05C1.5 67.75 2.07 68.32 2.77 68.32H11.39C12.09 68.32 12.66 67.75 12.66 67.05V58.43ZM39.88 58.43C39.88 57.73 39.31 57.16 38.61 57.16H29.99C29.29 57.16 28.72 57.73 28.72 58.43V67.05C28.72 67.75 29.29 68.32 29.99 68.32H38.61C39.31 68.32 39.88 67.75 39.88 67.05V58.43ZM65.83 35.18C65.83 34.48 65.26 33.91 64.56 33.91H55.94C55.24 33.91 54.67 34.48 54.67 35.18V43.8C54.67 44.5 55.24 45.07 55.94 45.07H64.56C65.26 45.07 65.83 44.5 65.83 43.8V35.18ZM65.83 58.43C65.83 57.73 65.26 57.16 64.56 57.16H55.94C55.24 57.16 54.67 57.73 54.67 58.43V67.05C54.67 67.75 55.24 68.32 55.94 68.32H64.56C65.26 68.32 65.83 67.75 65.83 67.05V58.43ZM63.24 40.25H56.88C56.47 40.25 56.13 39.91 56.13 39.5C56.13 39.09 56.47 38.75 56.88 38.75H63.24C63.65 38.75 63.99 39.09 63.99 39.5C63.99 39.91 63.65 40.25 63.24 40.25ZM56.88 63.49H63.24C63.65 63.49 63.99 63.15 63.99 62.74C63.99 62.33 63.65 61.99 63.24 61.99H56.88C56.47 61.99 56.13 62.33 56.13 62.74C56.13 63.15 56.47 63.49 56.88 63.49ZM10.27 40.25H3.91003C3.50003 40.25 3.16003 39.91 3.16003 39.5C3.16003 39.09 3.50003 38.75 3.91003 38.75H10.27C10.68 38.75 11.02 39.09 11.02 39.5C11.02 39.91 10.68 40.25 10.27 40.25ZM3.91003 63.49H10.27C10.68 63.49 11.02 63.15 11.02 62.74C11.02 62.33 10.68 61.99 10.27 61.99H3.91003C3.50003 61.99 3.16003 62.33 3.16003 62.74C3.16003 63.15 3.50003 63.49 3.91003 63.49ZM37.49 63.49H31.13C30.72 63.49 30.38 63.15 30.38 62.74C30.38 62.33 30.72 61.99 31.13 61.99H37.49C37.9 61.99 38.24 62.33 38.24 62.74C38.24 63.15 37.9 63.49 37.49 63.49ZM58.27 12.97H10.34C9.92997 12.97 9.58997 13.31 9.58997 13.72C9.58997 14.13 9.92997 14.47 10.34 14.47H58.27C58.68 14.47 59.02 14.13 59.02 13.72C59.02 13.31 58.68 12.97 58.27 12.97ZM10.34 7.77002H58.27C58.68 7.77002 59.02 8.11002 59.02 8.52002C59.02 8.93002 58.68 9.27002 58.27 9.27002H10.34C9.92997 9.27002 9.58997 8.93002 9.58997 8.52002C9.58997 8.11002 9.92997 7.77002 10.34 7.77002Z" fill="#6930C3"/>
</svg>
