<svg width="65" height="97" viewBox="0 0 65 97" fill="none" xmlns="http://www.w3.org/2000/svg">
<path id="Union" fill-rule="evenodd" clip-rule="evenodd" d="M56.38 47.53L47.5 45.13C45.27 44.52 43.71 42.49 43.71 40.17V33.47C43.71 33.38 43.69 33.29 43.65 33.2L46.57 28.66C47.24 28.95 47.95 29.01 48.67 28.84C49.56 28.63 50.31 28.09 50.79 27.32C51.67 25.91 51.39 24.09 50.15 22.99C51.34 20.76 51.96 18.24 51.96 15.71V14.44C56.74 11.65 59.7 6.51 59.7 1V0H27.87C26.68 0 25.44 0.15 24.2 0.45C24.08 0.42 23.97 0.43 23.86 0.45C22.71 0.77 21.56 1.24 20.43 1.86C20.35 1.9 20.28 1.94 20.2 1.99L19.99 2.11C19.9368 2.14192 19.8831 2.17384 19.8293 2.20586L19.8287 2.20624C19.6298 2.32455 19.4287 2.44418 19.24 2.57C18.93 2.77 18.63 2.99 18.34 3.21L18.24 3.29C18.18 3.33 18.12 3.37 18.07 3.42C16.32 4.8 14.92 6.49 13.89 8.44C13.71 8.77 13.54 9.12 13.36 9.55L13.26 9.77C13.07 10.21 12.91 10.66 12.78 11.08L12.75 11.17C12.6 11.65 12.48 12.13 12.37 12.63C12.27 13.11 12.2 13.61 12.14 14.12L12.12 14.27C12.07 14.8 12.05 15.24 12.04 15.72H12.29L12.04 15.81V16.31L12.06 16.56H12.07C12.18 18.68 12.71 20.72 13.65 22.62C12.88 23.1 12.34 23.85 12.13 24.74C11.92 25.63 12.07 26.54 12.55 27.31C13.03 28.08 13.78 28.62 14.67 28.83C15.56 29.04 16.48 28.88 17.24 28.41L20.51 33.49V40.2C20.51 42.5 18.97 44.53 16.75 45.15L8.34 47.49C3.43 48.86 0 53.37 0 58.47V94.53C0 94.94 0.34 95.28 0.75 95.28C1.16 95.28 1.5 94.94 1.5 94.53V58.47C1.5 54.05 4.48 50.13 8.74 48.94L17.15 46.6C20.01 45.8 22.01 43.18 22.01 40.21V35.84L23.86 38.72C25.64 41.49 28.67 43.14 31.96 43.14C35.25 43.14 38.28 41.49 40.07 38.72L42.18 35.45V40.18C42.18 43.17 44.2 45.8 47.08 46.59L55.96 48.99C60.26 50.16 63.27 54.08 63.27 58.54V95.86C63.27 96.27 63.61 96.61 64.02 96.61C64.43 96.61 64.77 96.27 64.77 95.86V58.53C64.77 53.4 61.31 48.87 56.35 47.53H56.38ZM44.15 15.06H13.59C13.6 14.81 13.62 14.55 13.65 14.3V14.21C13.665 14.125 13.675 14.0425 13.685 13.96C13.695 13.8775 13.705 13.795 13.72 13.71C13.79 13.24 13.88 12.8 13.98 12.39C13.995 12.33 14.0125 12.27 14.03 12.21C14.0475 12.15 14.065 12.09 14.08 12.03L14.14 11.84L14.1712 11.7368C14.261 11.4395 14.3525 11.1367 14.46 10.85C14.52 10.68 14.59 10.5 14.66 10.33C14.83 9.93 15 9.56 15.19 9.21L15.26 9.08C15.275 9.055 15.2875 9.0275 15.3 9C15.3125 8.9725 15.325 8.945 15.34 8.92C16.49 6.86 18.15 5.08 20.14 3.78C20.43 3.59 20.73 3.41 21.04 3.25L21.21 3.15C23.25 2.07 25.56 1.5 27.87 1.5H58.2C57.94 9 51.68 15.06 44.15 15.06ZM32 41.63C29.22 41.63 26.66 40.23 25.16 37.9L15.79 23.33C14.49 21.31 13.73 18.97 13.59 16.56H44.15C46.33 16.56 48.46 16.1 50.47 15.2V15.71C50.47 18.41 49.7 21.03 48.24 23.29L38.84 37.89C37.34 40.23 34.78 41.63 32 41.63ZM49.37 24.31C49.88 24.93 49.95 25.82 49.52 26.52C49.25 26.95 48.83 27.26 48.33 27.37C48.03 27.44 47.72 27.43 47.41 27.35L49.37 24.31ZM15.03 27.37C14.53 27.25 14.11 26.95 13.84 26.52C13.57 26.09 13.49 25.57 13.6 25.08C13.71 24.61 13.99 24.2 14.39 23.93L14.39 23.93C14.43 24 14.47 24.07 14.52 24.14L16.45 27.14C16.02 27.4 15.51 27.48 15.03 27.37ZM42.69 47.18L36.47 52.51C34.11 54.53 30.63 54.6 28.19 52.67L21.24 47.16C21.08 47.03 20.89 46.98 20.69 47C20.49 47.02 20.31 47.12 20.19 47.28C20.07 47.44 20.01 47.63 20.03 47.83C20.05 48.03 20.15 48.21 20.31 48.33L26.9 53.55L22.66 75.06C22.34 76.66 22.74 78.32 23.74 79.61L29.28 86.77C29.93 87.62 30.92 88.11 31.99 88.13H32.05C33.09 88.13 34.07 87.67 34.74 86.87L40.11 80.45C41.16 79.19 41.62 77.54 41.36 75.93L37.75 53.35L43.65 48.29C43.8 48.16 43.9 47.98 43.91 47.78C43.93 47.58 43.86 47.39 43.73 47.23C43.46 46.92 42.99 46.88 42.67 47.15L42.69 47.18ZM38.97 79.51L33.6 85.93C33.21 86.4 32.66 86.65 32.03 86.65H32.02C31.41 86.64 30.84 86.35 30.47 85.87L24.93 78.71C24.2 77.76 23.91 76.54 24.14 75.36L28.25 54.49C30.8 55.97 33.97 55.9 36.41 54.4L39.89 76.19C40.08 77.38 39.75 78.59 38.97 79.51ZM50.34 67.3C50.34 66.89 50.68 66.55 51.09 66.55C51.5 66.55 51.84 66.89 51.84 67.3V94.53C51.84 94.94 51.5 95.28 51.09 95.28C50.68 95.28 50.34 94.94 50.34 94.53V67.3ZM57.02 61.0601H45.38C44.97 61.0601 44.63 61.4001 44.63 61.8101C44.63 62.2201 44.97 62.5601 45.38 62.5601H57.02C57.43 62.5601 57.77 62.2201 57.77 61.8101C57.77 61.4001 57.43 61.0601 57.02 61.0601ZM26.73 3.31997C26.9 3.42997 27 3.59997 27.04 3.79997V3.80997C27.07 4.00997 27.03 4.20997 26.91 4.36997L21.9 11.51C21.76 11.71 21.53 11.83 21.29 11.83C21.14 11.83 20.99 11.78 20.86 11.69C20.69 11.57 20.59 11.4 20.55 11.2C20.51 11 20.56 10.8 20.67 10.64L25.68 3.49997C25.8 3.32997 25.97 3.21997 26.17 3.18997C26.37 3.15997 26.57 3.19997 26.73 3.31997ZM32.06 3.79997C32.02 3.59997 31.92 3.42997 31.75 3.31997C31.59 3.19997 31.39 3.15997 31.19 3.18997C30.99 3.21997 30.82 3.32997 30.7 3.49997L25.69 10.64C25.57 10.8 25.53 11 25.56 11.2C25.59 11.4 25.7 11.57 25.87 11.69C26 11.78 26.15 11.83 26.3 11.83C26.54 11.83 26.77 11.71 26.91 11.51L31.92 4.36997C32.04 4.20997 32.08 4.00997 32.05 3.80997L32.06 3.79997ZM36.76 3.31997C36.93 3.42997 37.03 3.59997 37.07 3.79997L37.06 3.80997C37.09 4.00997 37.05 4.20997 36.93 4.36997L31.92 11.51C31.78 11.71 31.55 11.83 31.31 11.83C31.16 11.83 31.01 11.78 30.88 11.69C30.71 11.57 30.6 11.4 30.57 11.2C30.54 11 30.58 10.8 30.7 10.64L35.71 3.49997C35.83 3.32997 36 3.21997 36.2 3.18997C36.4 3.15997 36.6 3.19997 36.76 3.31997ZM42.08 3.79997C42.04 3.59997 41.94 3.42997 41.77 3.31997C41.61 3.19997 41.41 3.15997 41.21 3.18997C41.01 3.21997 40.84 3.32997 40.72 3.49997L35.71 10.64C35.59 10.8 35.55 11 35.58 11.2C35.61 11.4 35.72 11.57 35.89 11.69C36.02 11.78 36.17 11.83 36.32 11.83C36.56 11.83 36.79 11.71 36.93 11.51L41.94 4.36997C42.06 4.20997 42.1 4.00997 42.07 3.80997L42.08 3.79997ZM45.74 3.49994C45.86 3.32994 46.03 3.21994 46.23 3.18994L46.22 3.19994C46.42 3.16994 46.62 3.20994 46.78 3.32994C46.95 3.43994 47.05 3.60994 47.09 3.80994C47.12 4.00994 47.08 4.20994 46.96 4.36994L41.95 11.5099C41.81 11.7099 41.58 11.8299 41.34 11.8299C41.19 11.8299 41.04 11.7799 40.91 11.6899C40.74 11.5699 40.63 11.3999 40.6 11.1999C40.57 10.9999 40.61 10.7999 40.73 10.6399L45.74 3.49994Z" fill="white"/>
</svg>
