<svg width="172" height="105" viewBox="0 0 172 105" fill="none" xmlns="http://www.w3.org/2000/svg">
<path id="Union" fill-rule="evenodd" clip-rule="evenodd" d="M122.76 0H8.31C3.73 0 0 3.73 0 8.31V96.01C0 100.59 3.73 104.32 8.31 104.32H122.76C127.34 104.32 131.07 100.59 131.07 96.01V83.74C131.07 83.33 130.73 82.99 130.32 82.99C129.91 82.99 129.57 83.33 129.57 83.74V90.49H1.5V15.28H129.57V20.71C129.57 21.12 129.91 21.46 130.32 21.46C130.73 21.46 131.07 21.12 131.07 20.71V8.31C131.07 3.73 127.34 0 122.76 0ZM8.31 1.5H122.76C126.52 1.5 129.57 4.56 129.57 8.31V13.78H1.5V8.31C1.5 4.56 4.56 1.5 8.31 1.5ZM122.76 102.82H8.31C4.55 102.82 1.5 99.76 1.5 96.01V91.99H129.57V96.01C129.57 99.77 126.51 102.82 122.76 102.82ZM58.15 8.7998H72.92C73.33 8.7998 73.67 8.4598 73.67 8.0498C73.67 7.6398 73.33 7.2998 72.92 7.2998H58.15C57.74 7.2998 57.4 7.6398 57.4 8.0498C57.4 8.4598 57.74 8.7998 58.15 8.7998ZM62.69 96.5702C62.69 95.0002 63.97 93.7202 65.54 93.7202C67.11 93.7202 68.39 95.0002 68.39 96.5702C68.39 98.1402 67.11 99.4202 65.54 99.4202C63.97 99.4202 62.69 98.1402 62.69 96.5702ZM64.19 96.5802C64.19 97.3202 64.79 97.9302 65.54 97.9302C66.28 97.9302 66.89 97.3202 66.89 96.5802C66.89 95.8402 66.28 95.2302 65.54 95.2302C64.8 95.2302 64.19 95.8402 64.19 96.5802ZM52.63 23.6802H12.56V50.1002H52.63V23.6802ZM14.06 48.5902V25.1802H51.13V48.6002H14.06V48.5902ZM52.63 82.0899H12.56V55.6699H52.63V82.0899ZM51.13 80.5899V57.1699H14.06V80.5899H51.13ZM98.3 29.1001C98.3 28.6901 97.96 28.3501 97.55 28.3501H58.15C57.74 28.3501 57.4 28.6901 57.4 29.1001C57.4 29.5101 57.74 29.8501 58.15 29.8501H97.55C97.96 29.8501 98.3 29.5101 98.3 29.1001ZM80.79 37.6401H58.15C57.74 37.6401 57.4 37.3001 57.4 36.8901C57.4 36.4801 57.74 36.1401 58.15 36.1401H80.79C81.2 36.1401 81.54 36.4801 81.54 36.8901C81.54 37.3001 81.2 37.6401 80.79 37.6401ZM58.15 46.1401H72.92C73.33 46.1401 73.67 45.8001 73.67 45.3901C73.67 44.9801 73.33 44.6401 72.92 44.6401H58.15C57.74 44.6401 57.4 44.9801 57.4 45.3901C57.4 45.8001 57.74 46.1401 58.15 46.1401ZM71.57 59.54V65.69H59.57V59.54H71.57ZM70.07 64.19V61.04H61.07V64.19H70.07ZM83.87 70.9902C83.87 70.5802 83.53 70.2402 83.12 70.2402H60.31C59.9 70.2402 59.56 70.5802 59.56 70.9902C59.56 71.4002 59.9 71.7402 60.31 71.7402H83.12C83.53 71.7402 83.87 71.4002 83.87 70.9902ZM59.57 77.5C59.57 77.09 59.91 76.75 60.32 76.75H72.92C73.33 76.75 73.67 77.09 73.67 77.5C73.67 77.91 73.33 78.25 72.92 78.25H60.32C59.91 78.25 59.57 77.91 59.57 77.5ZM145.42 24.8801L137.36 32.9401L155.82 51.4101L137.36 69.8701L145.42 77.9301L171.95 51.4001L145.42 24.8701V24.8801ZM157.95 51.4101L139.49 32.9401L145.43 27.0001L169.83 51.4101L145.43 75.8101L139.49 69.8701L157.95 51.4101ZM104.82 51.4201L123.28 69.8801V69.8901L115.22 77.9501L88.69 51.4201L115.22 24.8901L123.28 32.9501L104.82 51.4201ZM121.16 32.9501L115.22 27.0101L90.82 51.4201L115.22 75.8201L121.16 69.8801L102.7 51.4201L121.16 32.9501ZM127.29 52.1602C127.29 51.7502 126.95 51.4102 126.54 51.4102H118.51C118.1 51.4102 117.76 51.7502 117.76 52.1602C117.76 52.5702 118.1 52.9102 118.51 52.9102H126.54C126.95 52.9102 127.29 52.5702 127.29 52.1602ZM142.63 51.4102C143.04 51.4102 143.38 51.7502 143.38 52.1602C143.38 52.5702 143.04 52.9102 142.63 52.9102H134.6C134.19 52.9102 133.85 52.5702 133.85 52.1602C133.85 51.7502 134.19 51.4102 134.6 51.4102H142.63Z" fill="white"/>
</svg>
