<svg width="118" height="105" viewBox="0 0 118 105" fill="none" xmlns="http://www.w3.org/2000/svg">
<path id="Union" fill-rule="evenodd" clip-rule="evenodd" d="M117.91 75.48V82.97L117.92 83H107.33L105.99 86.58L111.94 92.88L105.1 99.05L100.09 94.12L97.88 96.3L98.12 104.85H90.59C90.18 104.85 89.84 104.51 89.84 104.1V104.08V104.06V66.74C89.84 62.28 86.83 58.36 82.53 57.19L76.77 55.63C76.28 59.16 67.44 61 58.7201 61C50 61 41.21 59.16 40.68 55.66L35.32 57.15C31.06 58.34 28.08 62.26 28.08 66.68V104.1C28.08 104.51 27.74 104.85 27.33 104.85H19.8L20.0401 96.3L17.83 94.12L12.82 99.05L5.98005 92.88L11.93 86.58L10.59 83H0.0500488V75.51L9.56005 74.35L10.52 72.64L5.93005 64.31L11.11 59.54L18 64.96L20.08 64.17V54.48H28.1101V61.06C29.57 58.5 31.9901 56.53 34.9501 55.7L43.3601 53.36C45.57 52.74 47.12 50.71 47.12 48.41L47.2701 42.16L46.84 41.75C45.2001 40.17 43.8101 38.27 42.7001 36.14C42.32 36.28 41.9401 36.36 41.5401 36.36C40.18 36.36 38.9501 35.56 38.41 34.31C38.05 33.47 38.04 32.55 38.37 31.7C38.7001 30.85 39.35 30.18 40.18 29.82C40.25 29.79 40.32 29.77 40.39 29.77C40.24 29.14 40.12 28.5 40.0201 27.85C37.43 27.49 35.42 25.29 35.42 22.6V8.29C35.42 7.33 35.87 6.46 36.66 5.9C37.4501 5.34 38.4201 5.2 39.3301 5.52C39.9701 5.75 40.6901 5.5 41.0601 4.92C43.0401 1.84 46.41 0 50.07 0H66.99C74.31 0 80.26 5.95 80.26 13.27V20.65C80.26 21.06 79.9201 21.4 79.51 21.4C79.1 21.4 78.76 21.06 78.76 20.65V13.27C78.76 6.78 73.48 1.5 66.99 1.5H50.07C46.92 1.5 44.0201 3.08 42.32 5.73C41.57 6.89 40.1301 7.39 38.8301 6.93C38.3801 6.77 37.9001 6.84 37.5201 7.11C37.1301 7.38 36.91 7.81 36.91 8.28V22.61C36.91 24.39 38.14 25.88 39.8 26.3C39.67 25.15 39.6 23.98 39.6 22.79C39.6 22.38 39.94 22.04 40.35 22.04C40.76 22.04 41.1 22.38 41.1 22.79C41.1 24.15 41.1901 25.5 41.3601 26.8C41.43 26.91 41.48 27.04 41.48 27.18C41.48 27.2186 41.4718 27.2531 41.4632 27.2888C41.4584 27.3085 41.4536 27.3286 41.4501 27.35C42.2601 32.72 44.5 37.43 47.87 40.67L48.7701 41.53L48.6 48.42C48.6 51.38 46.6001 54 43.7401 54.8L42.1301 55.25C42.1301 55.259 42.1321 55.268 42.1343 55.2779C42.137 55.29 42.14 55.3035 42.14 55.32C42.14 57.06 48.4501 59.49 58.73 59.49C69.01 59.49 75.32 57.06 75.32 55.32C75.32 55.29 75.34 55.23 75.34 55.23L73.66 54.77C70.7801 53.98 68.76 51.35 68.76 48.36V41.34L69.64 40.52C73.81 36.44 76.26 30.17 76.37 23.28L49.59 12.52C49.46 14.03 48.9501 17.03 47.05 18.96C45.8801 20.15 44.3701 20.75 42.5801 20.75C42.1701 20.75 41.8301 20.41 41.8301 20C41.8301 19.59 42.1701 19.25 42.5801 19.25C43.9601 19.25 45.1 18.8 45.98 17.91C48.18 15.68 48.1301 11.44 48.1301 11.44V10.31L77.88 22.26V22.77C77.88 25.21 77.59 27.58 77.06 29.83C77.0679 29.8261 77.0743 29.8206 77.0803 29.8153C77.0895 29.8073 77.0979 29.8 77.11 29.8C77.3 29.72 77.51 29.72 77.69 29.8C78.5201 30.17 79.17 30.83 79.5 31.68C79.84 32.53 79.82 33.46 79.46 34.29C78.92 35.54 77.69 36.34 76.33 36.34C75.86 36.34 75.4 36.25 74.97 36.06C74.91 36.03 74.86 35.99 74.81 35.95C73.7 38.09 72.32 40 70.68 41.6L70.26 41.99V48.36C70.26 50.68 71.82 52.71 74.05 53.32L82.93 55.72C85.94 56.53 88.38 58.51 89.85 61.09V54.45H97.88V64.14L99.96 64.93L106.85 59.51L112.03 64.28L107.44 72.61L108.4 74.32L117.91 75.48ZM109.78 92.76L104.24 86.9L106.28 81.47H116.41V76.8L107.46 75.71L105.72 72.6L110.14 64.58L106.76 61.47L100.21 66.63L96.36 65.17V55.94H91.33V70.46C96.39 70.46 100.51 74.58 100.51 79.64C100.51 84.7 96.39 88.82 91.33 88.82V103.31H96.57L96.36 95.65L100.08 91.97L105.13 96.95L109.78 92.76ZM91.34 87.33C95.57 87.33 99.02 83.89 99.02 79.65V79.64C99.02 75.41 95.58 71.96 91.34 71.96V87.33ZM78.06 33.69C78.48 32.73 78.03 31.6 77.07 31.18H77.08C76.9501 31.12 76.85 31.02 76.77 30.91C76.41 32.21 75.95 33.46 75.42 34.65C75.434 34.6535 75.4491 34.6558 75.4647 34.6581C75.4937 34.6624 75.524 34.667 75.55 34.68C76.5201 35.1 77.64 34.65 78.06 33.69ZM39.76 33.69C40.14 34.57 41.11 35 42.01 34.76H42.0201C41.5101 33.63 41.08 32.43 40.73 31.19C39.78 31.62 39.34 32.73 39.76 33.69ZM12.78 96.96L17.83 91.98L21.55 95.66L21.34 103.32H26.58V88.83C21.51 88.83 17.39 84.71 17.39 79.65C17.39 74.59 21.5201 70.47 26.58 70.47V55.95H21.55V65.18L17.7001 66.64L17.59 66.55L11.15 61.48L7.77005 64.59L12.19 72.61L10.45 75.72L1.50005 76.81V81.48H11.63L13.67 86.91L8.13005 92.77L12.78 96.96ZM18.88 79.65C18.88 83.88 22.33 87.33 26.57 87.33V71.97C22.33 71.97 18.88 75.42 18.88 79.65ZM43.7801 74.73C43.3701 74.73 43.0301 75.07 43.0301 75.48V102.72C43.0301 103.13 43.3701 103.47 43.7801 103.47C44.1901 103.47 44.5301 103.13 44.5301 102.72V75.48C44.5301 75.07 44.1901 74.73 43.7801 74.73ZM74.0301 74.73C73.6201 74.73 73.2801 75.07 73.2801 75.48V102.72C73.2801 103.13 73.6201 103.47 74.0301 103.47C74.4401 103.47 74.7801 103.13 74.7801 102.72V75.48C74.7801 75.07 74.4401 74.73 74.0301 74.73Z" fill="white"/>
</svg>
