<svg width="104" height="101" viewBox="0 0 104 101" fill="none" xmlns="http://www.w3.org/2000/svg">
<path id="Union" fill-rule="evenodd" clip-rule="evenodd" d="M103.14 60.28C102.35 57.36 99.63 55.32 96.52 55.32H95C94.36 55.32 93.83 54.8 93.82 54.16C94.89 53.76 97.15 52.7 98.41 50.53C99.29 49.13 99.76 47.51 99.76 45.86C99.76 43.24 98.6 40.77 96.58 39.09C94.56 37.41 91.89 36.74 89.27 37.23C85.91 37.87 83.15 40.54 82.41 43.88C81.9 46.19 82.31 48.55 83.57 50.56C85.35 53.03 87.47 53.91 88.47 54.21C88.43 54.83 87.92 55.32 87.29 55.32H85.44C83.81 55.32 82.23 55.9 80.99 56.92C81.05 56.47 81.09 56.06 81.12 55.67C81.78 47.43 78.97 39.23 73.43 33.15V26.71C73.43 26.3 73.09 25.96 72.68 25.96C72.27 25.96 71.93 26.3 71.93 26.71V31.61C67.49 27.39 61.97 24.69 55.91 23.76C56.77 21.94 58.68 20.74 60.76 20.74H62.61C64.09 20.74 65.29 19.54 65.29 18.06V16.89L64.64 16.8C64.61 16.8 62.1 16.39 60.13 13.65C59.1 12.01 58.77 10.06 59.19 8.13998C59.24 7.91998 59.3 7.68998 59.4 7.41998H64.03C64.71 7.41998 65.37 7.59998 65.95 7.94998C67.32 8.76998 69.1 8.66998 70.37 7.70998C71.41 6.91998 72.08 6.40998 72.53 6.03998C73.21 7.17998 73.57 8.45998 73.57 9.77998C73.57 11.1 73.18 12.49 72.44 13.67C71.09 15.99 68.21 16.81 68.18 16.81L67.63 16.96V18.05C67.63 19.53 68.83 20.73 70.31 20.73H71.82C74.25 20.73 76.38 22.31 76.99 24.58C77.2 25.34 77.3 26.13 77.3 26.93V34.78C77.3 35.19 77.64 35.53 78.05 35.53C78.46 35.53 78.8 35.19 78.8 34.78V26.93C78.8 26 78.68 25.08 78.44 24.19C77.65 21.27 74.93 19.23 71.82 19.23H70.31C69.66 19.23 69.14 18.71 69.13 18.07C70.2 17.67 72.46 16.61 73.72 14.44C74.6 13.04 75.07 11.42 75.07 9.76998C75.07 7.14998 73.91 4.67998 71.89 2.99998C69.87 1.32998 67.21 0.649979 64.58 1.13998C61.22 1.77998 58.46 4.44998 57.72 7.78998C57.21 10.1 57.62 12.46 58.88 14.47C60.66 16.94 62.78 17.82 63.78 18.12C63.74 18.74 63.23 19.23 62.6 19.23H60.75C57.9 19.23 55.35 20.96 54.36 23.56C52.53 23.38 50.7 23.36 48.94 23.5C37.51 24.42 27.26 32.32 23.33 43.21C22.11 42.26 20.6 41.74 19.05 41.74H17.53C16.89 41.74 16.36 41.22 16.35 40.58C17.42 40.18 19.68 39.12 20.94 36.95C21.82 35.54 22.29 33.93 22.29 32.28C22.29 29.66 21.13 27.19 19.11 25.52C17.09 23.84 14.43 23.17 11.8 23.66C8.43999 24.3 5.67999 26.97 4.93999 30.31C4.42999 32.62 4.83999 34.98 6.09999 36.99C7.87999 39.46 9.99999 40.34 11 40.64C10.96 41.26 10.45 41.75 9.81999 41.75H7.96999C4.85999 41.75 2.13999 43.79 1.34999 46.71C1.10999 47.6 0.98999 48.52 0.98999 49.45V57.3C0.98999 57.71 1.32999 58.05 1.73999 58.05C2.14999 58.05 2.48999 57.71 2.48999 57.3V49.45C2.48999 48.65 2.58999 47.86 2.79999 47.1C3.41999 44.83 5.53999 43.25 7.96999 43.25H9.81999C11.3 43.25 12.5 42.05 12.5 40.57V39.4L11.85 39.31C11.82 39.31 9.30999 38.9 7.33999 36.16C6.30999 34.52 5.97999 32.57 6.39999 30.65C6.44999 30.43 6.51999 30.2 6.60999 29.93H11.24C11.91 29.93 12.58 30.11 13.16 30.46C14.53 31.28 16.31 31.18 17.59 30.22C17.8152 30.0478 18.0238 29.8887 18.2172 29.7413L18.2192 29.7397L18.2219 29.7377L18.222 29.7376C18.9019 29.2193 19.3924 28.8454 19.75 28.55C20.43 29.69 20.79 30.97 20.79 32.29C20.79 33.61 20.4 35 19.66 36.18C18.31 38.5 15.43 39.32 15.4 39.32L14.85 39.47V40.56C14.85 42.04 16.05 43.24 17.53 43.24H19.05C20.45 43.24 21.82 43.79 22.82 44.75C22.24 46.69 21.86 48.68 21.69 50.65C21.07 58.08 23.19 65.4 27.69 71.28L8.18999 90.8C7.11999 91.87 6.52999 93.29 6.52999 94.8C6.52999 96.31 7.11999 97.73 8.18999 98.8C9.25999 99.87 10.68 100.46 12.19 100.46C13.7 100.46 15.12 99.87 16.19 98.8L36.15 78.84C41.71 82.16 48.09 83.55 54.6 82.88C66.98 81.59 77.33 72.6 80.33 60.52C81 58.34 83.1 56.82 85.45 56.82H87.3C88.78 56.82 89.98 55.62 89.98 54.14V52.97L89.33 52.88C89.3 52.88 86.79 52.47 84.82 49.73C83.79 48.09 83.46 46.14 83.88 44.22C83.93 44 84 43.77 84.09 43.5H88.72C89.4 43.5 90.06 43.68 90.64 44.03C92.01 44.85 93.8 44.75 95.06 43.79C96.18 42.94 96.82 42.45 97.22 42.12C97.9 43.26 98.26 44.54 98.26 45.86C98.26 47.18 97.87 48.57 97.13 49.75C95.78 52.07 92.9 52.89 92.87 52.89L92.32 53.04V54.13C92.32 55.61 93.52 56.81 95 56.81H96.52C98.95 56.81 101.08 58.39 101.69 60.66C101.9 61.42 102 62.21 102 63.01V70.86C102 71.27 102.34 71.61 102.75 71.61C103.16 71.61 103.5 71.27 103.5 70.86V63.01C103.5 62.08 103.38 61.16 103.14 60.27V60.28ZM95.63 40.25C95.86 40.44 96.09 40.66 96.32 40.92C95.96 41.21 95.31 41.71 94.15 42.59C93.35 43.2 92.27 43.26 91.41 42.74C90.6 42.25 89.67 41.99 88.72 41.99H84.81C85.88 40.29 87.63 39.07 89.56 38.71C91.74 38.29 93.95 38.86 95.63 40.25ZM78.82 60.38C75.89 71.73 66.09 80.16 54.44 81.38C48.05 82.05 41.82 80.62 36.43 77.25L35.92 76.93L15.12 97.73C14.33 98.51 13.29 98.95 12.18 98.95C11.07 98.95 10.03 98.52 9.23999 97.73C8.45999 96.94 8.01999 95.9 8.01999 94.79C8.01999 93.68 8.44999 92.64 9.23999 91.85L29.7 71.39L29.28 70.87C24.74 65.2 22.58 58.06 23.19 50.77C24.33 37.17 35.45 26.08 49.06 24.99C49.79 24.93 50.52 24.9 51.27 24.9C52.39 24.9 53.52 24.97 54.66 25.1H54.7H54.74C61.04 25.85 66.97 28.72 71.42 33.17C77.3 39.05 80.29 47.19 79.63 55.52C79.51 57.03 79.25 58.59 78.85 60.16L78.82 60.24C78.8 60.3 78.8 60.35 78.82 60.35V60.38ZM64.88 2.62998C67.06 2.21998 69.27 2.77998 70.95 4.16998C71.18 4.35998 71.41 4.57998 71.64 4.83998C71.19 5.19998 70.46 5.75998 69.47 6.50998C68.67 7.11998 67.59 7.17998 66.73 6.65998C65.92 6.16998 64.99 5.91998 64.04 5.91998H60.13C61.2 4.21998 62.94 2.99998 64.88 2.63998V2.62998ZM18.17 26.68C18.4 26.87 18.63 27.09 18.86 27.35C18.41 27.71 17.68 28.27 16.69 29.02C15.89 29.63 14.81 29.69 13.94 29.17C13.13 28.68 12.2 28.43 11.25 28.43H7.33999C8.40999 26.73 10.15 25.51 12.09 25.15C14.27 24.74 16.49 25.3 18.16 26.69L18.17 26.68ZM43.29 64.59C43.29 64.18 43.63 63.84 44.04 63.84C44.45 63.84 44.79 64.18 44.79 64.59V72.67C44.79 73.08 44.45 73.42 44.04 73.42C43.63 73.42 43.29 73.08 43.29 72.67V64.59ZM58.26 72.67C58.26 73.08 57.92 73.42 57.51 73.42C57.1 73.42 56.76 73.08 56.76 72.67V64.59C56.76 64.18 57.1 63.84 57.51 63.84C57.92 63.84 58.26 64.18 58.26 64.59V72.67ZM96.61 62.79C96.61 62.38 96.95 62.04 97.36 62.04C97.77 62.04 98.11 62.38 98.11 62.79V70.87C98.11 71.28 97.77 71.62 97.36 71.62C96.95 71.62 96.61 71.28 96.61 70.87V62.79ZM83.9 62.04C83.49 62.04 83.15 62.38 83.15 62.79V70.87C83.15 71.28 83.49 71.62 83.9 71.62C84.31 71.62 84.65 71.28 84.65 70.87V62.79C84.65 62.38 84.31 62.04 83.9 62.04ZM20.65 49.22V57.3C20.65 57.71 20.31 58.05 19.9 58.05C19.49 58.05 19.15 57.71 19.15 57.3V49.22C19.15 48.81 19.49 48.47 19.9 48.47C20.31 48.47 20.65 48.81 20.65 49.22ZM7.19 57.3V49.22C7.19 48.81 6.85 48.47 6.44 48.47C6.03 48.47 5.69 48.81 5.69 49.22V57.3C5.69 57.71 6.03 58.05 6.44 58.05C6.85 58.05 7.19 57.71 7.19 57.3ZM27.45 53.2301C27.45 40.1801 38.07 29.5601 51.12 29.5601C64.17 29.5601 74.79 40.1801 74.79 53.2301C74.79 66.2801 64.17 76.9001 51.12 76.9001C38.07 76.9001 27.45 66.2801 27.45 53.2301ZM49.69 40.5201C47.75 40.8801 46.01 42.1001 44.94 43.8001H48.85C49.8 43.8001 50.73 44.0601 51.54 44.5501C52.4 45.0701 53.48 45.0101 54.28 44.4001C55.27 43.6501 56 43.0901 56.45 42.7301C56.22 42.4701 55.99 42.2501 55.76 42.0601C54.08 40.6701 51.87 40.1001 49.69 40.5201ZM40.41 62.4701C40.2 63.2301 40.1 64.0201 40.1 64.8201L40.09 64.8001V72.4301C43.44 74.3601 47.25 75.3801 51.11 75.3801C54.97 75.3801 58.78 74.3701 62.13 72.4401V64.8101C62.13 64.0101 62.03 63.2201 61.82 62.4601C61.21 60.1901 59.08 58.6101 56.65 58.6101H55.13C53.65 58.6101 52.45 57.4101 52.45 55.9301V54.8401L53 54.6901C53.03 54.6901 55.91 53.8701 57.26 51.5501C58 50.3701 58.39 48.9801 58.39 47.6601C58.39 46.3401 58.03 45.0601 57.35 43.9201C56.9 44.2901 56.23 44.8001 55.19 45.5901C53.92 46.5501 52.14 46.6501 50.77 45.8301C50.19 45.4801 49.53 45.3001 48.85 45.3001H44.22C44.12 45.5701 44.06 45.8001 44.01 46.0201C43.59 47.9401 43.92 49.8901 44.95 51.5301C46.92 54.2701 49.43 54.6801 49.46 54.6801L50.11 54.7701V55.9401C50.11 57.4201 48.91 58.6201 47.43 58.6201H45.58C43.15 58.6201 41.03 60.2001 40.41 62.4701ZM56.66 57.1201C59.77 57.1201 62.49 59.1601 63.28 62.0801C63.52 62.9701 63.64 63.8901 63.64 64.8201V71.5001C69.69 67.3501 73.29 60.5501 73.29 53.2201C73.29 41.0001 63.34 31.0501 51.12 31.0501C38.9 31.0501 28.95 41.0001 28.95 53.2201C28.95 60.5501 32.55 67.3501 38.6 71.5001V64.8201C38.6 63.8901 38.72 62.9701 38.96 62.0801C39.75 59.1601 42.47 57.1201 45.58 57.1201H47.43C48.06 57.1201 48.57 56.6301 48.61 56.0101C47.61 55.7101 45.49 54.8301 43.71 52.3601C42.45 50.3501 42.04 47.9901 42.55 45.6801C43.29 42.3401 46.05 39.6601 49.41 39.0301C52.03 38.5401 54.7 39.2101 56.72 40.8901C58.74 42.5701 59.9 45.0401 59.9 47.6601C59.9 49.3101 59.43 50.9201 58.55 52.3301C57.29 54.5001 55.03 55.5601 53.96 55.9601C53.97 56.6001 54.5 57.1201 55.14 57.1201H56.66Z" fill="white"/>
</svg>
