<svg width="66" height="66" viewBox="0 0 66 66" fill="none" xmlns="http://www.w3.org/2000/svg">
<path id="Union" fill-rule="evenodd" clip-rule="evenodd" d="M44.03 1.94C44.06 1.95 44.14 1.98 44.14 1.98L44.15 2C57.1 6.7 65.82 19.13 65.82 32.92C65.82 47.85 55.73 60.94 41.29 64.74C38.53 65.46 35.73 65.82 32.91 65.82C30.53 65.82 28.12 65.55 25.76 65.03C25.71 65.02 25.67 65.01 25.62 64.99C10.79 61.65 0 48.15 0 32.91C0 19.12 8.72 6.69 21.7 1.97C21.71 1.96 21.76 1.94 21.79 1.94C25.36 0.65 29.11 0 32.91 0C36.71 0 40.46 0.65 44.03 1.94ZM17.43 50.02H21.54V50.01C24.37 50.01 26.67 52.31 26.67 55.14V63.68C31.14 64.59 35.82 64.51 40.27 63.43V44.59C40.27 41.76 42.57 39.46 45.4 39.46H47.34C47.68 38.02 48.96 36.99 50.46 36.99C52.24 36.99 53.68 38.43 53.68 40.21C53.68 41.99 52.24 43.43 50.46 43.43C48.96 43.43 47.68 42.4 47.34 40.96H45.4C43.4 40.96 41.77 42.59 41.77 44.59V63.03C55.06 59.12 64.31 46.78 64.31 32.91C64.31 20.17 56.39 8.5 44.56 3.75V16.59C44.56 18.59 46.19 20.22 48.19 20.22H51.1C51.44 18.78 52.72 17.75 54.22 17.75C56 17.75 57.44 19.19 57.44 20.97C57.44 22.75 55.99 24.19 54.22 24.19C52.72 24.19 51.44 23.16 51.1 21.72H48.19C45.36 21.72 43.06 19.42 43.06 16.59V3.2C40.04 2.16 36.88 1.6 33.66 1.52V17.84C35.1 18.18 36.13 19.46 36.13 20.96C36.13 22.74 34.69 24.18 32.91 24.18C31.13 24.18 29.69 22.73 29.69 20.96C29.69 19.46 30.72 18.18 32.16 17.84V1.51C28.94 1.59 25.78 2.15 22.75 3.19V16.58C22.75 19.41 20.45 21.71 17.62 21.71H17.43C17.09 23.15 15.81 24.18 14.31 24.18C12.53 24.18 11.09 22.74 11.09 20.96C11.09 19.18 12.54 17.74 14.31 17.74C15.81 17.74 17.09 18.77 17.43 20.21H17.62C19.62 20.21 21.25 18.58 21.25 16.58V3.75C9.42 8.5 1.5 20.17 1.5 32.91C1.5 47.33 11.22 59.8 25.17 63.34V55.15C25.17 53.15 23.54 51.52 21.54 51.52H17.43C17.09 52.96 15.81 53.99 14.31 53.99C12.53 53.99 11.09 52.55 11.09 50.77C11.09 48.99 12.54 47.55 14.31 47.55C15.81 47.55 17.09 48.58 17.43 50.02ZM52.68 20.21H54.22C54.63 20.21 54.97 20.55 54.97 20.96C54.97 21.37 54.63 21.71 54.22 21.71H52.68C52.96 22.29 53.56 22.68 54.22 22.68C55.17 22.68 55.94 21.91 55.94 20.96C55.94 20.01 55.17 19.24 54.22 19.24C53.56 19.24 52.96 19.63 52.68 20.21ZM31.19 20.96C31.19 21.91 31.96 22.68 32.91 22.68C33.86 22.68 34.63 21.91 34.63 20.96C34.63 20.3 34.24 19.7 33.66 19.42V20.54C33.66 20.95 33.32 21.29 32.91 21.29C32.5 21.29 32.16 20.95 32.16 20.54V19.42C31.58 19.7 31.19 20.3 31.19 20.96ZM15.86 21.71H14.32C13.91 21.71 13.57 21.37 13.57 20.96C13.57 20.55 13.91 20.21 14.32 20.21H15.86C15.58 19.63 14.98 19.24 14.32 19.24C13.37 19.24 12.6 20.01 12.6 20.96C12.6 21.91 13.37 22.68 14.32 22.68C14.98 22.68 15.58 22.29 15.86 21.71ZM15.86 51.52H14.32C13.91 51.52 13.57 51.18 13.57 50.77C13.57 50.36 13.91 50.02 14.32 50.02H15.86C15.58 49.44 14.98 49.05 14.32 49.05C13.37 49.05 12.6 49.82 12.6 50.77C12.6 51.72 13.37 52.49 14.32 52.49C14.98 52.49 15.58 52.1 15.86 51.52ZM48.93 39.46H50.47C50.88 39.46 51.22 39.8 51.22 40.21C51.22 40.62 50.88 40.96 50.47 40.96H48.93C49.21 41.54 49.81 41.93 50.47 41.93C51.42 41.93 52.19 41.16 52.19 40.21C52.19 39.26 51.42 38.49 50.47 38.49C49.81 38.49 49.21 38.88 48.93 39.46ZM32.16 43.47V39.22C32.16 37.22 30.53 35.59 28.53 35.59H12.41C11.96 36.89 10.74 37.78 9.36999 37.78C7.58999 37.78 6.14999 36.34 6.14999 34.56C6.14999 32.78 7.59999 31.34 9.36999 31.34C10.96 31.34 12.31 32.53 12.54 34.09H28.53C31.36 34.09 33.66 36.39 33.66 39.22V43.47C33.66 43.88 33.32 44.22 32.91 44.22C32.5 44.22 32.16 43.88 32.16 43.47ZM10.75 35.59H9.37999C8.96999 35.59 8.62999 35.25 8.62999 34.84C8.62999 34.43 8.96999 34.09 9.37999 34.09H11.02C10.82 33.36 10.15 32.84 9.37999 32.84C8.42999 32.84 7.65999 33.61 7.65999 34.56C7.65999 35.51 8.42999 36.28 9.37999 36.28C9.91999 36.28 10.43 36.02 10.75 35.59ZM32.91 45.33C32.5 45.33 32.16 45.67 32.16 46.08V48.3C32.16 48.71 32.5 49.05 32.91 49.05C33.32 49.05 33.66 48.71 33.66 48.3V46.08C33.66 45.67 33.32 45.33 32.91 45.33ZM32.16 51.01C32.16 50.6 32.5 50.26 32.91 50.26C33.32 50.26 33.66 50.6 33.66 51.01V53.23C33.66 53.64 33.32 53.98 32.91 53.98C32.5 53.98 32.16 53.64 32.16 53.23V51.01ZM32.91 55.1899C32.5 55.1899 32.16 55.5299 32.16 55.9399V58.1599C32.16 58.5699 32.5 58.9099 32.91 58.9099C33.32 58.9099 33.66 58.5699 33.66 58.1599V55.9399C33.66 55.5299 33.32 55.1899 32.91 55.1899ZM32.16 60.87C32.16 60.46 32.5 60.12 32.91 60.12C33.32 60.12 33.66 60.46 33.66 60.87V63.09C33.66 63.5 33.32 63.84 32.91 63.84C32.5 63.84 32.16 63.5 32.16 63.09V60.87Z" fill="white"/>
</svg>
