<svg width="80" height="116" viewBox="0 0 80 116" fill="none" xmlns="http://www.w3.org/2000/svg">
<path id="Union" fill-rule="evenodd" clip-rule="evenodd" d="M67.0518 11.3903C67.2518 11.3903 67.4518 11.4603 67.6018 11.6103C75.0718 19.0803 79.1818 29.0203 79.1818 39.6103C79.1818 50.2003 75.0718 60.1403 67.6018 67.6103C67.4618 67.7503 67.2718 67.8303 67.0718 67.8303C66.8718 67.8303 66.6818 67.7503 66.5418 67.6103C66.2518 67.3203 66.2518 66.8403 66.5418 66.5503C81.3918 51.6903 81.3918 27.5203 66.5418 12.6703C66.4318 12.5603 66.3818 12.4203 66.3518 12.2803L56.7518 10.7903L59.6418 7.20032C44.7118 -2.06968 25.2218 0.110324 12.6618 12.6803C12.5518 12.7903 12.4218 12.8403 12.2718 12.8703L10.7618 22.4603L7.1918 19.5703C3.2318 25.9503 1.2718 33.2803 1.5218 40.8703C1.5418 41.2803 1.2118 41.6303 0.801798 41.6403H0.771798C0.361798 41.6403 0.031798 41.3203 0.021798 40.9103C-0.238202 32.9603 1.8318 25.2903 6.0118 18.6203L2.3318 15.6403L11.3818 12.1603C11.3818 11.9603 11.4518 11.7603 11.6018 11.6103C24.6918 -1.48968 45.0418 -3.71968 60.5918 6.02032L63.5518 2.34032L67.0518 11.3903ZM21.2618 27.3403V32.1103H24.2918C24.6718 34.5403 25.6318 36.8703 27.0918 38.8703L24.9518 41.0103L28.3218 44.3803L30.4618 42.2403C32.4518 43.7003 34.7818 44.6603 37.2218 45.0403V48.0603H41.9818V45.0403C44.4218 44.6603 46.7418 43.7003 48.7418 42.2403L50.8818 44.3803L54.2518 41.0103L52.1118 38.8703C53.5718 36.8803 54.5418 34.5503 54.9118 32.1103H57.9418V27.3403H54.9118C54.5318 24.9003 53.5718 22.5803 52.1118 20.5803L54.2518 18.4403L50.8818 15.0703L48.7418 17.2103C46.7518 15.7503 44.4218 14.7803 41.9818 14.4103V11.3803H37.2218V14.4103C34.7818 14.7903 32.4618 15.7503 30.4618 17.2103L28.3218 15.0703L24.9518 18.4403L27.0918 20.5803C25.6318 22.5803 24.6718 24.9003 24.2918 27.3403H21.2618ZM25.6118 28.8403L25.6818 28.1703C25.9718 25.5403 27.0018 23.0603 28.6618 20.9803L29.0818 20.4603L27.0618 18.4403L28.3118 17.1903L30.3318 19.2103L30.8518 18.7903C32.9218 17.1303 35.4118 16.1003 38.0418 15.8103L38.7118 15.7403V12.8903H40.4718V15.7403L41.1418 15.8103C43.7718 16.1003 46.2618 17.1303 48.3318 18.7903L48.8518 19.2103L50.8718 17.1903L52.1218 18.4403L50.1018 20.4603L50.5218 20.9803C52.1818 23.0503 53.2118 25.5403 53.5018 28.1703L53.5718 28.8403H56.4218V30.6103H53.5718L53.5018 31.2803C53.2118 33.9103 52.1818 36.4003 50.5218 38.4703L50.1018 38.9903L52.1218 41.0103L50.8718 42.2603L48.8518 40.2403L48.3318 40.6603C46.2618 42.3203 43.7718 43.3503 41.1418 43.6403L40.4718 43.7103V46.5603H38.7118V43.7103L38.0418 43.6403C35.4118 43.3503 32.9218 42.3203 30.8518 40.6603L30.3318 40.2403L28.3118 42.2603L27.0618 41.0103L29.0818 38.9903L28.6618 38.4703C27.0018 36.4003 25.9718 33.9103 25.6818 31.2803L25.6118 30.6103H22.7618V28.8403H25.6118ZM39.6017 40.3403C45.4517 40.3403 50.2218 35.5803 50.2218 29.7203C50.2218 23.8603 45.4617 19.1003 39.6017 19.1003C33.7417 19.1003 28.9818 23.8603 28.9818 29.7203C28.9818 35.5803 33.7417 40.3403 39.6017 40.3403ZM39.6017 20.6103C44.6317 20.6103 48.7218 24.7003 48.7218 29.7303C48.7218 34.7603 44.6317 38.8503 39.6017 38.8503C34.5717 38.8503 30.4818 34.7603 30.4818 29.7303C30.4818 24.7003 34.5717 20.6103 39.6017 20.6103ZM54.4718 68.3103C54.8318 65.6603 57.1118 63.6003 59.8618 63.6003C62.8618 63.6003 65.3018 66.0403 65.3018 69.0403C65.3018 72.0403 62.8618 74.4803 59.8618 74.4803C57.1218 74.4803 54.8618 72.4403 54.4818 69.8103C50.5218 70.0403 47.3618 73.3303 47.3618 77.3503V114.28C47.3618 114.69 47.0218 115.03 46.6118 115.03C46.2018 115.03 45.8618 114.69 45.8618 114.28V77.3503C45.8618 72.5103 49.6818 68.5503 54.4718 68.3103ZM56.0018 69.7903C56.3518 71.6003 57.9418 72.9803 59.8618 72.9803C62.0318 72.9803 63.8018 71.2103 63.8018 69.0403C63.8018 66.8703 62.0318 65.1003 59.8618 65.1003C57.9518 65.1003 56.3518 66.4803 56.0018 68.2903H59.8618C60.2718 68.2903 60.6118 68.6303 60.6118 69.0403C60.6118 69.4503 60.2718 69.7903 59.8618 69.7903H56.0018ZM28.8118 52.7303C28.4518 50.0703 26.1818 48.0203 23.4218 48.0203C20.6618 48.0203 18.4018 50.0603 18.0418 52.7103H13.5118C13.1418 50.0603 10.8718 48.0203 8.13177 48.0203C5.13177 48.0203 2.69177 50.4603 2.69177 53.4603C2.69177 56.4603 5.13177 58.9003 8.13177 58.9003C10.8718 58.9003 13.1418 56.8603 13.5118 54.2103H18.0418C18.4118 56.8603 20.6818 58.9003 23.4218 58.9003C26.1618 58.9003 28.4218 56.8703 28.8018 54.2303C32.7618 54.4603 35.9218 57.7503 35.9218 61.7703V98.7003C35.9218 99.1103 36.2618 99.4503 36.6718 99.4503C37.0818 99.4503 37.4218 99.1103 37.4218 98.7003V61.7703C37.4218 56.9203 33.6018 52.9703 28.8118 52.7303ZM23.4218 57.4003C21.2518 57.4003 19.4818 55.6303 19.4818 53.4603C19.4818 51.2903 21.2518 49.5203 23.4218 49.5203C25.3418 49.5203 26.9318 50.9003 27.2818 52.7103H23.4218C23.0118 52.7103 22.6718 53.0503 22.6718 53.4603C22.6718 53.8703 23.0118 54.2103 23.4218 54.2103H27.2818C26.9318 56.0203 25.3318 57.4003 23.4218 57.4003ZM8.12177 57.4003C5.95177 57.4003 4.18177 55.6303 4.18177 53.4603C4.18177 51.2903 5.95177 49.5203 8.12177 49.5203C10.0418 49.5203 11.6318 50.9003 11.9818 52.7103H8.12177C7.71177 52.7103 7.37177 53.0503 7.37177 53.4603C7.37177 53.8703 7.71177 54.2103 8.12177 54.2103H11.9818C11.6318 56.0203 10.0318 57.4003 8.12177 57.4003ZM13.5118 68.3603H22.6818C27.6818 68.3603 31.7518 72.4303 31.7518 77.4303V87.9703C31.7518 88.3803 31.4118 88.7203 31.0018 88.7203C30.5918 88.7203 30.2518 88.3803 30.2518 87.9703V77.4303C30.2518 73.2503 26.8518 69.8603 22.6818 69.8603H13.5118C13.1418 72.5103 10.8718 74.5503 8.13177 74.5503C5.13177 74.5503 2.69177 72.1103 2.69177 69.1103C2.69177 66.1103 5.13177 63.6703 8.13177 63.6703C10.8718 63.6703 13.1418 65.7103 13.5118 68.3603ZM4.19177 69.1103C4.19177 71.2803 5.96177 73.0503 8.13177 73.0503C10.0418 73.0503 11.6418 71.6703 11.9918 69.8603H8.13177C7.72177 69.8603 7.38177 69.5203 7.38177 69.1103C7.38177 68.7003 7.72177 68.3603 8.13177 68.3603H11.9918C11.6418 66.5503 10.0518 65.1703 8.13177 65.1703C5.96177 65.1703 4.19177 66.9403 4.19177 69.1103ZM59.1717 54.2003C59.5417 56.8503 61.8117 58.8903 64.5518 58.8903C67.5518 58.8903 69.9918 56.4503 69.9918 53.4503C69.9918 50.4503 67.5518 48.0103 64.5518 48.0103C61.8117 48.0103 59.5317 50.0503 59.1717 52.7003H50.6117C45.6117 52.7003 41.5417 56.7703 41.5417 61.7703V98.7003C41.5417 99.1103 41.8817 99.4503 42.2917 99.4503C42.7017 99.4503 43.0417 99.1103 43.0417 98.7003V61.7703C43.0417 57.6003 46.4317 54.2003 50.6117 54.2003H59.1717ZM64.5518 49.5103C66.7218 49.5103 68.4918 51.2803 68.4918 53.4503C68.4918 55.6203 66.7218 57.3903 64.5518 57.3903C62.6318 57.3903 61.0417 56.0103 60.6917 54.2003H64.5518C64.9618 54.2003 65.3018 53.8603 65.3018 53.4503C65.3018 53.0403 64.9618 52.7003 64.5518 52.7003H60.6917C61.0417 50.8903 62.6418 49.5103 64.5518 49.5103Z" fill="white"/>
</svg>
