<svg width="116" height="37" viewBox="0 0 116 37" fill="none" xmlns="http://www.w3.org/2000/svg">
<path id="Union" fill-rule="evenodd" clip-rule="evenodd" d="M59.46 4.67H83.49V0L92.87 5.42L83.49 10.84V6.17H65.8C70.37 8.5 73.26 13.16 73.26 18.34C73.26 25.88 67.13 32.01 59.59 32.01H59.54H35.49V36.68L26.11 31.26L35.49 25.84V30.51H53.38C48.81 28.18 45.92 23.52 45.92 18.34C45.92 10.88 51.99 4.75 59.46 4.67ZM47.42 18.34C47.42 25.05 52.88 30.51 59.59 30.51C66.3 30.51 71.76 25.05 71.76 18.34C71.76 11.63 66.3 6.17 59.59 6.17C52.88 6.17 47.42 11.63 47.42 18.34ZM16.82 18.1399H15.5C15.01 18.1399 14.61 17.7599 14.57 17.2899C15.51 16.9299 17.46 15.9899 18.55 14.1099C19.33 12.8699 19.74 11.4399 19.74 9.98987C19.74 7.66987 18.72 5.49987 16.93 4.01987C15.15 2.53987 12.79 1.94987 10.48 2.37987C7.50999 2.93987 5.07999 5.29987 4.41999 8.24987C3.96999 10.2899 4.32999 12.3699 5.44999 14.1499C6.93999 16.2199 8.67999 17.0299 9.69999 17.3399C9.62999 17.7899 9.23999 18.1399 8.77999 18.1399H7.16999C4.41999 18.1399 2.00999 19.9499 1.30999 22.5299C1.09999 23.3199 0.98999 24.1299 0.98999 24.9499V31.7899C0.98999 32.1999 1.32999 32.5399 1.73999 32.5399C2.14999 32.5399 2.48999 32.1999 2.48999 31.7899V24.9499C2.48999 24.2599 2.57999 23.5799 2.75999 22.9299C3.28999 20.9999 5.09999 19.6399 7.17999 19.6399H8.78999C10.13 19.6399 11.22 18.5499 11.22 17.1999V16.0999L10.58 16.0099C10.49 15.9999 8.37999 15.6299 6.70999 13.3099C5.82999 11.9099 5.53999 10.2199 5.89999 8.57987C5.93999 8.38987 5.99999 8.19987 6.05999 8.02987H10.02C10.59 8.02987 11.15 8.18987 11.64 8.47987C12.87 9.21987 14.46 9.12987 15.6 8.26987C15.8598 8.07026 16.0955 7.89072 16.3091 7.72808L16.3092 7.72802C16.7695 7.37739 17.1267 7.1053 17.4 6.87987C17.95 7.82987 18.24 8.89987 18.24 9.99987C18.24 11.1699 17.9 12.3199 17.26 13.3399C16.1622 15.23 13.8525 15.9628 13.6276 16.0341L13.6276 16.0341L13.618 16.0372L13.61 16.0399L13.06 16.1899V17.2099C13.06 18.5499 14.15 19.6399 15.49 19.6399H16.81C18.89 19.6399 20.7 20.9899 21.23 22.9299C21.41 23.5899 21.5 24.2699 21.5 24.9499V31.7899C21.5 32.1999 21.84 32.5399 22.25 32.5399C22.66 32.5399 23 32.1999 23 31.7899V24.9499C23 24.1299 22.89 23.3199 22.68 22.5299C21.98 19.9399 19.57 18.1399 16.82 18.1399ZM15.98 5.17987C16.15 5.31987 16.32 5.47987 16.5 5.67987L16.4245 5.73884L16.4244 5.73886C16.0176 6.05652 15.4422 6.50574 14.69 7.06987C14.02 7.57987 13.13 7.62987 12.4 7.18987C11.68 6.75987 10.85 6.52987 10.01 6.52987H6.76999C7.68999 5.14987 9.14999 4.15987 10.76 3.85987C12.63 3.49987 14.53 3.97987 15.97 5.17987H15.98ZM114.88 22.5299C114.18 19.9399 111.77 18.1399 109.02 18.1399H107.41C106.95 18.1399 106.57 17.8099 106.49 17.3399C107.38 17.0599 109.21 16.2599 110.76 14.1099C111.86 12.3699 112.21 10.2899 111.76 8.24987C111.11 5.29987 108.67 2.93987 105.7 2.37987C103.39 1.94987 101.04 2.53987 99.25 4.01987C97.46 5.49987 96.44 7.67987 96.44 9.98987C96.44 11.4499 96.85 12.8699 97.62 14.0899C98.73 15.9899 100.67 16.9299 101.62 17.2899C101.58 17.7699 101.18 18.1399 100.69 18.1399H99.37C96.62 18.1399 94.21 19.9499 93.51 22.5299C93.3 23.3099 93.19 24.1299 93.19 24.9499V31.7899C93.19 32.1999 93.53 32.5399 93.94 32.5399C94.35 32.5399 94.69 32.1999 94.69 31.7899V24.9499C94.69 24.2599 94.78 23.5799 94.96 22.9299C95.48 20.9999 97.3 19.6399 99.38 19.6399H100.7C102.04 19.6399 103.14 18.5499 103.14 17.2099V16.1899L102.59 16.0399C102.56 16.0399 100.09 15.3199 98.92 13.3199C98.29 12.3199 97.96 11.1699 97.96 9.99987C97.96 8.90987 98.25 7.82987 98.8 6.87987C99.0893 7.11406 99.464 7.40044 99.9241 7.75207L99.9249 7.75271L99.925 7.7528C100.133 7.91147 100.358 8.08343 100.6 8.26987C101.74 9.13987 103.34 9.21987 104.56 8.48987C105.05 8.19987 105.61 8.03987 106.18 8.03987H110.14C110.2 8.20987 110.26 8.39987 110.3 8.58987C110.66 10.2399 110.38 11.9099 109.52 13.2899C107.887 15.5492 105.867 15.9792 105.649 16.0255C105.638 16.028 105.631 16.0294 105.63 16.0299L104.98 16.1199V17.2299C104.98 18.5699 106.07 19.6599 107.42 19.6599H109.03C111.11 19.6599 112.92 21.0099 113.45 22.9499C113.63 23.5999 113.72 24.2799 113.72 24.9699V31.8099C113.72 32.2199 114.06 32.5599 114.47 32.5599C114.88 32.5599 115.22 32.2199 115.22 31.8099V24.9699C115.22 24.1499 115.11 23.3299 114.9 22.5499L114.88 22.5299ZM105.41 3.85987C107.02 4.15987 108.48 5.14987 109.4 6.52987H106.16C105.32 6.52987 104.49 6.75987 103.76 7.18987C103.04 7.61987 102.14 7.56987 101.48 7.06987C100.866 6.60248 100.416 6.25545 100.084 5.99904L100.083 5.99795L100.083 5.9976L100.077 5.99322C99.915 5.86824 99.7813 5.76495 99.67 5.67987C99.85 5.48987 100.02 5.31987 100.19 5.17987C101.63 3.98987 103.53 3.49987 105.4 3.85987H105.41ZM98.62 24C98.21 24 97.87 24.34 97.87 24.75V31.79C97.87 32.2 98.21 32.54 98.62 32.54C99.03 32.54 99.37 32.2 99.37 31.79V24.75C99.37 24.34 99.03 24 98.62 24ZM109.61 24.75C109.61 24.34 109.95 24 110.36 24C110.77 24 111.11 24.34 111.11 24.75V31.79C111.11 32.2 110.77 32.54 110.36 32.54C109.95 32.54 109.61 32.2 109.61 31.79V24.75ZM16.81 24.75C16.81 24.34 17.15 24 17.56 24C17.97 24 18.31 24.34 18.31 24.75V31.79C18.31 32.2 17.97 32.54 17.56 32.54C17.15 32.54 16.81 32.2 16.81 31.79V24.75ZM5.82001 24C5.41001 24 5.07001 24.34 5.07001 24.75V31.79C5.07001 32.2 5.41001 32.54 5.82001 32.54C6.23001 32.54 6.57001 32.2 6.57001 31.79V24.75C6.57001 24.34 6.23001 24 5.82001 24Z" fill="#6930C3"/>
</svg>
