<svg width="125" height="105" viewBox="0 0 125 105" fill="none" xmlns="http://www.w3.org/2000/svg">
<path id="Union" fill-rule="evenodd" clip-rule="evenodd" d="M120.34 39L124.1 36.14L115.15 32.39C115.16 32.18 115.09 31.97 114.93 31.81C111.64 28.68 107.57 26.39 103.17 25.19C100.88 24.57 98.55 24.26 96.22 24.24C86.57 9.06 70.13 0 52.16 0C23.4 0 0 23.4 0 52.16C0 80.92 23.4 104.32 52.16 104.32C70.59 104.32 87.26 94.9 96.81 79.13C99.67 79.04 102.49 78.53 105.21 77.56C107.63 76.69 109.89 75.49 111.96 74.01L115.37 77.35L117.79 67.94C118 67.92 118.2 67.82 118.33 67.64C119.38 66.17 120.29 64.58 121.03 62.92C123.95 56.42 124.24 49.15 121.84 42.45C121.42 41.26 120.91 40.11 120.33 38.99L120.34 39ZM73.69 98.07C70.86 99.39 67.91 100.46 64.86 101.23V85.82C64.86 85.41 64.52 85.07 64.11 85.07C63.7 85.07 63.36 85.41 63.36 85.82V101.58C59.74 102.39 56 102.83 52.17 102.83C46.22 102.83 40.51 101.79 35.2 99.9V85.83C35.2 85.42 34.86 85.08 34.45 85.08C34.04 85.08 33.7 85.42 33.7 85.83V99.34C30.01 97.89 26.54 96.03 23.33 93.8V86.34C23.33 84.61 23.55 82.88 23.97 81.22C25.39 75.66 30.47 71.78 36.31 71.78H39.65C42.41 71.78 44.66 69.53 44.66 66.77V66.64C44.66 65.74 44.1 64.93 43.26 64.63C41.37 63.94 36.69 61.87 34.17 57.55C32.46 54.84 31.56 51.73 31.56 48.55C31.56 45.08 32.63 41.76 34.55 38.97C35.44 39.74 37.11 41.01 40.07 43.26C41.45 44.3 43.07 44.86 44.78 44.86C46.19 44.86 47.58 44.47 48.8 43.74C50.22 42.89 51.84 42.44 53.49 42.44H64.1C64.17 42.44 64.24 42.42 64.31 42.4C64.63 43.22 64.89 44.07 65.07 44.94C65.99 49.33 65.2 53.8 62.87 57.52C59.24 62.57 54.9 64.21 53.21 64.69C52.28 64.95 51.62 65.81 51.62 66.79C51.62 69.55 53.87 71.8 56.63 71.8H60.71C66.56 71.8 71.63 75.68 73.05 81.24C73.47 82.9 73.69 84.62 73.69 86.36V98.07ZM35.45 37.74C36.12 36.93 36.86 36.15 37.69 35.47C41.59 32.24 46.73 30.93 51.81 31.89C56.96 32.86 61.35 36.31 63.66 40.91H53.49C51.57 40.91 49.68 41.43 48.03 42.42C45.81 43.75 43.04 43.6 40.97 42.04C37.5 39.4 36.05 38.25 35.45 37.74ZM75.18 97.32V86.32C75.18 84.46 74.95 82.61 74.49 80.83C72.9 74.61 67.23 70.26 60.7 70.26H56.62C54.69 70.26 53.11 68.68 53.11 66.73C53.11 66.44 53.31 66.19 53.6 66.1C55.9 65.46 60.31 63.59 64.1 58.32C66.67 54.24 67.53 49.37 66.53 44.6C65.03 37.46 59.23 31.76 52.08 30.41C46.57 29.37 40.97 30.79 36.73 34.31C32.48 37.83 30.05 43.01 30.05 48.52C30.05 51.98 31.03 55.37 32.88 58.3C35.63 63.02 40.69 65.27 42.73 66.01C42.98 66.1 43.14 66.34 43.14 66.61V66.74C43.14 68.67 41.57 70.25 39.63 70.25H36.29C29.76 70.25 24.09 74.6 22.5 80.82C22.04 82.61 21.81 84.46 21.81 86.31V92.7C9.49 83.46 1.5 68.73 1.5 52.16C1.5 24.23 24.23 1.5 52.16 1.5C69.3 1.5 85.01 10 94.43 24.27C91.83 24.42 89.24 24.92 86.74 25.82C84.32 26.68 82.06 27.89 79.99 29.37L76.58 26.03L74.16 35.43C73.95 35.45 73.75 35.55 73.62 35.73C70.98 39.44 69.28 43.78 68.71 48.3C68.17 52.6 68.64 56.85 70.1 60.93C71.44 64.7 73.61 68.14 76.41 70.98L73.65 74.83L83.31 75.77V75.82C83.37 76.01 83.51 76.16 83.69 76.25C85.32 77.06 87.03 77.72 88.78 78.19C90.83 78.75 92.92 79.05 95.02 79.13C90.03 87.05 83.17 93.25 75.18 97.32ZM119.66 62.31C118.96 63.88 118.1 65.38 117.1 66.78C117.02 66.89 116.99 67.03 116.98 67.16L107.62 69.76L110.87 72.94C108.97 74.27 106.91 75.35 104.7 76.14C99.68 77.93 94.31 78.14 89.17 76.74C87.52 76.29 85.9 75.67 84.36 74.9C84.23 74.84 84.1 74.83 83.97 74.84L79.95 66L77.29 69.72C74.74 67.08 72.75 63.89 71.51 60.41C70.13 56.55 69.69 52.53 70.2 48.47C70.74 44.2 72.34 40.09 74.84 36.59C74.92 36.47 74.95 36.34 74.96 36.21L84.32 33.6L81.07 30.42C82.97 29.09 85.03 28.01 87.24 27.22C92.26 25.43 97.63 25.22 102.77 26.62C106.93 27.75 110.77 29.92 113.88 32.88C113.98 32.97 114.1 33.03 114.24 33.06L115.46 42.69L119.11 39.91C119.61 40.89 120.05 41.91 120.42 42.95C122.68 49.28 122.41 56.16 119.65 62.3L119.66 62.31ZM96.26 33.6699C86.07 33.6699 77.77 41.9599 77.77 52.1599C77.77 62.3599 86.06 70.6499 96.26 70.6499C106.46 70.6499 114.75 62.3599 114.75 52.1599C114.75 41.9599 106.46 33.6699 96.26 33.6699ZM96.26 69.1399C86.89 69.1399 79.27 61.5199 79.27 52.1499C79.27 42.7799 86.89 35.1599 96.26 35.1599C105.63 35.1599 113.25 42.7799 113.25 52.1499C113.25 61.5199 105.63 69.1399 96.26 69.1399ZM104.69 43.7201C104.88 43.3601 105.34 43.2201 105.7 43.4101L105.69 43.4201C106.06 43.6101 106.2 44.0601 106.01 44.4301L97.58 60.4501C97.31 60.9501 96.82 61.2901 96.26 61.3601C96.1901 61.3701 96.1201 61.3701 96.0501 61.3701H96.05C95.56 61.3701 95.09 61.1601 94.76 60.7901L89.52 54.9301C89.39 54.7801 89.32 54.5901 89.33 54.3901C89.34 54.1901 89.43 54.0001 89.58 53.8701C89.73 53.7401 89.92 53.6801 90.12 53.6801C90.32 53.6901 90.51 53.7801 90.64 53.9301L95.88 59.7901C95.93 59.8401 96 59.8701 96.08 59.8601C96.16 59.8501 96.22 59.8101 96.26 59.7401L104.69 43.7201Z" fill="white"/>
</svg>
