<svg width="102" height="104" viewBox="0 0 102 104" fill="none" xmlns="http://www.w3.org/2000/svg">
<path id="Union" fill-rule="evenodd" clip-rule="evenodd" d="M49.8332 6.55218C49.8332 6.98547 49.4725 7.34478 49.0376 7.34478C48.6027 7.34478 48.2421 6.98547 48.2421 6.55218V0.792602C48.2421 0.359313 48.6027 0 49.0376 0C49.4725 0 49.8332 0.359313 49.8332 0.792602V6.55218ZM60.5678 12.9354C60.7799 12.9354 60.9815 12.8509 61.13 12.7029L65.2138 8.63425C65.5214 8.32777 65.5214 7.82051 65.2138 7.51403C64.9062 7.20756 64.397 7.20756 64.0894 7.51403L60.0056 11.5827C59.698 11.8892 59.698 12.3965 60.0056 12.7029C60.1541 12.8509 60.3557 12.9354 60.5678 12.9354ZM39.8729 32.5073C41.5595 33.7861 42.5672 35.8786 42.5672 38.1084V41.3317C42.5672 44.4175 45.0917 46.9327 48.1891 46.9327C51.2864 46.9327 53.8109 44.4175 53.8109 41.3317V38.1084C53.8109 35.868 54.8186 33.7755 56.5052 32.5073C59.9632 29.8865 61.9468 25.9129 61.9468 21.5906C61.9468 17.8284 60.4511 14.3198 57.725 11.7095C55.0202 9.12029 51.4349 7.76759 47.6375 7.8944C40.3503 8.17974 34.4314 14.3198 34.4314 21.5906C34.4314 25.9129 36.4149 29.8865 39.8729 32.5073ZM48.1891 9.46904C51.35 9.46904 54.3413 10.6738 56.6219 12.8508C59.0297 15.1546 60.3557 18.2616 60.3557 21.5906C60.3557 25.4056 58.6054 28.9248 55.5399 31.2392C53.6624 32.6553 52.485 34.8852 52.2623 37.3158H48.9846V26.2722L53.673 19.329C53.917 18.9697 53.8215 18.473 53.4609 18.2299C53.1003 17.9869 52.6017 18.082 52.3577 18.4413L48.9952 23.4294V20.259C48.9952 19.8257 48.6346 19.4664 48.1997 19.4664C47.7648 19.4664 47.4041 19.8257 47.4041 20.259V37.3158H44.1158C43.9037 34.8852 42.7157 32.6553 40.8382 31.2392C37.7727 28.9248 36.0225 25.4056 36.0225 21.5906C36.0225 15.1652 41.2625 9.73324 47.7011 9.47961H48.1891V9.46904ZM48.1891 45.3475C46.2373 45.3475 44.6038 43.9631 44.2431 42.1243H52.1456C51.7743 43.9631 50.1408 45.3475 48.1997 45.3475H48.1891ZM52.2198 38.901V40.5391H44.1583V38.901H52.2198ZM48.9846 102.172L65.9245 97.67L65.9033 97.6805C66.3382 97.5749 66.7625 97.8179 66.8792 98.2406C66.9958 98.6634 66.7413 99.0966 66.317 99.2129L48.3694 103.979C48.3057 104 48.2527 104 48.1891 104H48.1678C48.1148 104 48.0193 103.99 48.0193 103.99L4.56115 95.197C4.18989 95.1125 3.92471 94.7849 3.92471 94.415V61.7704L0 61.4533L4.14746 47.1019L4.66722 47.1336L28.2685 41.4586C28.3428 41.4375 28.4276 41.4163 28.5231 41.4375L40.1699 41.987C40.3821 41.9976 40.573 42.0821 40.7215 42.2406C40.8594 42.3992 40.923 42.5999 40.923 42.8113C40.9124 43.0227 40.817 43.234 40.6579 43.3714C40.4988 43.5194 40.2972 43.5933 40.0851 43.5722L28.5337 43.0332L9.97088 47.4929L48.2421 50.0821L78.5048 46.4361L56.4416 45.1891C56.2294 45.1785 56.0279 45.0834 55.89 44.9249C55.7521 44.7664 55.6778 44.5656 55.6884 44.3542C55.7097 44.1323 55.8157 43.9315 55.9854 43.7836C56.1446 43.6462 56.3461 43.5828 56.5476 43.6145L87.4786 45.3582L88.0726 45.2842L92.2307 59.308L91.923 59.3503L86.386 60.1323V68.4599C86.386 68.8932 86.0254 69.2525 85.5905 69.2525C85.1556 69.2525 84.7949 68.8932 84.7949 68.4599V60.3648L53.4609 64.8139L48.9846 54.6686V102.172ZM40.7745 64.7611L5.51581 61.8972V93.7704L47.3829 102.235V53.7387L40.7745 64.7611ZM4.50811 60.2274C4.57176 60.2063 4.64601 60.1852 4.72026 60.1852H4.73087C4.85815 60.1852 4.97483 60.2169 5.08091 60.2697L39.926 63.1019L46.8419 51.5722L5.31427 48.7611L2.06843 60.0266L4.50811 60.2274ZM54.4156 63.0702L90.1622 57.9976V57.987L86.9058 47.0068L49.3346 51.5299L54.4156 63.0702ZM99.2951 85.2947C98.9557 83.2022 98.1177 81.1837 96.8661 79.4611L98.7754 77.5483L95.6038 74.3885L93.6945 76.2907C91.9549 75.0437 89.9395 74.2088 87.8392 73.8706V71.1758H83.3523V73.8706C81.2521 74.2088 79.2261 75.0437 77.4971 76.2907L75.5878 74.3885L72.4162 77.5483L74.3255 79.4506C73.0738 81.1837 72.2359 83.1916 71.8964 85.2841H69.1916V89.7544H71.8964C72.2359 91.8574 73.0738 93.8653 74.3255 95.5879L72.4162 97.4902L75.5878 100.65L77.4971 98.7478C79.2367 99.9948 81.2521 100.83 83.3523 101.168V103.863H87.8392V101.168C89.9395 100.83 91.9655 99.9948 93.6945 98.7478L95.6038 100.65L98.7754 97.4902L96.8661 95.5879C98.1177 93.8548 98.9557 91.8469 99.2951 89.7544H102V85.2841H99.2951V85.2947ZM97.8844 88.1797L97.8101 88.8878C97.5555 91.1916 96.6539 93.3686 95.1901 95.1863L94.7446 95.7359L96.5266 97.5113L95.6038 98.4307L93.8218 96.6553L93.2702 97.0992C91.4457 98.5575 89.2606 99.4558 86.9588 99.7095L86.2481 99.7834V102.299H84.9434V99.7834L84.2327 99.7095C81.9203 99.4558 79.7352 98.5575 77.9214 97.0992L77.3698 96.6553L75.5878 98.4307L74.6649 97.5113L76.447 95.7359L76.0015 95.1863C74.5483 93.3686 73.636 91.1916 73.3814 88.8878L73.3072 88.1797H70.7827V86.8799H73.3072L73.3814 86.1718C73.636 83.868 74.5376 81.691 76.0015 79.8838L76.447 79.3343L74.6649 77.5589L75.5878 76.6395L77.3698 78.4149L77.9214 77.971C79.7458 76.5126 81.931 75.6144 84.2327 75.3607L84.9434 75.2867V72.7716H86.2481V75.2867L86.9588 75.3607C89.2712 75.6144 91.4563 76.5126 93.2702 77.971L93.8218 78.4149L95.6038 76.6395L96.5266 77.5589L94.7446 79.3343L95.1901 79.8838C96.6433 81.7015 97.5555 83.8786 97.8101 86.1718L97.8844 86.8799H100.409V88.1797H97.8844ZM85.5799 78.0132C80.308 78.0132 76.0227 82.2827 76.0227 87.535C76.0227 92.7873 80.308 97.0568 85.5799 97.0568C90.8517 97.0568 95.1371 92.7873 95.1371 87.535C95.1371 82.2827 90.8517 78.0132 85.5799 78.0132ZM85.5799 95.4716C81.1884 95.4716 77.6138 91.9101 77.6138 87.535C77.6138 83.1598 81.1884 79.5984 85.5799 79.5984C89.9713 79.5984 93.546 83.1598 93.546 87.535C93.546 91.9101 89.9713 95.4716 85.5799 95.4716ZM63.9091 22.7107C63.4742 22.7107 63.1136 22.3514 63.1136 21.9181C63.1136 21.4848 63.4742 21.1255 63.9091 21.1255H69.6795C70.1144 21.1255 70.475 21.4848 70.475 21.9181C70.475 22.3514 70.1144 22.7107 69.6795 22.7107H63.9091ZM35.7467 11.2762C35.8952 11.4241 36.0967 11.5087 36.3088 11.5087C36.521 11.5087 36.7225 11.4241 36.871 11.2762C37.1786 10.9697 37.1786 10.4624 36.871 10.156L32.7872 6.08728C32.4796 5.7808 31.9704 5.7808 31.6628 6.08728C31.3552 6.39375 31.3552 6.90101 31.6628 7.20749L35.7467 11.2762ZM32.225 22.7107H26.4547C26.0198 22.7107 25.6591 22.3514 25.6591 21.9181C25.6591 21.4848 26.0198 21.1255 26.4547 21.1255H32.225C32.66 21.1255 33.0206 21.4848 33.0206 21.9181C33.0206 22.3514 32.66 22.7107 32.225 22.7107Z" fill="white"/>
</svg>
