<svg width="163" height="156" viewBox="0 0 163 156" fill="none" xmlns="http://www.w3.org/2000/svg">
<path id="Union" fill-rule="evenodd" clip-rule="evenodd" d="M72.02 30.3001C72.43 30.3001 72.77 29.9601 72.77 29.5501V22.7101C72.77 22.0201 72.86 21.3401 73.04 20.6901C73.56 18.7601 75.38 17.4001 77.46 17.4001H78.78C80.12 17.4001 81.22 16.3101 81.22 14.9701V13.9501L80.67 13.8001C80.65 13.8001 78.17 13.0901 77 11.0801C76.37 10.0801 76.04 8.93015 76.04 7.76015C76.04 6.66015 76.33 5.59015 76.88 4.64015C77.2192 4.91314 77.6747 5.26141 78.2805 5.72458L78.2806 5.72469L78.2814 5.72525L78.282 5.72573L78.68 6.03015C79.82 6.90015 81.42 6.98015 82.64 6.25015C83.13 5.96015 83.69 5.80015 84.26 5.80015H88.22C88.28 5.97015 88.34 6.16015 88.38 6.35015C88.74 8.00015 88.46 9.67015 87.6 11.0501C85.9768 13.3094 83.948 13.7394 83.7292 13.7858L83.7153 13.7888C83.7123 13.7895 83.7105 13.7899 83.71 13.7901L83.06 13.8801V14.9901C83.06 16.3301 84.15 17.4201 85.5 17.4201H87.11C89.19 17.4201 91 18.7701 91.53 20.7101C91.71 21.3701 91.8 22.0501 91.8 22.7301V29.5701C91.8 29.9801 92.14 30.3201 92.55 30.3201C92.96 30.3201 93.3 29.9801 93.3 29.5701V22.7301C93.3 21.9101 93.19 21.1001 92.98 20.3101C92.28 17.7201 89.87 15.9201 87.12 15.9201H85.51C85.05 15.9201 84.67 15.5901 84.59 15.1201C85.48 14.8401 87.31 14.0401 88.86 11.8901C89.96 10.1501 90.31 8.07015 89.86 6.03015C89.21 3.08015 86.77 0.720148 83.8 0.160148C81.48 -0.269852 79.13 0.320148 77.35 1.80015C75.57 3.28015 74.54 5.46015 74.54 7.77015C74.54 9.22015 74.95 10.6401 75.72 11.8701C76.83 13.7701 78.77 14.7101 79.72 15.0701C79.68 15.5501 79.28 15.9201 78.79 15.9201H77.47C74.72 15.9201 72.31 17.7301 71.61 20.3101C71.4 21.0901 71.29 21.9101 71.29 22.7301V29.5701C71.29 29.9801 71.63 30.3201 72.04 30.3201L72.02 30.3001ZM83.5 1.61015C85.11 1.91015 86.57 2.90015 87.49 4.28015H84.25C83.41 4.28015 82.58 4.51015 81.85 4.94015C81.13 5.37015 80.23 5.32015 79.57 4.82015C78.9553 4.35247 78.5058 4.00531 78.1738 3.74885L78.173 3.74821L78.1716 3.74718L78.1704 3.74621C78.007 3.62 77.8721 3.51584 77.76 3.43015C77.94 3.23015 78.11 3.07015 78.28 2.93015C79.72 1.74015 81.62 1.25015 83.49 1.61015H83.5ZM14.24 31.03H15.85V31.04C18.6 31.04 21.01 32.84 21.71 35.43C21.92 36.22 22.03 37.03 22.03 37.85V44.69C22.03 45.1 21.69 45.44 21.28 45.44C20.87 45.44 20.53 45.1 20.53 44.69V37.85C20.53 37.17 20.44 36.49 20.26 35.83C19.73 33.89 17.92 32.54 15.84 32.54H14.23C12.89 32.54 11.8 31.45 11.8 30.11V29L12.45 28.91C12.451 28.9095 12.4576 28.9081 12.4692 28.9056C12.688 28.8593 14.7168 28.4293 16.34 26.17C17.2 24.79 17.48 23.12 17.12 21.47C17.08 21.2801 17.0201 21.1002 16.9601 20.9203L16.9601 20.9202L16.9601 20.9202L16.9601 20.9202L16.9601 20.9202L16.9601 20.9202L16.9601 20.9202L16.9601 20.9201L16.9601 20.9201L16.9601 20.9201L16.96 20.9201L16.96 20.9201L16.96 20.9201L16.96 20.92L16.96 20.92L16.96 20.92H13C12.43 20.92 11.87 21.08 11.38 21.37C10.16 22.11 8.56002 22.02 7.42002 21.16C7.21323 21.0011 7.02171 20.8543 6.84449 20.7185L6.84438 20.7184L6.84385 20.718L6.84362 20.7179L6.84342 20.7177C6.3184 20.3153 5.91895 20.0092 5.62002 19.77C5.07002 20.72 4.78002 21.79 4.78002 22.89C4.78002 24.06 5.11002 25.21 5.74002 26.21C6.91002 28.22 9.39002 28.93 9.41002 28.93L9.96002 29.08V30.1C9.96002 31.44 8.87002 32.53 7.53002 32.53H6.21002C4.13002 32.53 2.31002 33.89 1.79002 35.82C1.61002 36.47 1.52002 37.15 1.52002 37.84V44.68C1.52002 45.09 1.18002 45.43 0.77002 45.43C0.36002 45.43 0.0200195 45.09 0.0200195 44.68V37.84C0.0200195 37.02 0.13002 36.21 0.34002 35.42C1.04002 32.84 3.45002 31.03 6.20002 31.03H7.52002C8.01002 31.03 8.41002 30.66 8.45002 30.18C7.50002 29.82 5.55002 28.87 4.45002 26.98C3.68002 25.76 3.27002 24.34 3.27002 22.88C3.27002 21.28 3.76002 19.75 4.68002 18.43L4.79002 18.29C5.17002 17.77 5.61002 17.3 6.08002 16.91C7.86002 15.43 10.22 14.84 12.53 15.27C15.5 15.83 17.94 18.19 18.59 21.14C19.04 23.18 18.69 25.26 17.59 27C16.04 29.15 14.21 29.95 13.32 30.23C13.4 30.7 13.78 31.03 14.24 31.03ZM16.24 19.41C15.32 18.03 13.85 17.04 12.25 16.74C10.38 16.39 8.48002 16.87 7.04002 18.06C6.87002 18.21 6.70002 18.37 6.52002 18.56C6.84002 18.82 7.39002 19.24 8.32002 19.95C8.98002 20.45 9.88002 20.5 10.6 20.07C11.33 19.64 12.16 19.41 13 19.41H16.24ZM162.11 35.42C161.41 32.83 159 31.03 156.25 31.03H154.64C154.18 31.03 153.8 30.7 153.72 30.23C154.74 29.92 156.47 29.1 157.99 27C159.08 25.26 159.44 23.18 158.99 21.14C158.34 18.19 155.9 15.83 152.93 15.27C150.62 14.84 148.27 15.43 146.48 16.91C144.69 18.39 143.67 20.56 143.67 22.88C143.67 24.34 144.08 25.76 144.85 26.98C145.95 28.87 147.9 29.82 148.85 30.18C148.81 30.66 148.41 31.03 147.92 31.03H146.6C143.85 31.03 141.44 32.84 140.74 35.42C140.53 36.2 140.42 37.02 140.42 37.84V44.68C140.42 45.09 140.76 45.43 141.17 45.43C141.58 45.43 141.92 45.09 141.92 44.68V37.84C141.92 37.15 142.01 36.47 142.19 35.82C142.72 33.89 144.53 32.53 146.61 32.53H147.93C149.27 32.53 150.36 31.44 150.36 30.1V29.08L149.81 28.93C149.79 28.93 147.31 28.22 146.14 26.21C145.51 25.21 145.18 24.06 145.18 22.89C145.18 21.79 145.47 20.72 146.02 19.77C146.359 20.0431 146.815 20.3916 147.421 20.8551L147.82 21.16C148.96 22.02 150.56 22.11 151.78 21.38C152.27 21.09 152.83 20.93 153.4 20.93H157.36C157.42 21.1 157.48 21.29 157.52 21.48C157.88 23.13 157.6 24.8 156.74 26.18C155.107 28.4394 153.087 28.8693 152.869 28.9156L152.854 28.9188L152.85 28.92L152.2 29.01V30.12C152.2 31.46 153.29 32.55 154.63 32.55H156.24C158.32 32.55 160.13 33.9 160.66 35.84C160.84 36.5 160.93 37.18 160.93 37.86V44.7C160.93 45.11 161.27 45.45 161.68 45.45C162.09 45.45 162.43 45.11 162.43 44.7V37.86C162.43 37.04 162.32 36.23 162.11 35.44V35.42ZM152.65 16.74C154.26 17.04 155.72 18.03 156.64 19.41H153.4C152.56 19.41 151.73 19.64 151 20.07C150.28 20.5 149.38 20.45 148.72 19.95C147.792 19.2491 147.244 18.821 146.922 18.5697L146.91 18.56C147.09 18.37 147.26 18.21 147.43 18.06C148.87 16.87 150.77 16.38 152.64 16.74H152.65ZM127.77 28.3901L137.15 33.8101L137.13 33.8201L127.75 39.2401V34.5701H112.18V53.7101L112.1 53.7801L99.47 65.1601C101.53 68.3801 102.69 72.0901 102.82 75.9301H119.28V71.2601L128.66 76.6801L119.28 82.1001V77.4301H102.82C102.69 81.2701 101.53 84.9801 99.47 88.2001L112.19 99.6501V118.79H127.76V114.12L137.14 119.54L127.76 124.96V120.29H110.69V100.32L98.61 89.4401C94.84 94.4901 89.13 97.6101 82.87 98.0201V114.92H87.54L82.12 124.3L76.7 114.92H81.37V98.0901C74.7 98.0701 68.36 94.8601 64.33 89.4901L52.29 100.32V120.29H35.22V124.96L25.84 119.54L35.22 114.12V118.79H50.79V99.6501L50.87 99.5801L63.46 88.2501C61.38 85.0201 60.21 81.2901 60.08 77.4301H43.95V82.1001L34.57 76.6801L43.95 71.2601V75.9301H60.08C60.21 72.0701 61.38 68.3401 63.46 65.1101L50.79 53.7001V34.5601H35.22V39.2301L25.84 33.8101L35.22 28.3901V33.0601H52.29V53.0301L64.33 63.8701C68.36 58.5001 74.71 55.2901 81.38 55.2601V38.4301H76.71L82.13 29.0501L87.55 38.4301H82.88V55.3301C89.15 55.7401 94.86 58.8601 98.62 63.9101L110.7 53.0301V33.0601H127.77V28.3901ZM81.46 56.7601C70.61 56.7601 61.69 65.5801 61.56 76.4301C61.59 76.5101 61.6 76.5901 61.6 76.6701C61.6 76.7501 61.59 76.8301 61.56 76.9101C61.69 87.7601 70.48 96.5801 81.46 96.5801C92.44 96.5801 101.37 87.6501 101.37 76.6701C101.37 65.6901 92.31 56.7601 81.46 56.7601ZM78.2 82.23C78.89 82.55 79.99 82.92 81.29 82.92H81.3C83.41 82.92 84.88 81.68 84.88 79.91C84.88 77.95 83.12 76.98 81.59 76.36C78.5 75.15 77.29 73.9 77.29 71.92C77.29 69.8 78.86 68.06 81.11 67.68H81.21V65.67C81.21 65.34 81.58 65.13 81.84 65.13C82.12 65.13 82.44 65.36 82.44 65.66V67.64C82.88 67.65 83.31 67.68 83.73 67.77C84.19 67.87 84.69 68.03 85.23 68.25C85.73 68.46 85.79 68.82 85.69 69.1C85.57 69.43 85.17 69.58 84.86 69.45C84.03 69.1 83.13 68.92 82.19 68.92C79.97 68.92 78.97 70.28 78.97 71.63C78.97 73.38 80.45 74.15 82.55 75.04C85.45 76.22 86.58 77.44 86.58 79.7C86.58 81.96 84.92 83.8 82.55 84.17L82.27 84.21V86.31C82.27 86.59 82 86.84 81.7 86.84C81.4 86.84 81.13 86.58 81.13 86.29V84.25C79.89 84.2 78.78 83.92 77.65 83.39C77.35 83.25 77.21 82.9 77.32 82.59C77.43 82.28 77.71 82.17 77.92 82.17C78.02 82.17 78.11 82.19 78.2 82.23ZM146.61 37.6401V44.6801C146.61 45.0901 146.27 45.4301 145.86 45.4301C145.45 45.4301 145.11 45.0901 145.11 44.6801V37.6401C145.11 37.2301 145.45 36.8901 145.86 36.8901C146.27 36.8901 146.61 37.2301 146.61 37.6401ZM158.34 44.6801V37.6401C158.34 37.2301 158 36.8901 157.59 36.8901C157.18 36.8901 156.84 37.2301 156.84 37.6401V44.6801C156.84 45.0901 157.18 45.4301 157.59 45.4301C158 45.4301 158.34 45.0901 158.34 44.6801ZM154.64 72.6599H156.25V72.6799C159 72.6799 161.41 74.4799 162.11 77.0699C162.32 77.8599 162.43 78.6699 162.43 79.4899V86.3299C162.43 86.7399 162.09 87.0799 161.68 87.0799C161.27 87.0799 160.93 86.7399 160.93 86.3299V79.4899C160.93 78.8099 160.84 78.1299 160.66 77.4699C160.13 75.5299 158.32 74.1799 156.24 74.1799H154.63C153.29 74.1799 152.2 73.0899 152.2 71.7499V70.6399L152.85 70.5499C152.851 70.5494 152.858 70.548 152.869 70.5455C153.087 70.4992 155.107 70.0693 156.74 67.8099C157.6 66.4299 157.88 64.7599 157.52 63.1099C157.48 62.9199 157.42 62.7299 157.36 62.5599H153.4C152.83 62.5599 152.27 62.7199 151.78 63.0099C150.56 63.7399 148.96 63.6499 147.82 62.7899L147.421 62.4849L147.421 62.4844L147.417 62.4815L147.415 62.4805L147.411 62.4773C146.81 62.0176 146.357 61.6715 146.02 61.3999C145.47 62.3499 145.18 63.4299 145.18 64.5199C145.18 65.6899 145.51 66.8399 146.14 67.8399C147.31 69.8399 149.78 70.5599 149.81 70.5599L150.36 70.7099V71.7299C150.36 73.0699 149.27 74.1599 147.93 74.1599H146.61C144.53 74.1599 142.72 75.5199 142.19 77.4499C142.01 78.0999 141.92 78.7799 141.92 79.4699V86.3099C141.92 86.7199 141.58 87.0599 141.17 87.0599C140.76 87.0599 140.42 86.7199 140.42 86.3099V79.4699C140.42 78.6499 140.53 77.8299 140.74 77.0499C141.44 74.4699 143.85 72.6599 146.6 72.6599H147.92C148.41 72.6599 148.81 72.2899 148.85 71.8099C147.9 71.4499 145.96 70.5099 144.85 68.6099C144.08 67.3899 143.67 65.9699 143.67 64.5099C143.67 62.1999 144.69 60.0199 146.48 58.5399C148.27 57.0599 150.62 56.4699 152.93 56.8999C155.9 57.4599 158.34 59.8199 158.99 62.7699C159.44 64.8099 159.08 66.8899 157.99 68.6299C156.47 70.7299 154.74 71.5499 153.72 71.8599C153.8 72.3299 154.18 72.6599 154.64 72.6599ZM156.64 61.0499C155.72 59.6699 154.26 58.6799 152.65 58.3799H152.64C150.77 58.0199 148.87 58.5099 147.43 59.6999C147.26 59.8399 147.09 60.0099 146.91 60.1999L147.001 60.27L147.091 60.339L147.323 60.518L147.325 60.5192C147.657 60.7756 148.106 61.1226 148.72 61.5899C149.38 62.0899 150.28 62.1399 151 61.7099C151.73 61.2799 152.56 61.0499 153.4 61.0499H156.64ZM146.61 86.3102V79.2702C146.61 78.8602 146.27 78.5202 145.86 78.5202C145.45 78.5202 145.11 78.8602 145.11 79.2702V86.3102C145.11 86.7202 145.45 87.0602 145.86 87.0602C146.27 87.0602 146.61 86.7202 146.61 86.3102ZM158.34 79.2702V86.3102C158.34 86.7202 158 87.0602 157.59 87.0602C157.18 87.0602 156.84 86.7202 156.84 86.3102V79.2702C156.84 78.8602 157.18 78.5202 157.59 78.5202C158 78.5202 158.34 78.8602 158.34 79.2702ZM156.25 114.29H154.64C154.18 114.29 153.8 113.96 153.72 113.49C154.74 113.18 156.47 112.36 157.99 110.26C159.08 108.52 159.44 106.44 158.99 104.4C158.34 101.45 155.9 99.0899 152.93 98.5299C150.62 98.0999 148.27 98.6899 146.48 100.17C144.69 101.65 143.67 103.83 143.67 106.14C143.67 107.6 144.08 109.02 144.85 110.24C145.96 112.14 147.9 113.08 148.85 113.44C148.81 113.92 148.41 114.29 147.92 114.29H146.6C143.85 114.29 141.44 116.1 140.74 118.68C140.53 119.46 140.42 120.28 140.42 121.1V127.94C140.42 128.35 140.76 128.69 141.17 128.69C141.58 128.69 141.92 128.35 141.92 127.94V121.1C141.92 120.41 142.01 119.73 142.19 119.08C142.72 117.15 144.53 115.79 146.61 115.79H147.93C149.27 115.79 150.36 114.7 150.36 113.36V112.34L149.81 112.19C149.78 112.19 147.31 111.47 146.14 109.47C145.51 108.47 145.18 107.32 145.18 106.15C145.18 105.05 145.47 103.98 146.02 103.03C146.359 103.303 146.814 103.651 147.419 104.113L147.421 104.115L147.82 104.42C148.96 105.28 150.56 105.37 151.78 104.64C152.27 104.35 152.83 104.19 153.4 104.19H157.36C157.42 104.36 157.48 104.55 157.52 104.74C157.88 106.39 157.6 108.06 156.74 109.44C155.107 111.699 153.087 112.129 152.869 112.176L152.855 112.179C152.852 112.179 152.851 112.18 152.85 112.18L152.2 112.27V113.38C152.2 114.72 153.29 115.81 154.63 115.81H156.24C158.32 115.81 160.13 117.16 160.66 119.1C160.84 119.76 160.93 120.44 160.93 121.12V127.96C160.93 128.37 161.27 128.71 161.68 128.71C162.09 128.71 162.43 128.37 162.43 127.96V121.12C162.43 120.3 162.32 119.49 162.11 118.7C161.41 116.11 159 114.31 156.25 114.31V114.29ZM152.65 100.01C154.26 100.31 155.72 101.3 156.64 102.68H153.4C152.56 102.68 151.73 102.91 151.01 103.34C150.29 103.77 149.39 103.72 148.72 103.22C148.105 102.752 147.656 102.405 147.324 102.149L147.323 102.148C147.158 102.021 147.023 101.916 146.91 101.83C147.09 101.64 147.26 101.47 147.43 101.33C148.87 100.14 150.77 99.6599 152.64 100.01H152.65ZM145.11 120.9C145.11 120.49 145.45 120.15 145.86 120.15C146.27 120.15 146.61 120.49 146.61 120.9V127.94C146.61 128.35 146.27 128.69 145.86 128.69C145.45 128.69 145.11 128.35 145.11 127.94V120.9ZM157.59 120.15C157.18 120.15 156.84 120.49 156.84 120.9V127.94C156.84 128.35 157.18 128.69 157.59 128.69C158 128.69 158.34 128.35 158.34 127.94V120.9C158.34 120.49 158 120.15 157.59 120.15ZM6.21002 44.6801V37.6401C6.21002 37.2301 5.87002 36.8901 5.46002 36.8901C5.05002 36.8901 4.71002 37.2301 4.71002 37.6401V44.6801C4.71002 45.0901 5.05002 45.4301 5.46002 45.4301C5.87002 45.4301 6.21002 45.0901 6.21002 44.6801ZM17.94 37.6401V44.6801C17.94 45.0901 17.6 45.4301 17.19 45.4301C16.78 45.4301 16.44 45.0901 16.44 44.6801V37.6401C16.44 37.2301 16.78 36.8901 17.19 36.8901C17.6 36.8901 17.94 37.2301 17.94 37.6401ZM15.85 72.6599H14.24C13.78 72.6599 13.4 72.3299 13.32 71.8599C14.21 71.5799 16.04 70.7799 17.59 68.6299C18.69 66.8899 19.04 64.8099 18.59 62.7699C17.94 59.8199 15.5 57.4599 12.53 56.8999C10.21 56.4699 7.86002 57.0599 6.08002 58.5399C4.30002 60.0199 3.27002 62.1999 3.27002 64.5099C3.27002 65.9699 3.68002 67.3899 4.45002 68.6099C5.56002 70.5099 7.50002 71.4499 8.45002 71.8099C8.41002 72.2899 8.01002 72.6599 7.52002 72.6599H6.20002C3.45002 72.6599 1.04002 74.4699 0.34002 77.0499C0.13002 77.8399 0.0200195 78.6499 0.0200195 79.4699V86.3099C0.0200195 86.7199 0.36002 87.0599 0.77002 87.0599C1.18002 87.0599 1.52002 86.7199 1.52002 86.3099V79.4699C1.52002 78.7799 1.61002 78.0999 1.79002 77.4499C2.31002 75.5199 4.13002 74.1599 6.21002 74.1599H7.53002C8.87002 74.1599 9.96002 73.0699 9.96002 71.7299V70.7099L9.41002 70.5599C9.39002 70.5599 6.91002 69.8499 5.74002 67.8399C5.11002 66.8399 4.78002 65.6899 4.78002 64.5199C4.78002 63.4199 5.07002 62.3499 5.62002 61.3999C5.91902 61.6391 6.3186 61.9453 6.84381 62.3479L6.84429 62.3483L6.84574 62.3494L6.85222 62.3543L6.85323 62.3551C7.02801 62.4891 7.21663 62.6336 7.42002 62.7899C8.56002 63.6599 10.16 63.7399 11.38 63.0099C11.87 62.7199 12.43 62.5599 13 62.5599H16.96C17.02 62.7299 17.08 62.9199 17.12 63.1099C17.48 64.7599 17.2 66.4299 16.34 67.8099C14.7167 70.0692 12.6879 70.4992 12.4692 70.5455C12.4575 70.548 12.451 70.5494 12.45 70.5499L11.8 70.6399V71.7499C11.8 73.0899 12.89 74.1799 14.23 74.1799H15.84C17.92 74.1799 19.73 75.5299 20.26 77.4699C20.44 78.1299 20.53 78.8099 20.53 79.4899V86.3299C20.53 86.7399 20.87 87.0799 21.28 87.0799C21.69 87.0799 22.03 86.7399 22.03 86.3299V79.4899C22.03 78.6699 21.92 77.8599 21.71 77.0699C21.01 74.4799 18.6 72.6799 15.85 72.6799V72.6599ZM12.25 58.3799C13.85 58.6799 15.32 59.6699 16.24 61.0499H13C12.16 61.0499 11.33 61.2799 10.6 61.7099C9.88002 62.1399 8.98002 62.0899 8.32002 61.5899C7.64481 61.0814 7.11552 60.6702 6.72637 60.3678L6.72631 60.3678L6.51002 60.1999C6.69002 60.0099 6.86002 59.8499 7.03002 59.6999C8.47002 58.5099 10.37 58.0299 12.24 58.3799H12.25ZM6.21003 79.2702V86.3102C6.21003 86.7202 5.87003 87.0602 5.46003 87.0602C5.05003 87.0602 4.71003 86.7202 4.71003 86.3102V79.2702C4.71003 78.8602 5.05003 78.5202 5.46003 78.5202C5.87003 78.5202 6.21003 78.8602 6.21003 79.2702ZM17.94 86.3102V79.2702C17.94 78.8602 17.6 78.5202 17.19 78.5202C16.78 78.5202 16.44 78.8602 16.44 79.2702V86.3102C16.44 86.7202 16.78 87.0602 17.19 87.0602C17.6 87.0602 17.94 86.7202 17.94 86.3102ZM14.24 114.29H15.85V114.31C18.6 114.31 21.01 116.11 21.71 118.7C21.92 119.49 22.03 120.3 22.03 121.12V127.96C22.03 128.37 21.69 128.71 21.28 128.71C20.87 128.71 20.53 128.37 20.53 127.96V121.12C20.53 120.44 20.44 119.76 20.26 119.1C19.73 117.16 17.92 115.81 15.84 115.81H14.23C12.89 115.81 11.8 114.72 11.8 113.38V112.27L12.45 112.18C12.451 112.179 12.4576 112.178 12.4692 112.176C12.6879 112.129 14.7167 111.699 16.34 109.44C17.2 108.06 17.48 106.39 17.12 104.74C17.08 104.55 17.02 104.36 16.96 104.19H13C12.43 104.19 11.87 104.35 11.38 104.64C10.16 105.37 8.56002 105.28 7.42002 104.42C7.2133 104.261 7.02183 104.114 6.84465 103.979L6.84458 103.979L6.8424 103.977L6.84 103.975C6.31666 103.574 5.9183 103.269 5.62002 103.03C5.07002 103.98 4.78002 105.05 4.78002 106.15C4.78002 107.32 5.11002 108.47 5.74002 109.47C6.91002 111.48 9.39002 112.19 9.41002 112.19L9.96002 112.34V113.36C9.96002 114.7 8.87002 115.79 7.53002 115.79H6.21002C4.13002 115.79 2.31002 117.15 1.79002 119.08C1.61002 119.73 1.52002 120.42 1.52002 121.1V127.94C1.52002 128.35 1.18002 128.69 0.770023 128.69C0.360023 128.69 0.020023 128.35 0.020023 127.94V121.1C0.020023 120.28 0.130023 119.47 0.340023 118.68C1.04002 116.1 3.45002 114.29 6.20002 114.29H7.52002C8.01002 114.29 8.41002 113.92 8.45002 113.44C7.50002 113.08 5.56002 112.14 4.45002 110.24C3.68002 109.02 3.27002 107.6 3.27002 106.14C3.27002 103.83 4.29002 101.65 6.08002 100.17C7.87002 98.69 10.22 98.09 12.53 98.53C15.5 99.09 17.94 101.45 18.59 104.4C19.04 106.44 18.69 108.52 17.59 110.26C16.04 112.41 14.21 113.21 13.32 113.49C13.4 113.96 13.78 114.29 14.24 114.29ZM16.24 102.68C15.32 101.3 13.85 100.31 12.25 100.01H12.24C10.37 99.66 8.47002 100.14 7.03002 101.33C6.86002 101.47 6.69002 101.64 6.51002 101.83C6.62267 101.916 6.75837 102.021 6.92295 102.148L6.92327 102.148C7.25538 102.405 7.70504 102.752 8.32002 103.22C8.99002 103.72 9.89002 103.77 10.61 103.34C11.33 102.91 12.16 102.68 13 102.68H16.24ZM5.46003 120.15C5.05003 120.15 4.71003 120.49 4.71003 120.9V127.94C4.71003 128.35 5.05003 128.69 5.46003 128.69C5.87003 128.69 6.21003 128.35 6.21003 127.94V120.9C6.21003 120.49 5.87003 120.15 5.46003 120.15ZM16.44 120.9C16.44 120.49 16.78 120.15 17.19 120.15C17.6 120.15 17.94 120.49 17.94 120.9V127.94C17.94 128.35 17.6 128.69 17.19 128.69C16.78 128.69 16.44 128.35 16.44 127.94V120.9ZM75.96 22.5C75.96 22.09 76.3 21.75 76.71 21.75C77.12 21.75 77.46 22.09 77.46 22.5V29.54C77.46 29.95 77.12 30.29 76.71 30.29C76.3 30.29 75.96 29.95 75.96 29.54V22.5ZM87.7 22.5V29.54C87.7 29.95 88.04 30.29 88.45 30.29C88.86 30.29 89.2 29.95 89.2 29.54V22.5C89.2 22.09 88.86 21.75 88.45 21.75C88.04 21.75 87.7 22.09 87.7 22.5ZM85.49 140.6H87.1L87.12 140.62C89.87 140.62 92.28 142.42 92.98 145.01C93.19 145.8 93.3 146.61 93.3 147.43V154.27C93.3 154.68 92.96 155.02 92.55 155.02C92.14 155.02 91.8 154.68 91.8 154.27V147.43C91.8 146.75 91.71 146.07 91.53 145.41C91 143.47 89.19 142.12 87.11 142.12H85.5C84.15 142.12 83.06 141.03 83.06 139.69V138.58L83.71 138.49C83.711 138.489 83.7175 138.488 83.7292 138.486C83.9479 138.439 85.9767 138.009 87.6 135.75C88.46 134.37 88.74 132.7 88.38 131.05C88.34 130.86 88.28 130.67 88.22 130.5H84.26C83.69 130.5 83.13 130.66 82.64 130.95C81.42 131.68 79.82 131.59 78.68 130.73L78.2824 130.426C77.6757 129.962 77.2196 129.613 76.88 129.34C76.33 130.29 76.04 131.36 76.04 132.46C76.04 133.63 76.37 134.78 77 135.78C78.17 137.79 80.65 138.5 80.67 138.5L81.22 138.65V139.67C81.22 141.01 80.12 142.1 78.78 142.1H77.46C75.38 142.1 73.56 143.46 73.04 145.39C72.86 146.04 72.77 146.72 72.77 147.41V154.25C72.77 154.66 72.43 155 72.02 155C71.61 155 71.27 154.66 71.27 154.25V147.41C71.27 146.59 71.38 145.77 71.59 144.99C72.29 142.41 74.7 140.6 77.45 140.6H78.77C79.26 140.6 79.66 140.23 79.7 139.75C78.75 139.39 76.81 138.45 75.7 136.55C74.93 135.32 74.52 133.9 74.52 132.45C74.52 130.14 75.55 127.96 77.33 126.48C79.11 125 81.46 124.41 83.78 124.84C86.75 125.4 89.19 127.76 89.84 130.71C90.29 132.75 89.94 134.83 88.84 136.57C87.29 138.72 85.46 139.52 84.57 139.8C84.65 140.27 85.03 140.6 85.49 140.6ZM87.49 128.99C86.57 127.61 85.11 126.62 83.5 126.32H83.49C81.62 125.96 79.72 126.45 78.28 127.64C78.11 127.79 77.94 127.95 77.76 128.14C77.8725 128.226 78.008 128.331 78.1723 128.458C78.5045 128.714 78.9544 129.062 79.57 129.53C80.23 130.03 81.13 130.08 81.85 129.65C82.58 129.22 83.41 128.99 84.25 128.99H87.49ZM76.71 146.46C76.3 146.46 75.96 146.8 75.96 147.21V154.25C75.96 154.66 76.3 155 76.71 155C77.12 155 77.46 154.66 77.46 154.25V147.21C77.46 146.8 77.12 146.46 76.71 146.46ZM87.7 147.21C87.7 146.8 88.04 146.46 88.45 146.46C88.86 146.46 89.2 146.8 89.2 147.21V154.25C89.2 154.66 88.86 155 88.45 155C88.04 155 87.7 154.66 87.7 154.25V147.21Z" fill="#6930C3"/>
</svg>
