<svg width="140" height="157" viewBox="0 0 140 157" fill="none" xmlns="http://www.w3.org/2000/svg">
<path id="Union" fill-rule="evenodd" clip-rule="evenodd" d="M75.72 8.63L70.74 0L65.75 8.63H69.98V25.7101H51.75V34.7801L56.61 45.6701C56.77 46.0401 57.24 46.2101 57.6 46.0401V46.0501C57.78 45.9701 57.92 45.8201 57.99 45.6301C58.06 45.4401 58.05 45.2401 57.97 45.0501L53.25 34.6101V27.2001H88.21V34.6101L83.49 45.0501C83.41 45.2301 83.4 45.4401 83.47 45.6301C83.54 45.8201 83.68 45.9601 83.86 46.0501C83.96 46.0901 84.06 46.1201 84.17 46.1201C84.46 46.1201 84.73 45.9501 84.85 45.6801L89.64 35.1001L89.71 25.7201H71.48V8.63H75.72ZM114.35 84.1501H101.74C100.95 88.4401 99.32 92.4601 96.89 96.1001L105.73 104.94L97.41 113.26L88.69 104.54C85.1 107.09 80.93 108.91 76.62 109.8V121.88H64.85V110.05C60.37 109.32 56.02 107.61 52.23 105.09L44.06 113.26L35.74 104.94L43.79 96.8901C41.1 93.1101 39.24 88.7101 38.4 84.1501H27.13V72.3801H38.4C39.24 67.8201 41.1 63.4301 43.79 59.6401L35.74 51.5901L44.06 43.2701L52.23 51.4401C56.02 48.9201 60.37 47.2101 64.85 46.4801V34.6501H76.62V46.7301C80.93 47.6301 85.1 49.4401 88.69 51.9901L97.41 43.2701L105.73 51.5901L96.89 60.4301C99.32 64.0701 100.95 68.0901 101.74 72.3801H114.35V84.1501ZM88.85 102.57L97.42 111.14V111.1L103.62 104.9L94.95 96.2301L95.31 95.7201C97.93 91.9501 99.63 87.7501 100.37 83.2401L100.47 82.6101H112.85V73.8401H100.47L100.37 73.2101C99.63 68.7001 97.93 64.5001 95.31 60.7301L94.95 60.2201L103.62 51.5501L97.42 45.3501L88.85 53.9201L88.33 53.5401C84.63 50.7901 80.27 48.8901 75.74 48.0501L75.13 47.9401V36.1301H66.36V47.7501L65.72 47.8401C61.02 48.5001 56.48 50.2901 52.58 53.0001L52.07 53.3601L44.07 45.3601L37.87 51.5601L45.77 59.4601L45.39 59.9801C42.51 63.8801 40.57 68.4601 39.79 73.2301L39.69 73.8601H28.65V82.6301H39.69L39.79 83.2601C40.57 88.0401 42.51 92.6201 45.39 96.5101L45.77 97.0301L37.87 104.93L44.07 111.13L52.07 103.13L52.58 103.49C56.48 106.2 61.03 107.98 65.72 108.65L66.36 108.74V120.36H75.13V108.55L75.74 108.44C80.27 107.59 84.62 105.69 88.33 102.95L88.85 102.57ZM46.01 78.2701C46.01 65.0001 56.81 54.2101 70.07 54.2101C83.34 54.2101 94.13 65.0001 94.13 78.2701C94.13 91.5401 83.34 102.33 70.07 102.33C56.8 102.33 46.01 91.5401 46.01 78.2701ZM47.51 78.2601C47.51 90.7001 57.63 100.82 70.07 100.82C82.51 100.82 92.63 90.7001 92.63 78.2601C92.63 65.8201 82.51 55.7001 70.07 55.7001C57.63 55.7001 47.51 65.8201 47.51 78.2601ZM103.02 65.2701C103.16 65.4301 103.37 65.5201 103.58 65.5201C103.76 65.5201 103.94 65.4501 104.08 65.3301L115.34 55.3701L115.42 55.2901V36.1501H131.24V40.3899L139.88 35.4099L131.24 30.4199V34.6501H113.92V54.6201L103.08 64.2001C102.77 64.4701 102.74 64.9501 103.01 65.2601L103.02 65.2701ZM8.63 34.6601V30.4199L0 35.4099L8.63 40.3899V36.1601H24.45V55.3001L35.79 65.3301C35.93 65.4501 36.1 65.5201 36.29 65.5201C36.5 65.5201 36.71 65.4301 36.85 65.2701C37.12 64.9601 37.09 64.4901 36.78 64.2101L25.94 54.6301V34.6601H8.63ZM131.24 126.11V121.88H113.93V101.91L103.09 92.3301C102.78 92.0501 102.75 91.5801 103.02 91.2701C103.16 91.1201 103.34 91.0301 103.54 91.0201C103.75 91.0101 103.93 91.0801 104.08 91.2101L115.42 101.24V120.38H131.24V116.14L139.88 121.13L131.24 126.11ZM36.33 91.0201C36.53 91.0301 36.72 91.1201 36.85 91.2701L36.86 91.2801C37.13 91.5901 37.1 92.0701 36.79 92.3401L25.95 101.92V121.89H8.63V126.11L0 121.13L8.63 116.14V120.39H24.45V101.25L24.53 101.17L35.79 91.2101C35.94 91.0701 36.15 91.0001 36.33 91.0201ZM83.48 110.91C83.55 110.72 83.69 110.57 83.87 110.49C84.24 110.31 84.69 110.48 84.86 110.86L89.72 121.75V130.82H71.49V147.9H75.72L70.74 156.54L65.75 147.9H69.99V130.82H51.76L51.83 121.44L56.62 110.86C56.79 110.49 57.24 110.32 57.61 110.49C57.79 110.58 57.93 110.72 58 110.91C58.07 111.1 58.06 111.31 57.98 111.49L53.26 121.93V129.34H88.22V121.93L83.5 111.49C83.42 111.3 83.41 111.1 83.48 110.91Z" fill="#6930C3"/>
</svg>
