<svg width="91" height="79" viewBox="0 0 91 79" fill="none" xmlns="http://www.w3.org/2000/svg">
<path id="Union" fill-rule="evenodd" clip-rule="evenodd" d="M31.52 0H86.54C88.81 0 90.65 1.85 90.65 4.11V59.13C90.65 69.61 82.19 78.29 71.73 78.6L71.48 78.62H12.8C5.74 78.62 0 72.88 0 65.82V65.26C0 63.26 1.63 61.63 3.63 61.63H27.41V4.11C27.41 1.84 29.26 0 31.52 0ZM28.91 61.63H56.55V61.64C58.55 61.64 60.18 63.27 60.18 65.27V65.83C60.18 71.97 65.18 77.04 71.33 77.12C81.16 77.03 89.16 68.97 89.16 59.14V4.11C89.16 2.67 87.99 1.5 86.55 1.5H31.52C30.08 1.5 28.91 2.67 28.91 4.11V61.63ZM56.55 63.13H3.63C2.46 63.13 1.5 64.08 1.5 65.26V65.82C1.5 72.05 6.57 77.12 12.8 77.12H65.47C61.31 74.91 58.68 70.58 58.68 65.82V65.26C58.68 64.09 57.73 63.13 56.55 63.13ZM60.3 12.42H39.56C39.15 12.42 38.81 12.08 38.81 11.67C38.81 11.26 39.15 10.92 39.56 10.92H60.3C60.71 10.92 61.05 11.26 61.05 11.67C61.05 12.08 60.71 12.42 60.3 12.42ZM39.56 20.14H78.86C79.27 20.14 79.61 19.8 79.61 19.39C79.61 18.98 79.27 18.64 78.86 18.64H39.56C39.15 18.64 38.81 18.98 38.81 19.39C38.81 19.8 39.15 20.14 39.56 20.14ZM78.86 27.86H39.56C39.15 27.86 38.81 27.52 38.81 27.11C38.81 26.7 39.15 26.36 39.56 26.36H78.86C79.27 26.36 79.61 26.7 79.61 27.11C79.61 27.52 79.27 27.86 78.86 27.86ZM79.61 34.83C79.61 34.42 79.27 34.08 78.86 34.08H39.56C39.15 34.08 38.81 34.42 38.81 34.83C38.81 35.24 39.15 35.58 39.56 35.58H78.86C79.27 35.58 79.61 35.24 79.61 34.83ZM45.78 40.72L45.87 40.75H45.86L50.65 42.49L53.24 46.98L52.34 52.09L48.37 55.42H43.19L39.22 52.09L38.32 46.98L38.36 46.9L40.91 42.49L45.78 40.72ZM40.61 51.29L43.74 53.92H43.77H47.86L50.99 51.29L51.7 47.26L49.65 43.72L45.8 42.32L41.95 43.72L39.9 47.26L40.61 51.29ZM72.55 48.6999L70.22 47.1699C68.75 46.2099 66.79 46.4999 65.66 47.8399C65.13 48.4699 64.26 48.6999 63.49 48.4299L60.55 47.3799C60.36 47.3099 60.16 47.3199 59.98 47.3999C59.8 47.4899 59.66 47.6399 59.59 47.8299C59.45 48.2199 59.65 48.6499 60.04 48.7899L62.98 49.8399C64.33 50.3299 65.87 49.9099 66.81 48.8099C67.45 48.0499 68.56 47.8799 69.4 48.4299L71.73 49.9599C72.3 50.3299 72.96 50.5299 73.63 50.5299H80.27C80.68 50.5299 81.02 50.1899 81.02 49.7799C81.02 49.3699 80.68 49.0299 80.27 49.0299H73.63C73.25 49.0299 72.87 48.9199 72.55 48.7099V48.6999ZM81.03 54.67C81.03 55.08 80.69 55.42 80.28 55.42H60.31C59.9 55.42 59.56 55.08 59.56 54.67C59.56 54.26 59.9 53.92 60.31 53.92H80.28C80.69 53.92 81.03 54.26 81.03 54.67Z" fill="white"/>
</svg>
