<svg width="159" height="105" viewBox="0 0 159 105" fill="none" xmlns="http://www.w3.org/2000/svg">
<path id="Union" fill-rule="evenodd" clip-rule="evenodd" d="M129.57 86.17C129.57 85.76 129.91 85.42 130.32 85.42H130.33C130.74 85.42 131.08 85.76 131.08 86.17V102.38C131.08 103.46 130.2 104.33 129.13 104.33H1.95C0.87 104.33 0 103.45 0 102.38V1.95C0 0.87 0.87 0 1.95 0H129.12C130.2 0 131.07 0.88 131.07 1.95V20.72C131.07 21.13 130.73 21.47 130.32 21.47C129.91 21.47 129.57 21.13 129.57 20.72V8.8H1.5V102.38C1.5 102.63 1.7 102.83 1.95 102.83H129.12C129.37 102.83 129.57 102.63 129.57 102.38V86.17ZM1.95 1.5C1.7 1.5 1.5 1.7 1.5 1.95V7.3H129.58V1.95C129.58 1.7 129.38 1.5 129.13 1.5H1.95ZM6.48001 4.48984C6.48001 3.29984 7.45001 2.33984 8.63001 2.33984C9.82001 2.33984 10.78 3.29984 10.78 4.48984C10.78 5.67984 9.82001 6.63984 8.63001 6.63984C7.44001 6.63984 6.48001 5.67984 6.48001 4.48984ZM7.98001 4.47984C7.98001 4.83984 8.27001 5.12984 8.63001 5.12984C8.99001 5.12984 9.28001 4.83984 9.28001 4.47984C9.28001 4.11984 8.99001 3.82984 8.63001 3.82984C8.27001 3.82984 7.98001 4.11984 7.98001 4.47984ZM13.31 2.33984C12.13 2.33984 11.16 3.29984 11.16 4.48984C11.16 5.67984 12.12 6.63984 13.31 6.63984C14.5 6.63984 15.46 5.67984 15.46 4.48984C15.46 3.29984 14.5 2.33984 13.31 2.33984ZM13.31 5.12984C12.95 5.12984 12.66 4.83984 12.66 4.47984C12.66 4.11984 12.95 3.82984 13.31 3.82984C13.67 3.82984 13.96 4.11984 13.96 4.47984C13.96 4.83984 13.67 5.12984 13.31 5.12984ZM15.83 4.48984C15.83 3.29984 16.8 2.33984 17.98 2.33984C19.17 2.33984 20.13 3.29984 20.13 4.48984C20.13 5.67984 19.17 6.63984 17.98 6.63984C16.79 6.63984 15.83 5.67984 15.83 4.48984ZM17.33 4.47984C17.33 4.83984 17.62 5.12984 17.98 5.12984C18.34 5.12984 18.63 4.83984 18.63 4.47984C18.63 4.11984 18.34 3.82984 17.98 3.82984C17.62 3.82984 17.33 4.11984 17.33 4.47984ZM35.7 16.8501H9.28V54.1101H35.7V16.8501ZM10.78 52.6101V18.3501H34.2V52.6101H10.78ZM67.58 57.7202H94V94.9702H67.58V57.7202ZM69.08 59.2202V93.4702H92.5V59.2202H69.08ZM39.64 24.52H79.04C79.45 24.52 79.79 24.18 79.79 23.77C79.79 23.36 79.45 23.02 79.04 23.02H39.64C39.23 23.02 38.89 23.36 38.89 23.77C38.89 24.18 39.23 24.52 39.64 24.52ZM62.28 32.2998H39.64C39.23 32.2998 38.89 31.9598 38.89 31.5498C38.89 31.1398 39.23 30.7998 39.64 30.7998H62.28C62.69 30.7998 63.03 31.1398 63.03 31.5498C63.03 31.9598 62.69 32.2998 62.28 32.2998ZM39.64 40.8101H54.41C54.82 40.8101 55.16 40.4701 55.16 40.0601C55.16 39.6501 54.82 39.3101 54.41 39.3101H39.64C39.23 39.3101 38.89 39.6501 38.89 40.0601C38.89 40.4701 39.23 40.8101 39.64 40.8101ZM9.28 76.52H51.23V82.67H9.28V76.52ZM10.78 78.02V81.17H49.73V78.02H10.78ZM63.53 64.2598C63.53 63.8498 63.19 63.5098 62.78 63.5098H10.03C9.62 63.5098 9.28 63.8498 9.28 64.2598C9.28 64.6698 9.62 65.0098 10.03 65.0098H62.78C63.19 65.0098 63.53 64.6698 63.53 64.2598ZM52.58 70.02C52.99 70.02 53.33 70.36 53.33 70.77C53.33 71.18 52.99 71.52 52.58 71.52H10.03C9.62 71.52 9.28 71.18 9.28 70.77C9.28 70.36 9.62 70.02 10.03 70.02H52.58ZM10.03 87.6802C9.62 87.6802 9.28 88.0202 9.28 88.4302C9.28 88.8402 9.62 89.1802 10.03 89.1802H36.41C36.82 89.1802 37.16 88.8402 37.16 88.4302C37.16 88.0202 36.82 87.6802 36.41 87.6802H10.03ZM68.33 46.5C68.74 46.5 69.08 46.84 69.08 47.25C69.08 47.66 68.74 48 68.33 48H39.64C39.23 48 38.89 47.66 38.89 47.25C38.89 46.84 39.23 46.5 39.64 46.5H68.33ZM125.09 3.74023H118.52C118.11 3.74023 117.77 4.08023 117.77 4.49023C117.77 4.90023 118.11 5.24023 118.52 5.24023H125.09C125.5 5.24023 125.84 4.90023 125.84 4.49023C125.84 4.08023 125.5 3.74023 125.09 3.74023ZM149.27 39.0602C151.7 42.2802 153.28 46.0802 153.83 50.0602H158.49V56.6502H153.83C153.27 60.6402 151.7 64.4302 149.27 67.6502L152.57 70.9502L147.91 75.6102L144.61 72.3102C141.39 74.7402 137.59 76.3202 133.61 76.8702V81.5302H127.02V76.8702C123.03 76.3102 119.24 74.7402 116.02 72.3102L112.72 75.6102L108.06 70.9502L111.36 67.6502C108.93 64.4302 107.35 60.6302 106.8 56.6502H102.14V50.0602H106.8C107.36 46.0702 108.93 42.2802 111.36 39.0602L108.06 35.7602L112.72 31.1002L116.02 34.4002C119.24 31.9702 123.04 30.3902 127.02 29.8402V25.1802H133.61V29.8402C137.6 30.4002 141.39 31.9702 144.61 34.4002L147.91 31.1002L152.57 35.7602L149.27 39.0602ZM152.43 55.8202L152.5 55.1502H156.99V51.5602H152.5L152.43 50.8902C151.97 46.7102 150.34 42.7602 147.7 39.4702L147.28 38.9502L150.46 35.7702L147.92 33.2302L144.74 36.4102L144.22 35.9902C140.93 33.3602 136.98 31.7202 132.8 31.2602L132.13 31.1902V26.7002H128.54V31.1902L127.87 31.2602C123.69 31.7202 119.74 33.3502 116.45 35.9902L115.93 36.4102L112.75 33.2302L110.21 35.7702L113.39 38.9502L112.97 39.4702C110.34 42.7602 108.7 46.7102 108.24 50.8902L108.17 51.5602H103.68V55.1502H108.17L108.24 55.8202C108.7 60.0002 110.33 63.9502 112.97 67.2402L113.39 67.7602L110.21 70.9402L112.75 73.4802L115.93 70.3002L116.45 70.7202C119.74 73.3502 123.69 74.9902 127.87 75.4502L128.54 75.5202V80.0102H132.13V75.5202L132.8 75.4502C136.98 74.9902 140.93 73.3602 144.22 70.7202L144.74 70.3002L147.92 73.4802L150.46 70.9402L147.28 67.7602L147.7 67.2402C150.33 63.9502 151.97 60.0002 152.43 55.8202ZM130.32 37.23C121.43 37.23 114.19 44.47 114.19 53.36C114.19 62.25 121.43 69.49 130.32 69.49C139.21 69.49 146.45 62.25 146.45 53.36C146.45 44.47 139.21 37.23 130.32 37.23ZM130.32 67.99C122.25 67.99 115.69 61.43 115.69 53.36C115.69 45.29 122.25 38.73 130.32 38.73C138.39 38.73 144.95 45.29 144.95 53.36C144.95 61.43 138.39 67.99 130.32 67.99ZM137.73 45.7498C137.92 45.6998 138.13 45.7298 138.3 45.8298H138.29C138.47 45.9298 138.59 46.0998 138.64 46.2898C138.69 46.4798 138.66 46.6898 138.56 46.8598L131.23 59.2898C131.04 59.5998 130.71 59.8098 130.35 59.8398H130.25C129.92 59.8398 129.61 59.6998 129.39 59.4498L124.51 53.8198C124.38 53.6698 124.32 53.4798 124.33 53.2798C124.35 53.0798 124.44 52.8998 124.59 52.7698C124.9 52.4998 125.38 52.5398 125.65 52.8498L130.2 58.0998L137.27 46.0998C137.37 45.9198 137.54 45.7998 137.73 45.7498Z" fill="white"/>
</svg>
