<svg width="148" height="124" viewBox="0 0 148 124" fill="none" xmlns="http://www.w3.org/2000/svg">
<path id="Union" fill-rule="evenodd" clip-rule="evenodd" d="M114.523 28.2506L105.139 31.4826C105.65 34.8816 105.461 38.2964 104.587 41.6323L113.437 45.964L109.366 54.3039L100.643 50.0353C98.6193 52.8521 95.9818 55.2744 92.9979 57.0497L96.0841 66.0603L87.3213 69.0743L84.298 60.2531C80.7787 60.8607 77.1019 60.695 73.6377 59.7876L69.6382 67.9855L61.3162 63.9063L65.2528 55.8346C62.2846 53.6964 59.7731 50.8954 57.978 47.7077L49.5852 50.5955L46.5776 41.8138L54.9704 38.926C54.4351 35.3123 54.6949 31.5487 55.7263 28.0375L47.672 24.0924L51.7424 15.7525L59.9227 19.7607C62.0957 16.9124 64.8985 14.5216 68.0478 12.8253L65.0245 4.00404L73.7873 0.98999L76.8736 10.0006C80.3063 9.56662 83.8807 9.85066 87.2032 10.829L91.4626 2.08673L99.7845 6.16595L95.4622 15.0345C98.1942 17.1254 100.438 19.7055 102.123 22.7038L111.516 19.4688L114.523 28.2506ZM111.846 46.5163L108.815 52.7338L100.241 48.5362L99.9499 48.9544C97.895 51.9527 95.1394 54.4854 91.9822 56.2765L91.5571 56.5211L94.5804 65.3344L88.0535 67.5831L85.0774 58.9118L84.5736 59.0065C80.9047 59.7087 77.0704 59.543 73.4724 58.5252L73 58.391L69.0949 66.4075L62.8908 63.3697L66.7487 55.448L66.3314 55.1561C63.19 52.9863 60.5761 50.0669 58.7732 46.7057L58.537 46.2638L50.3174 49.0964L48.0735 42.5555L56.2931 39.7229L56.2065 39.2258C55.5688 35.4622 55.8365 31.5487 56.9938 27.9034L57.1513 27.4142L49.2466 23.548L52.2778 17.3306L60.277 21.252L60.5683 20.8496C62.7806 17.8276 65.7094 15.3343 69.0319 13.6301L69.4886 13.3934L66.5125 4.72204L73.0394 2.47334L76.0627 11.2867L76.5508 11.2157C80.141 10.687 83.865 10.9868 87.3292 12.0836L87.8173 12.2414L92.0058 3.64898L98.2099 6.6867L93.9741 15.3738L94.3757 15.6657C97.2887 17.804 99.6271 20.5024 101.336 23.6821L101.572 24.124L110.791 20.9521L113.035 27.4931L103.816 30.665L103.902 31.162C104.501 34.7205 104.312 38.2948 103.327 41.7743L103.194 42.2477L111.862 46.4927L111.846 46.5163ZM83.432 23.1061C83.4084 22.9483 83.3218 22.8142 83.1879 22.7195C83.0541 22.6248 82.9045 22.5932 82.747 22.6169C82.5896 22.6406 82.4557 22.7274 82.3612 22.8615L80.4874 25.5284C80.393 25.6546 80.3615 25.8124 80.3851 25.9702C80.4087 26.128 80.4953 26.2622 80.6292 26.3569C80.7315 26.4279 80.8496 26.4673 80.9677 26.4673C81.1566 26.4673 81.3377 26.3726 81.448 26.2148L83.3218 23.5479C83.4163 23.4217 83.4477 23.2639 83.4241 23.1061H83.432ZM77.5744 22.7275C77.7082 22.8143 77.787 22.9485 77.8185 23.1063H77.8106C77.8342 23.2641 77.8027 23.4219 77.7082 23.5481L75.8344 26.215C75.7242 26.3728 75.5431 26.4675 75.3542 26.4675C75.2361 26.4675 75.118 26.428 75.0156 26.357C74.8818 26.2702 74.803 26.1361 74.7716 25.9783C74.7479 25.8205 74.7794 25.6627 74.8739 25.5364L76.7477 22.8696C76.8422 22.7354 76.976 22.6486 77.1335 22.625C77.291 22.6013 77.4484 22.6329 77.5744 22.7275ZM88.6992 44.2598C89.022 44.2598 89.2897 44.528 89.2897 44.8515C89.2897 45.175 89.022 45.4433 88.6992 45.4433H84.3532C84.0304 45.4433 83.7627 45.175 83.7627 44.8515C83.7627 44.528 84.0304 44.2598 84.3532 44.2598H88.6992ZM79.6923 23.1063C79.6608 22.9485 79.582 22.8143 79.4482 22.7275C79.3222 22.6329 79.1647 22.6013 79.0073 22.625C78.8498 22.6486 78.716 22.7354 78.6215 22.8696L76.7477 25.5364C76.6532 25.6627 76.6217 25.8205 76.6453 25.9783C76.6768 26.1361 76.7556 26.2702 76.8894 26.357C76.9918 26.428 77.1098 26.4675 77.2279 26.4675C77.4169 26.4675 77.598 26.3728 77.7082 26.215L79.582 23.5481C79.6765 23.4219 79.708 23.2641 79.6844 23.1063H79.6923ZM81.3141 22.7275C81.448 22.8143 81.5267 22.9485 81.5582 23.1063H81.5503C81.574 23.2641 81.5425 23.4219 81.448 23.5481L79.5742 26.215C79.464 26.3728 79.2829 26.4675 79.0939 26.4675C78.9758 26.4675 78.8577 26.428 78.7554 26.357C78.6215 26.2702 78.5428 26.1361 78.5113 25.9783C78.4877 25.8205 78.5192 25.6627 78.6136 25.5364L80.4875 22.8696C80.5819 22.7354 80.7158 22.6486 80.8733 22.625C81.0307 22.6013 81.1882 22.6329 81.3141 22.7275ZM85.0617 22.7275C85.1955 22.8143 85.2743 22.9485 85.3058 23.1063H85.2979C85.3215 23.2641 85.29 23.4219 85.1955 23.5481L83.3217 26.215C83.2115 26.3728 83.0304 26.4675 82.8415 26.4675C82.7234 26.4675 82.6053 26.428 82.5029 26.357C82.3691 26.2702 82.2904 26.1361 82.2589 25.9783C82.2352 25.8205 82.2667 25.6627 82.3612 25.5364L84.235 22.8696C84.3295 22.7354 84.4633 22.6486 84.6208 22.625C84.7704 22.6013 84.9357 22.6329 85.0617 22.7275ZM29.7055 113.575H38.9722V104.044C42.3655 103.341 45.6487 101.905 48.4751 99.8935L55.3405 106.774L61.891 100.209L54.9311 93.2342C56.8364 90.3622 58.1198 87.1903 58.7496 83.8054H68.6777V74.5187H58.7496C58.1276 71.1338 56.8443 67.9619 54.9311 65.0899L61.891 58.115L55.3405 51.5504L48.4751 58.4306C45.6487 56.4186 42.3655 54.9905 38.9722 54.2804V44.749H29.7055V54.0831C26.1783 54.6591 22.7535 56.0083 19.7695 57.9966L13.3372 51.5504L6.78667 58.115L13.1246 64.4666C11.0146 67.4491 9.55016 70.9208 8.88094 74.5187H0V83.8054H8.87306C9.53441 87.4033 10.9988 90.875 13.1167 93.8575L6.7788 100.209L13.3293 106.774L19.7617 100.327C22.7377 102.316 26.1704 103.665 29.6976 104.241V113.575H29.7055ZM20.0372 99.0808L19.6357 98.7968L13.3372 105.109L8.45579 100.217L14.6756 93.9837L14.3764 93.5734C12.1089 90.5042 10.5815 86.8905 9.96744 83.119L9.8887 82.6219H1.18098V75.7022H9.87296L9.95169 75.2051C10.5658 71.4336 12.0932 67.8199 14.3607 64.7506L14.6598 64.3403L8.44004 58.1071L13.3214 53.2152L19.6199 59.5273L20.0215 59.2433C23.092 57.105 26.6664 55.7006 30.359 55.1719L30.8628 55.1009V45.9325H37.7676V55.2509L38.2479 55.3376C41.8144 56.0083 45.2471 57.4996 48.1602 59.6694L48.5696 59.9692L55.3169 53.2073L60.1983 58.0992L53.3722 64.94L53.6557 65.3424C55.7184 68.317 57.0569 71.6309 57.6395 75.1893L57.7182 75.6864H67.4652V82.6061H57.7182L57.6395 83.1032C57.0569 86.6695 55.7106 89.9834 53.6557 92.9501L53.3722 93.3525L60.1983 100.193L55.3169 105.085L48.5696 98.3233L48.1602 98.6232C45.2471 100.785 41.8144 102.284 38.2479 102.955L37.7676 103.042V112.36H30.8628V103.192L30.359 103.121C26.6664 102.592 23.092 101.187 20.0215 99.0492L20.0372 99.0808ZM33.8074 60.1821C44.2551 60.1821 52.7502 68.7035 52.7502 79.1659C52.7502 89.6362 44.2551 98.1497 33.8074 98.1497C23.3597 98.1497 14.8645 89.6362 14.8645 79.1659C14.8645 68.6956 23.3597 60.1821 33.8074 60.1821ZM27.5679 75.0512C27.5777 75.1123 27.5875 75.1735 27.5954 75.2366V75.2445C27.6505 75.3392 27.6978 75.4417 27.6978 75.5601C27.6978 75.6153 27.682 75.6706 27.6663 75.7258C28.0284 77.7299 28.8709 79.4421 30.107 80.6256L30.5557 81.0517L30.5006 83.466L34.1538 84.8468L37.7754 83.4976V80.9806L38.2085 80.5704C39.7831 79.016 40.7043 76.6253 40.7357 73.9899L37.988 69.4136C35.7914 71.7334 32.4453 72.6092 29.3905 71.6308L29.2645 73.6743C29.2409 74.1556 28.9654 74.5738 28.5323 74.7868C28.2174 74.9447 27.8631 74.9683 27.5403 74.8658C27.5482 74.9289 27.558 74.99 27.5679 75.0512ZM36.8149 96.7058C40.3972 96.0903 43.6095 94.3939 46.121 91.9717L46.1289 91.9796C46.058 91.877 46.0108 91.7665 46.0108 91.6403V91.0406C46.0108 89.4231 44.9243 88.0029 43.3733 87.5847L39.665 86.5274L34.7364 88.8708V90.5041L36.8149 92.2241V96.7058ZM35.6339 94.5202C35.5001 94.607 35.3584 94.6701 35.1852 94.6701C35.0198 94.6701 34.8702 94.607 34.7364 94.5202V96.4927H35.6339V94.5202ZM34.7364 92.0348V93.1157C34.8702 93.0289 35.0198 92.9658 35.1852 92.9658C35.3505 92.9658 35.5001 93.0289 35.6339 93.1157V92.7765L34.7364 92.0348ZM34.7364 87.5611L39.0194 85.5254V84.4523H38.4683L34.7364 85.8804V87.5611ZM33.5554 87.6084V85.8883L29.7842 84.4602H28.9575V85.6911L33.5554 87.6084ZM33.5554 96.9583V88.8945L28.2646 86.6852L25.0839 87.5689C23.5407 88.0029 22.47 89.4152 22.47 91.017V92.8554C25.4854 95.3644 29.3433 96.8951 33.5554 96.9583ZM33.8152 61.3657C24.021 61.3657 16.0534 69.3505 16.0534 79.1659H16.0848C16.0848 84.0894 18.0846 88.5473 21.3205 91.7744V91.017C21.3205 88.8945 22.7455 87.0009 24.7926 86.4328L27.8001 85.5964V83.2767L29.3433 83.3004L29.3826 81.5487L29.3118 81.4777C28.8158 80.9964 28.3906 80.452 28.0127 79.8523C27.9103 79.8681 27.808 79.8839 27.7056 79.8839C27.5009 79.8839 27.2962 79.8523 27.1073 79.7734C26.6979 79.6156 26.383 79.3079 26.2097 78.9055C26.0365 78.511 26.0287 78.0613 26.1861 77.6589C26.3042 77.359 26.5089 77.0987 26.7687 76.9172C26.7058 76.6489 26.6428 76.3728 26.5955 76.0887C25.5405 75.8441 24.7532 74.9052 24.7532 73.7769V68.1749C24.7532 67.7015 24.9815 67.2596 25.3594 66.9914C25.7452 66.7152 26.2334 66.6521 26.6743 66.802C26.8002 66.8493 26.9341 66.802 27.0049 66.6915C27.8316 65.3975 29.2409 64.6243 30.7762 64.6243H37.3896C40.4129 64.6243 42.8694 67.086 42.8694 70.1159V73.0037C42.8694 73.3272 42.6017 73.5954 42.2789 73.5954C41.9561 73.5954 41.6884 73.3272 41.6884 73.0037V70.1159C41.6884 67.7409 39.7595 65.8078 37.3896 65.8078H30.7762C29.6424 65.8078 28.6111 66.3759 27.997 67.3306C27.6269 67.9066 26.9262 68.1512 26.2806 67.9224C26.2019 67.8908 26.1074 67.8987 26.0365 67.954C25.9657 68.0013 25.9263 68.0802 25.9263 68.167V73.769C25.9263 74.1635 26.1231 74.5107 26.4223 74.7316C26.4223 74.704 26.4184 74.6764 26.4144 74.6488C26.4105 74.6212 26.4066 74.5935 26.4066 74.5659C26.383 74.203 26.564 73.8716 26.879 73.6901C27.186 73.5165 27.5718 73.5244 27.871 73.7217C27.9182 73.7532 27.9655 73.7532 28.0206 73.7296C28.0521 73.7138 28.0993 73.6743 28.0993 73.6033L28.2174 71.5677C28.2331 71.1968 28.4221 70.8575 28.7292 70.6524C29.0362 70.4394 29.4141 70.3841 29.7605 70.5025C32.6264 71.4177 35.7835 70.4315 37.6101 68.0408L38.1376 67.3543L41.8459 73.5323C41.8616 73.5481 41.8616 73.556 41.8616 73.5718C41.8774 73.6033 41.8931 73.6428 41.901 73.6822L41.9036 73.6922L41.9083 73.7084C41.916 73.7343 41.9246 73.7635 41.9246 73.7927C41.9291 73.8017 41.931 73.8082 41.9319 73.815C41.9325 73.8201 41.9325 73.8254 41.9325 73.8321C41.9325 74.9289 41.7907 75.994 41.5231 76.9882C41.7435 77.1618 41.9167 77.3827 42.0191 77.651C42.1765 78.0534 42.1687 78.4952 41.9954 78.8976C41.8222 79.3 41.4994 79.6077 41.0979 79.7656C40.9011 79.8366 40.7043 79.876 40.4995 79.876C40.4458 79.876 40.3958 79.8687 40.3469 79.8615C40.3242 79.8582 40.3016 79.8549 40.2791 79.8523C39.9169 80.4204 39.4997 80.9491 39.0273 81.4067L38.9564 81.4777V83.2609H40.2082V85.4465L43.6961 86.4407C45.7037 86.9851 47.113 88.7919 47.1839 90.867C49.9159 87.7346 51.5771 83.6475 51.5771 79.1659C51.5771 69.3505 43.6095 61.3657 33.8152 61.3657ZM63.0326 26.8778C65.2528 22.3252 69.1107 18.9087 73.8976 17.2597L73.9055 17.2518C83.7863 13.859 94.5804 19.1454 97.9737 29.0397C99.6114 33.829 99.2886 38.9734 97.0683 43.534C95.8165 46.0983 94.045 48.276 91.8957 50.0039C91.8405 50.2722 91.6122 50.4773 91.3288 50.4773H91.313C89.9746 51.4636 88.4944 52.2684 86.9119 52.8838C86.8017 52.9943 86.66 53.0574 86.4947 53.0574H86.4868C86.4396 53.0732 86.3943 53.0929 86.349 53.1126C86.3038 53.1324 86.2585 53.1521 86.2112 53.1679C84.2036 53.8622 82.1251 54.2094 80.0387 54.2094C77.1571 54.2094 74.3621 53.5545 71.7403 52.2684C70.1893 51.5109 68.7879 50.5562 67.5282 49.4437C67.3943 49.3964 67.292 49.3017 67.2211 49.1833C64.9222 47.0688 63.1743 44.4098 62.1351 41.3799C60.4974 36.5827 60.8124 31.4304 63.0326 26.8778ZM85.912 28.1402C85.5892 28.2112 85.2507 28.2428 84.9043 28.2428H72.8426C72.9371 28.9687 73.1811 29.6709 73.5827 30.2942L77.0783 35.7385C77.5822 36.5275 78.4404 36.993 79.3694 36.993C80.2985 36.993 81.1567 36.5196 81.6605 35.7385L85.1641 30.2785C85.5814 29.6315 85.8333 28.8977 85.912 28.1402ZM72.7953 26.5543V27.0593H84.9043C87.0773 27.0593 88.8409 25.284 88.8409 23.1142V22.6092H76.7319C74.5589 22.6092 72.7953 24.3845 72.7953 26.5543ZM73.0315 31.6356L72.7953 31.2726C72.7953 31.3436 72.8111 31.4225 72.8505 31.4857C72.8977 31.5567 72.9607 31.604 73.0315 31.6356ZM79.3694 52.8207C79.5112 52.8207 79.6293 52.7655 79.7159 52.6629L79.7237 52.655L79.8182 52.5682L81.7708 51.2032C81.9676 50.9349 82.0542 50.5957 81.9991 50.2643L80.763 42.5319C80.3536 42.7134 79.9048 42.8159 79.4482 42.8159C79.0152 42.8159 78.59 42.7213 78.1885 42.5556L76.7319 49.9645C76.6611 50.2958 76.7398 50.643 76.9288 50.9192L78.9994 52.6156C79.1096 52.7576 79.2356 52.8207 79.3694 52.8207ZM82.5345 52.1106L81.3456 52.939V52.9469C82.8494 52.8286 84.3453 52.5445 85.8097 52.0396C85.8412 52.0317 85.8884 52.008 85.8884 52.008V46.8952C85.8884 46.5717 86.1561 46.3034 86.4789 46.3034C86.8017 46.3034 87.0694 46.5717 87.0694 46.8952V51.5346C88.3764 50.9744 89.6046 50.2643 90.7226 49.42V43.6207C90.7226 42.0901 89.699 40.7408 88.2268 40.3463L84.9122 39.4468C83.7076 39.1155 82.8573 38.0108 82.8573 36.7484V36.0383L82.6447 36.3697C81.9203 37.498 80.6921 38.1686 79.3616 38.1686C78.031 38.1686 76.8028 37.4901 76.0785 36.3697L75.9604 36.1803V36.7563C75.9604 38.0029 75.1179 39.1155 73.9212 39.4468L70.7877 40.3227C69.3312 40.7329 68.3155 42.0743 68.3155 43.5892V48.5442C69.4965 49.5857 70.8113 50.4852 72.26 51.1953C73.9055 52.0001 75.6297 52.5366 77.3933 52.8049L76.0706 51.7318C75.6139 51.1401 75.4486 50.43 75.5824 49.7435L77.1256 41.8928L74.8109 40.0544C74.6849 39.9597 74.6062 39.8177 74.5904 39.6599C74.5747 39.5021 74.6219 39.3522 74.7164 39.2259C74.8109 39.0997 74.9526 39.0208 75.1101 39.005C75.2596 38.9813 75.4171 39.0287 75.5431 39.1312L78.1334 41.1906C78.9207 41.8139 80.0623 41.7902 80.826 41.1353L83.1486 39.1391C83.4005 38.9261 83.7705 38.9498 83.9831 39.2023C84.1957 39.4547 84.1642 39.8256 83.9201 40.0386L81.8495 41.8139L83.1643 50.0828C83.2745 50.7771 83.0777 51.4873 82.6289 52.0238L82.5345 52.1106ZM91.9035 48.4495C93.5805 46.9346 94.9741 45.1041 95.9976 43.0132L95.9897 43.0211C98.0761 38.7525 98.3753 33.9237 96.8321 29.4263C94.3678 22.2384 87.6127 17.4096 80.0229 17.4096C78.0704 17.4096 76.1336 17.7331 74.2676 18.3722C69.7799 19.9187 66.1583 23.1221 64.0797 27.3906C61.9934 31.6592 61.6942 36.488 63.2373 40.9854C64.0719 43.4156 65.4024 45.5854 67.1109 47.4001V43.5892C67.1109 41.5456 68.4809 39.7388 70.4491 39.1865L73.5827 38.3107C74.2755 38.1213 74.7558 37.4822 74.7558 36.7642V34.3498L73.7244 32.7481C73.5512 32.8112 73.3622 32.8585 73.1733 32.8585C72.6221 32.8585 72.1183 32.5745 71.8269 32.109C71.6065 31.746 71.5356 31.32 71.6301 30.9097C71.7088 30.5941 71.8821 30.31 72.1182 30.097C71.8584 29.5052 71.701 28.874 71.638 28.2349H71.5986V26.5464C71.5986 23.7138 73.8976 21.4178 76.7162 21.4178H90.0061V23.1063C90.0061 25.1341 88.8172 26.8857 87.1088 27.7141C87.093 28.6057 86.8883 29.4658 86.5025 30.2627C86.9277 30.7755 87.0064 31.5172 86.6364 32.109C86.4159 32.4719 86.0616 32.7244 85.6522 32.8191C85.5341 32.8428 85.4082 32.8585 85.2901 32.8585C85.172 32.8585 85.0539 32.8349 84.9358 32.8112L84.0304 34.2157V34.2472V36.7484C84.0304 37.4743 84.5185 38.1134 85.2192 38.3028L88.5338 39.2023C90.5179 39.7388 91.9035 41.5535 91.9035 43.6129V48.4495ZM143.992 74.3687L134.6 77.6037C132.915 74.6054 130.671 72.0253 127.939 69.9344L132.261 61.0658L123.94 56.9866L119.68 65.729C116.35 64.7506 112.791 64.4665 109.351 64.9005L106.264 55.8899L97.5014 58.9039L100.525 67.7252C97.3754 69.4215 94.5726 71.8123 92.3996 74.6606L84.2194 70.6524L80.1489 78.9923L88.2032 82.9374C87.1718 86.4486 86.912 90.2122 87.4474 93.8259L79.0546 96.7137L82.0621 105.495L90.4549 102.608C92.25 105.795 94.7615 108.596 97.7297 110.735L93.7931 118.806L102.115 122.885L106.115 114.688C109.579 115.595 113.256 115.753 116.775 115.153L119.798 123.974L128.561 120.96L125.475 111.95C128.459 110.174 131.096 107.752 133.12 104.935L141.843 109.204L145.914 100.864L137.064 96.5322C137.938 93.1947 138.127 89.7782 137.615 86.3775L147.008 83.1426L144 74.3608L143.992 74.3687ZM136.285 85.5885L136.371 86.0856C136.97 89.6441 136.781 93.2183 135.797 96.6979L135.663 97.1713L144.331 101.416L141.3 107.634L132.726 103.436L132.435 103.854C130.38 106.853 127.624 109.385 124.467 111.176L124.042 111.421L127.065 120.234L120.538 122.483L117.562 113.812L117.058 113.906C113.389 114.609 109.555 114.443 105.957 113.425L105.485 113.291L101.58 121.307L95.3756 118.27L99.2335 110.348L98.8162 110.056C95.6748 107.886 93.0609 104.967 91.258 101.606L91.0218 101.164L82.8022 103.996L80.5583 97.4554L88.7779 94.6228L88.6913 94.1257C88.0536 90.3621 88.3213 86.4486 89.4786 82.8033L89.6361 82.3141L81.7314 78.4479L84.7626 72.2305L92.7618 76.144L93.0531 75.7416C95.2654 72.7196 98.1942 70.2263 101.517 68.5221L101.973 68.2854L98.9973 59.6141L105.524 57.3654L108.547 66.1787L109.036 66.1077C112.626 65.579 116.35 65.8789 119.814 66.9756L120.302 67.1334L124.491 58.541L130.695 61.5787L126.459 70.2658L126.86 70.5577C129.774 72.696 132.112 75.3944 133.82 78.5742L134.057 79.016L143.276 75.8442L145.52 82.3851L136.3 85.557L136.285 85.5885ZM95.5094 81.7776C97.7297 77.225 101.588 73.8085 106.374 72.1595V72.1516C116.255 68.7509 127.049 74.0452 130.443 83.9395C132.08 88.7367 131.765 93.889 129.545 98.4416C127.325 102.994 123.467 106.411 118.68 108.06C116.673 108.754 114.594 109.101 112.508 109.101C109.626 109.101 106.831 108.454 104.209 107.168C99.6665 104.943 96.2574 101.077 94.6119 96.2797C92.9743 91.4825 93.2892 86.3302 95.5094 81.7776ZM118.184 106.971C118.222 106.961 118.259 106.951 118.294 106.939V106.931C119.845 106.403 121.286 105.653 122.601 104.746C122.554 104.667 122.522 104.572 122.522 104.47V98.5679C122.522 97.195 121.601 95.9878 120.286 95.6327L118.633 95.183C118.003 96.3902 115.114 96.9425 112.271 96.9425C109.429 96.9425 106.563 96.3902 105.918 95.1909L104.398 95.617C103.091 95.9799 102.178 97.1871 102.178 98.5442V104.462C102.178 104.474 102.174 104.486 102.17 104.497C102.166 104.509 102.162 104.521 102.162 104.533C102.965 105.117 103.816 105.645 104.721 106.087C105.335 106.387 105.965 106.64 106.595 106.868V101.558C106.595 101.235 106.863 100.966 107.185 100.966C107.508 100.966 107.776 101.235 107.776 101.558V107.247C110.752 108.083 113.87 108.115 116.893 107.342V107.318V101.558C116.893 101.235 117.161 100.966 117.483 100.966C117.806 100.966 118.074 101.235 118.074 101.558V107.002C118.109 106.991 118.147 106.981 118.184 106.971ZM106.721 85.1151C106.989 86.8668 107.713 88.3896 108.799 89.4389L109.217 89.8335L109.154 92.3346C109.154 93.4866 108.374 94.5123 107.256 94.8279L107.154 94.8595C107.689 95.2067 109.366 95.7748 112.264 95.7748C115.161 95.7748 116.838 95.2067 117.373 94.8595L117.255 94.8279C116.129 94.5202 115.342 93.4945 115.342 92.3189V89.7782L115.743 89.3995C117.05 88.1213 117.838 86.1566 117.924 83.9868L109.429 80.5704C109.327 81.1937 109.083 81.9669 108.532 82.5272C108.067 83.0006 107.469 83.2373 106.768 83.2373C106.445 83.2373 106.178 82.969 106.178 82.6455C106.178 82.322 106.445 82.0537 106.768 82.0537C107.154 82.0537 107.453 81.9354 107.689 81.6987C108.225 81.1543 108.327 80.0733 108.327 79.734L108.311 78.8424L118.775 83.0558C118.751 82.9927 118.735 82.9296 118.735 82.8664V80.3495C118.735 78.3217 117.09 76.6726 115.066 76.6726H109.311C108.358 76.6726 107.477 77.1539 106.957 77.9587C106.618 78.4874 105.965 78.7083 105.374 78.5032C105.319 78.4874 105.272 78.4953 105.233 78.5268C105.193 78.5584 105.17 78.6057 105.17 78.6531V83.5292C105.17 83.7817 105.272 84.0184 105.437 84.192C105.435 84.1224 105.431 84.0538 105.428 83.9855C105.421 83.8522 105.414 83.72 105.414 83.5844C105.414 83.2609 105.682 82.9927 106.004 82.9927C106.327 82.9927 106.595 83.2609 106.595 83.5844C106.595 84.0421 106.634 84.4918 106.689 84.9258C106.705 84.9731 106.721 85.0283 106.721 85.0836V85.1151ZM123.703 103.917C125.679 102.308 127.325 100.288 128.474 97.9209L128.506 97.913C130.592 93.6444 130.891 88.8156 129.348 84.3182C126.884 77.1303 120.129 72.3015 112.539 72.3015C110.587 72.3015 108.65 72.625 106.784 73.2641C102.296 74.8106 98.6744 78.014 96.5959 82.2826C94.5095 86.5511 94.2103 91.3799 95.7535 95.8773C96.8006 98.9387 98.6272 101.574 101.021 103.618V98.5442C101.021 96.6506 102.288 94.9779 104.099 94.4729L106.957 93.676C107.563 93.5024 107.988 92.9422 107.988 92.311L108.036 90.3227L107.996 90.2832C107.469 89.7782 107.028 89.1786 106.658 88.5158C106.579 88.5316 106.5 88.5395 106.422 88.5395C106.233 88.5395 106.052 88.5079 105.871 88.4369C105.493 88.287 105.201 88.0108 105.044 87.64C104.878 87.277 104.871 86.8668 105.02 86.4959C105.138 86.1882 105.359 85.9357 105.642 85.77C105.638 85.7442 105.631 85.7184 105.624 85.6917C105.616 85.6614 105.607 85.63 105.603 85.5964C104.682 85.3518 103.997 84.5234 103.997 83.5213V78.6452C103.997 78.2112 104.201 77.8088 104.556 77.5563C104.91 77.3039 105.359 77.2407 105.768 77.3828C105.839 77.4143 105.918 77.3828 105.965 77.3196C106.697 76.1677 107.949 75.4812 109.311 75.4812H115.066C117.743 75.4812 119.916 77.6589 119.916 80.3416V82.8585C119.916 83.182 119.649 83.4503 119.326 83.4503C119.255 83.4503 119.184 83.4266 119.113 83.403V83.5765C119.113 84.3024 119.034 85.0126 118.901 85.699C119.625 86.0462 119.948 86.8983 119.625 87.64C119.381 88.1844 118.845 88.5395 118.247 88.5395C118.121 88.5395 117.995 88.5158 117.877 88.4842C117.507 89.1391 117.074 89.7309 116.562 90.2359L116.523 90.2753V92.3031C116.523 92.9422 116.956 93.5024 117.57 93.6681L120.593 94.4887C122.428 94.9857 123.703 96.6664 123.703 98.5679V103.917Z" fill="white"/>
</svg>
