<svg width="97" height="95" viewBox="0 0 97 95" fill="none" xmlns="http://www.w3.org/2000/svg">
<path id="Union" fill-rule="evenodd" clip-rule="evenodd" d="M39.77 6.37C45.16 5.48 50.66 5.4 56.1 6.13L55.35 10.7L65.49 6.87L57.11 0L56.36 4.57C50.72 3.58 45.05 3.69 39.49 4.89L39.25 4.94L39.53 6.4L39.77 6.36V6.37ZM12.71 30.3698C13.12 30.3698 13.46 30.0298 13.46 29.6198V22.7798C13.46 22.0998 13.55 21.4098 13.73 20.7598C14.25 18.8298 16.07 17.4698 18.15 17.4698H19.47C20.81 17.4698 21.91 16.3798 21.91 15.0298V14.0098L21.36 13.8598C21.36 13.8598 18.86 13.1498 17.69 11.1398C17.06 10.1398 16.73 8.98978 16.73 7.81978C16.73 6.71978 17.02 5.64978 17.57 4.69978L17.73 4.81978C18.2 5.18978 18.81 5.65978 19.37 6.07978C20.51 6.93978 22.11 7.02978 23.33 6.29978C23.82 6.00978 24.38 5.84978 24.95 5.84978H28.91C28.97 6.02978 29.03 6.20978 29.07 6.39978C29.43 8.04978 29.15 9.71978 28.29 11.0998C26.6572 13.3591 24.6369 13.7891 24.4191 13.8354C24.4075 13.8379 24.401 13.8393 24.4 13.8398L23.75 13.9298V15.0398C23.75 16.3798 24.84 17.4798 26.19 17.4798H27.8C29.88 17.4798 31.69 18.8298 32.22 20.7698C32.4 21.4198 32.49 22.0998 32.49 22.7898V29.6298C32.49 30.0398 32.83 30.3798 33.24 30.3798C33.65 30.3798 33.99 30.0398 33.99 29.6298V22.7898C33.99 21.9698 33.88 21.1498 33.67 20.3698C32.97 17.7798 30.56 15.9798 27.81 15.9798H26.2C25.74 15.9798 25.36 15.6498 25.28 15.1798C26.3 14.8698 28.04 14.0498 29.55 11.9498C30.65 10.2098 31 8.12978 30.55 6.08978C29.9 3.13978 27.46 0.779781 24.5 0.219781C22.18 -0.220219 19.83 0.379781 18.05 1.85978C16.26 3.33978 15.24 5.50978 15.24 7.82978C15.24 9.28978 15.65 10.7098 16.42 11.9298C17.53 13.8298 19.47 14.7698 20.42 15.1298C20.38 15.6098 19.98 15.9798 19.49 15.9798H18.17C15.42 15.9798 13.01 17.7898 12.31 20.3698C12.1 21.1498 11.99 21.9698 11.99 22.7898V29.6298C11.99 30.0398 12.33 30.3798 12.74 30.3798L12.71 30.3698ZM24.2 1.68978C25.8 1.98978 27.27 2.97978 28.19 4.35978H24.95C24.11 4.35978 23.28 4.58978 22.56 5.01978C21.84 5.44978 20.94 5.39978 20.28 4.89978C19.49 4.29978 18.88 3.82978 18.47 3.50978C18.65 3.31978 18.82 3.14978 18.99 3.00978C20.43 1.81978 22.33 1.32978 24.2 1.68978ZM17.41 21.8301C17 21.8301 16.66 22.1701 16.66 22.5801V29.6201C16.66 30.0301 17 30.3701 17.41 30.3701C17.82 30.3701 18.16 30.0301 18.16 29.6201V22.5801C18.16 22.1701 17.82 21.8301 17.41 21.8301ZM29.9 22.5801V29.6201C29.9 30.0301 29.56 30.3701 29.15 30.3701C28.74 30.3701 28.4 30.0301 28.4 29.6201V22.5801C28.4 22.1701 28.74 21.8301 29.15 21.8301C29.56 21.8301 29.9 22.1701 29.9 22.5801ZM22.24 73.7698H20.63C20.17 73.7698 19.79 73.4398 19.71 72.9698C20.6 72.6898 22.43 71.8998 23.98 69.7398C25.07 67.9998 25.43 65.9198 24.98 63.8798C24.33 60.9298 21.89 58.5698 18.92 58.0098C16.6 57.5798 14.25 58.1698 12.47 59.6498C10.68 61.1298 9.66003 63.2998 9.66003 65.6198C9.66003 67.0798 10.07 68.4998 10.84 69.7198C11.94 71.6198 13.89 72.5598 14.84 72.9198C14.8 73.3998 14.4 73.7698 13.91 73.7698H12.59C9.84003 73.7698 7.43003 75.5798 6.73003 78.1598C6.52003 78.9398 6.41003 79.7598 6.41003 80.5798V87.4198C6.41003 87.8298 6.75003 88.1698 7.16003 88.1698C7.57003 88.1698 7.91003 87.8298 7.91003 87.4198V80.5798C7.91003 79.8898 8.00003 79.2098 8.18003 78.5598C8.71003 76.6298 10.52 75.2698 12.6 75.2698H13.92C15.26 75.2698 16.35 74.1798 16.35 72.8398V71.8198L15.8 71.6698C15.78 71.6698 13.3 70.9598 12.13 68.9498C11.5 67.9498 11.17 66.7998 11.17 65.6298C11.17 64.5298 11.46 63.4598 12.01 62.5098C12.3945 62.8173 12.9174 63.2172 13.7121 63.8249L13.7122 63.825L13.81 63.8998C14.95 64.7598 16.55 64.8498 17.77 64.1198C18.26 63.8298 18.82 63.6698 19.39 63.6698H23.35C23.41 63.8398 23.47 64.0298 23.51 64.2198C23.87 65.8698 23.59 67.5398 22.73 68.9198C21.0972 71.1792 19.0768 71.6091 18.8591 71.6554C18.8475 71.6579 18.841 71.6593 18.84 71.6598L18.19 71.7498V72.8598C18.19 74.1998 19.28 75.2898 20.62 75.2898H22.23C24.31 75.2898 26.12 76.6398 26.65 78.5798C26.83 79.2398 26.92 79.9198 26.92 80.5998V87.4398C26.92 87.8498 27.26 88.1898 27.67 88.1898C28.08 88.1898 28.42 87.8498 28.42 87.4398V80.5998C28.42 79.7798 28.31 78.9698 28.1 78.1798C27.4 75.5898 24.99 73.7898 22.24 73.7898V73.7698ZM18.64 59.4898C20.25 59.7898 21.71 60.7798 22.63 62.1598H19.39C18.55 62.1598 17.72 62.3898 17 62.8198C16.28 63.2498 15.38 63.1998 14.71 62.6998C14.095 62.2318 13.6454 61.8845 13.3132 61.628C13.1485 61.5008 13.0127 61.396 12.9 61.3098C13.08 61.1198 13.25 60.9598 13.42 60.8098C14.86 59.6198 16.76 59.1398 18.63 59.4898H18.64ZM11.1 80.3799C11.1 79.9699 11.44 79.6299 11.85 79.6299C12.26 79.6299 12.6 79.9699 12.6 80.3799V87.4199C12.6 87.8299 12.26 88.1699 11.85 88.1699C11.44 88.1699 11.1 87.8299 11.1 87.4199V80.3799ZM23.58 79.6299C23.17 79.6299 22.83 79.9699 22.83 80.3799V87.4199C22.83 87.8299 23.17 88.1699 23.58 88.1699C23.99 88.1699 24.33 87.8299 24.33 87.4199V80.3799C24.33 79.9699 23.99 79.6299 23.58 79.6299ZM83.89 77.2898H85.5V77.3098C88.25 77.3098 90.66 79.1098 91.36 81.6998C91.57 82.4898 91.68 83.2998 91.68 84.1198V90.9598C91.68 91.3698 91.34 91.7098 90.93 91.7098C90.52 91.7098 90.18 91.3698 90.18 90.9598V84.1198C90.18 83.4398 90.09 82.7598 89.91 82.0998C89.38 80.1598 87.57 78.8098 85.49 78.8098H83.88C82.54 78.8098 81.45 77.7198 81.45 76.3798V75.2698L82.1 75.1798C82.1007 75.1795 82.1037 75.1788 82.1089 75.1777L82.1192 75.1755C82.3368 75.1292 84.3572 74.6992 85.99 72.4398C86.85 71.0598 87.13 69.3898 86.77 67.7398C86.73 67.5498 86.67 67.3698 86.61 67.1898H82.65C82.08 67.1898 81.52 67.3498 81.03 67.6398C79.81 68.3698 78.21 68.2798 77.07 67.4198C76.8289 67.2343 76.6049 67.0632 76.3982 66.9052L76.395 66.9027C75.9345 66.5508 75.5595 66.2642 75.27 66.0298C74.72 66.9798 74.43 68.0498 74.43 69.1498C74.43 70.3198 74.76 71.4698 75.39 72.4698C76.56 74.4798 79.04 75.1898 79.06 75.1898L79.61 75.3398V76.3598C79.61 77.6998 78.52 78.7898 77.18 78.7898H75.86C73.78 78.7898 71.97 80.1498 71.44 82.0798C71.26 82.7298 71.17 83.4098 71.17 84.0998V90.9398C71.17 91.3498 70.83 91.6898 70.42 91.6898C70.01 91.6898 69.67 91.3498 69.67 90.9398V84.0998C69.67 83.2798 69.78 82.4598 69.99 81.6798C70.69 79.0998 73.1 77.2898 75.85 77.2898H77.17C77.66 77.2898 78.06 76.9198 78.1 76.4398C77.15 76.0798 75.2 75.1398 74.1 73.2398C73.33 72.0198 72.92 70.5998 72.92 69.1398C72.92 66.8298 73.94 64.6498 75.73 63.1698C77.52 61.6898 79.86 61.0898 82.18 61.5298C85.15 62.0898 87.59 64.4498 88.24 67.3998C88.69 69.4398 88.34 71.5198 87.24 73.2598C85.72 75.3598 83.99 76.1798 82.97 76.4898C83.05 76.9598 83.43 77.2898 83.89 77.2898ZM85.89 65.6698C84.97 64.2898 83.51 63.2998 81.9 62.9998C80.03 62.6498 78.13 63.1298 76.69 64.3198C76.52 64.4598 76.35 64.6298 76.17 64.8198C76.2827 64.906 76.4183 65.0107 76.5828 65.1378L76.5854 65.1397L76.588 65.1418C76.9197 65.3979 77.368 65.7441 77.98 66.2098C78.64 66.7098 79.54 66.7598 80.26 66.3298C80.98 65.8998 81.8101 65.6698 82.65 65.6698H85.89ZM75.11 83.1499C74.7 83.1499 74.36 83.4899 74.36 83.8999V90.9399C74.36 91.3499 74.7 91.6899 75.11 91.6899C75.52 91.6899 75.86 91.3499 75.86 90.9399V83.8999C75.86 83.4899 75.52 83.1499 75.11 83.1499ZM86.1 83.8999C86.1 83.4899 86.44 83.1499 86.85 83.1499C87.26 83.1499 87.6 83.4899 87.6 83.8999V90.9399C87.6 91.3499 87.26 91.6899 86.85 91.6899C86.44 91.6899 86.1 91.3499 86.1 90.9399V83.8999ZM70.11 30.3702C70.52 30.3702 70.86 30.0302 70.86 29.6202V22.7802C70.86 22.0902 70.95 21.4102 71.13 20.7602C71.65 18.8302 73.47 17.4702 75.55 17.4702H76.87C78.21 17.4702 79.3 16.3802 79.3 15.0302V14.0102L78.75 13.8602C78.73 13.8602 76.25 13.1502 75.08 11.1402C74.45 10.1402 74.12 8.99021 74.12 7.82021C74.12 6.72021 74.41 5.65021 74.96 4.70021L75.12 4.82021C75.59 5.19021 76.2 5.66021 76.76 6.08021C77.9 6.94021 79.5 7.03021 80.72 6.30021C81.21 6.01021 81.77 5.85021 82.34 5.85021H86.3L86.3001 5.85038C86.36 6.03032 86.42 6.21027 86.46 6.40021C86.82 8.05021 86.54 9.72021 85.68 11.1002C84.0472 13.3595 82.0269 13.7895 81.8091 13.8358L81.809 13.8359C81.7975 13.8383 81.791 13.8397 81.79 13.8402L81.14 13.9302V15.0402C81.14 16.3802 82.23 17.4802 83.58 17.4802H85.19C87.27 17.4802 89.08 18.8302 89.61 20.7702C89.79 21.4302 89.88 22.1102 89.88 22.7902V29.6302C89.88 30.0402 90.22 30.3802 90.63 30.3802C91.04 30.3802 91.38 30.0402 91.38 29.6302V22.7902C91.38 21.9702 91.27 21.1602 91.06 20.3702C90.36 17.7802 87.95 15.9802 85.2 15.9802H83.59C83.13 15.9802 82.75 15.6502 82.67 15.1802C83.69 14.8702 85.43 14.0502 86.94 11.9502C88.04 10.2102 88.39 8.13021 87.94 6.09021C87.29 3.14021 84.85 0.780206 81.88 0.220206C79.57 -0.209794 77.21 0.380206 75.43 1.86021C73.64 3.34021 72.62 5.51021 72.62 7.83021C72.62 9.29021 73.03 10.7102 73.8 11.9302C74.9 13.8302 76.85 14.7702 77.8 15.1302C77.76 15.6102 77.36 15.9802 76.87 15.9802H75.55C72.8 15.9802 70.39 17.7902 69.69 20.3702C69.48 21.1502 69.37 21.9602 69.37 22.7902V29.6302C69.37 30.0402 69.71 30.3802 70.12 30.3802L70.11 30.3702ZM81.6 1.69021C83.21 1.99021 84.67 2.98021 85.59 4.36021H82.35C81.51 4.36021 80.68 4.59021 79.96 5.02021C79.24 5.45021 78.34 5.40021 77.68 4.90021C76.89 4.30021 76.28 3.83021 75.87 3.51021C76.05 3.32021 76.22 3.15021 76.39 3.01021C77.83 1.82021 79.73 1.34021 81.6 1.69021ZM74.0599 22.5801C74.0599 22.1701 74.3999 21.8301 74.8099 21.8301C75.2199 21.8301 75.5599 22.1701 75.5599 22.5801V26.5001C75.5599 26.9101 75.2199 27.2501 74.8099 27.2501C74.3999 27.2501 74.0599 26.9101 74.0599 26.5001V22.5801ZM87.3 26.4898V22.5698C87.3 22.1598 86.9601 21.8198 86.55 21.8198C86.14 21.8198 85.8 22.1598 85.8 22.5698V26.4898C85.8 26.8998 86.14 27.2398 86.55 27.2398C86.9601 27.2398 87.3 26.8998 87.3 26.4898ZM90.96 47.7898C90.96 44.8198 90.7 41.7898 90.21 38.7798H90.22L90.18 38.5398L91.64 38.2598L91.69 38.4998C92.35 41.5598 92.68 44.6898 92.68 47.7898C92.68 50.2598 92.46 52.8098 92.01 55.3698L96.58 56.1198L89.71 64.4998L85.89 54.3598L90.46 55.1098C90.79 52.6198 90.96 50.1498 90.96 47.7898ZM6.59999 47.7998C6.59999 50.7698 6.85999 53.7998 7.34999 56.8098H7.35999L7.39999 57.0498L5.93999 57.3298L5.88999 57.0898C5.21999 54.0298 4.88999 50.9098 4.88999 47.7998C4.88999 45.3198 5.10999 42.7798 5.55999 40.2198L0.98999 39.4698L7.83999 31.0898L11.67 41.2298L7.09999 40.4798C6.76999 42.9698 6.59999 45.4298 6.59999 47.7998ZM62.51 89.5601C55.92 90.7001 49.02 90.2201 42.55 88.1701L44.12 83.8301L33.45 85.7401L40.43 94.0301L42.03 89.6001C46.36 90.9801 50.84 91.6801 55.36 91.6801C57.84 91.6801 60.33 91.4701 62.77 91.0501C63.18 90.9801 63.45 90.5901 63.38 90.1801C63.34 89.9801 63.23 89.8101 63.07 89.6901C62.91 89.5801 62.7099 89.5301 62.52 89.5701L62.51 89.5601ZM73.93 52.4101H67.43C66.98 54.2601 66.19 56.0101 65.09 57.6201L69.57 62.1001L64.65 67.0201L60.05 62.4201C58.41 63.4101 56.61 64.0901 54.71 64.4501V70.7801H47.76V64.2801C45.91 63.8201 44.16 63.0301 42.55 61.9301L38.07 66.4101L33.15 61.4901L37.75 56.8901C36.78 55.2801 36.1 53.5201 35.74 51.6501L29.38 51.5401V44.4901H35.88C36.34 42.6401 37.13 40.8901 38.23 39.2801L33.75 34.8001L38.67 29.8801L43.27 34.4801C44.91 33.4901 46.71 32.8101 48.61 32.4501V26.1201H55.56V32.6201C57.41 33.0801 59.16 33.8701 60.77 34.9701L65.25 30.4901L70.17 35.4101L65.57 40.0101C66.56 41.6501 67.24 43.4501 67.6 45.3501H73.93V52.4101ZM64.645 64.8951L60.25 60.5001L59.74 60.8401C57.96 62.0101 55.98 62.7601 53.84 63.0801L53.2 63.1701V69.2801H49.25V63.0701L48.65 62.9501C46.58 62.5201 44.64 61.6501 42.9 60.3601L42.38 59.9801L38.06 64.3001L35.26 61.5001L39.66 57.1001L39.32 56.5901C38.18 54.8501 37.43 52.9001 37.1 50.8001L37 50.1801L30.87 50.0701V45.9901H37.08L37.2 45.3901C37.63 43.3201 38.5 41.3801 39.79 39.6401L40.17 39.1201L35.85 34.8001L38.64 32.0001L43.04 36.4001L43.55 36.0601C45.33 34.8901 47.31 34.1401 49.45 33.8201L50.09 33.7301V27.6201H54.04V33.8301L54.64 33.9501C56.71 34.3801 58.65 35.2501 60.39 36.5401L60.91 36.9201L65.23 32.6001L68.03 35.4001L63.63 39.8001L63.97 40.3101C65.14 42.0901 65.89 44.0701 66.21 46.2101L66.3 46.8501H72.41V50.9101H66.2L66.08 51.5101C65.65 53.5801 64.78 55.5201 63.49 57.2601L63.11 57.7801L67.43 62.1001L64.645 64.8951Z" fill="#6930C3"/>
</svg>
